<svg xmlns="http://www.w3.org/2000/svg" xmlns:xlink="http://www.w3.org/1999/xlink" width="50" zoomAndPan="magnify" viewBox="0 0 37.5 37.499999" height="50" preserveAspectRatio="xMidYMid meet" version="1.0"><defs><clipPath id="9a945c73ce"><path d="M 9 11 L 28 11 L 28 31.929688 L 9 31.929688 Z M 9 11 " clip-rule="nonzero"/></clipPath><clipPath id="9679ca3cf2"><path d="M 22 5.285156 L 37 5.285156 L 37 26 L 22 26 Z M 22 5.285156 " clip-rule="nonzero"/></clipPath><clipPath id="691a49718c"><path d="M 0.015625 5.285156 L 15 5.285156 L 15 26 L 0.015625 26 Z M 0.015625 5.285156 " clip-rule="nonzero"/></clipPath></defs><g clip-path="url(#9a945c73ce)"><path fill="#0e6939" d="M 9.691406 31.714844 L 27.3125 31.714844 C 26.648438 27.199219 24.484375 23.53125 21.648438 21.945312 C 23.140625 20.933594 24.121094 19.226562 24.121094 17.289062 C 24.121094 14.1875 21.605469 11.671875 18.5 11.671875 C 15.398438 11.671875 12.882812 14.1875 12.882812 17.289062 C 12.882812 19.226562 13.863281 20.933594 15.355469 21.945312 C 12.515625 23.53125 10.355469 27.199219 9.691406 31.714844 " fill-opacity="1" fill-rule="nonzero"/></g><g clip-path="url(#9679ca3cf2)"><path fill="#0e6939" d="M 25.949219 17.289062 C 25.949219 18.921875 25.417969 20.484375 24.464844 21.753906 C 25.507812 22.714844 26.40625 23.933594 27.152344 25.324219 L 36.941406 25.324219 C 36.277344 20.808594 34.113281 17.140625 31.277344 15.554688 C 32.769531 14.542969 33.75 12.835938 33.75 10.898438 C 33.75 7.796875 31.234375 5.28125 28.128906 5.28125 C 25.027344 5.28125 22.511719 7.796875 22.511719 10.898438 C 22.511719 10.941406 22.519531 10.984375 22.519531 11.027344 C 24.578125 12.351562 25.949219 14.660156 25.949219 17.289062 " fill-opacity="1" fill-rule="nonzero"/></g><g clip-path="url(#691a49718c)"><path fill="#0e6939" d="M 0.0625 25.324219 L 9.851562 25.324219 C 10.597656 23.933594 11.496094 22.714844 12.539062 21.753906 C 11.585938 20.484375 11.050781 18.921875 11.050781 17.289062 C 11.050781 14.664062 12.421875 12.351562 14.484375 11.027344 C 14.484375 10.984375 14.492188 10.941406 14.492188 10.898438 C 14.492188 7.796875 11.976562 5.28125 8.875 5.28125 C 5.769531 5.28125 3.253906 7.796875 3.253906 10.898438 C 3.253906 12.835938 4.234375 14.542969 5.726562 15.554688 C 2.890625 17.140625 0.726562 20.808594 0.0625 25.324219 " fill-opacity="1" fill-rule="nonzero"/></g></svg>