<svg xmlns="http://www.w3.org/2000/svg" xmlns:xlink="http://www.w3.org/1999/xlink" width="50" zoomAndPan="magnify" viewBox="0 0 37.5 37.499999" height="50" preserveAspectRatio="xMidYMid meet" version="1.0"><defs><clipPath id="899f4f5b5d"><path d="M 3.128906 1.8125 L 34 1.8125 L 34 35.121094 L 3.128906 35.121094 Z M 3.128906 1.8125 " clip-rule="nonzero"/></clipPath></defs><g clip-path="url(#899f4f5b5d)"><path fill="#0e6939" d="M 7.789062 7.457031 L 3.226562 7.457031 C 3.277344 7.34375 3.351562 7.238281 3.449219 7.140625 L 8.453125 2.136719 C 8.546875 2.039062 8.652344 1.964844 8.769531 1.914062 L 8.769531 6.476562 C 8.769531 7.015625 8.328125 7.457031 7.789062 7.457031 Z M 28.136719 10.519531 L 28.136719 5.789062 C 28.136719 5.191406 27.648438 4.703125 27.050781 4.703125 L 26.335938 4.703125 L 26.335938 10.417969 C 26.933594 10.398438 27.535156 10.433594 28.136719 10.519531 Z M 26.652344 18.769531 C 25.890625 18.769531 25.269531 19.386719 25.269531 20.152344 C 25.269531 20.648438 25.53125 21.085938 25.925781 21.328125 L 25.925781 22.066406 C 25.925781 22.464844 26.253906 22.792969 26.652344 22.792969 C 27.054688 22.792969 27.382812 22.464844 27.382812 22.066406 L 27.382812 21.328125 C 27.773438 21.085938 28.035156 20.648438 28.035156 20.152344 C 28.035156 19.386719 27.417969 18.769531 26.652344 18.769531 Z M 24.167969 32.300781 L 4.21875 32.300781 C 3.621094 32.300781 3.128906 31.808594 3.128906 31.210938 L 3.128906 8.539062 L 7.417969 8.539062 C 7.355469 8.628906 7.316406 8.738281 7.316406 8.855469 L 7.316406 8.984375 C 6.863281 9.175781 6.5625 9.617188 6.5625 10.113281 C 6.5625 10.785156 7.109375 11.332031 7.78125 11.332031 L 7.933594 11.332031 C 8.007812 11.332031 8.070312 11.394531 8.070312 11.46875 C 8.070312 11.542969 8.007812 11.605469 7.933594 11.605469 L 7.71875 11.605469 C 7.667969 11.605469 7.636719 11.589844 7.605469 11.546875 C 7.433594 11.308594 7.09375 11.253906 6.851562 11.429688 C 6.613281 11.601562 6.558594 11.941406 6.734375 12.179688 C 6.878906 12.382812 7.085938 12.535156 7.316406 12.617188 L 7.316406 12.726562 C 7.316406 13.023438 7.558594 13.265625 7.855469 13.265625 C 8.15625 13.265625 8.398438 13.023438 8.398438 12.726562 L 8.398438 12.59375 C 8.851562 12.40625 9.152344 11.960938 9.152344 11.46875 C 9.152344 10.796875 8.605469 10.25 7.933594 10.25 L 7.78125 10.25 C 7.707031 10.25 7.644531 10.1875 7.644531 10.113281 C 7.644531 10.039062 7.707031 9.972656 7.78125 9.972656 L 7.996094 9.972656 C 8.046875 9.972656 8.078125 9.992188 8.109375 10.03125 C 8.28125 10.273438 8.621094 10.328125 8.859375 10.152344 C 9.101562 9.976562 9.15625 9.640625 8.980469 9.398438 C 8.835938 9.199219 8.628906 9.046875 8.398438 8.964844 L 8.398438 8.855469 C 8.398438 8.710938 8.34375 8.582031 8.253906 8.484375 C 9.167969 8.273438 9.851562 7.453125 9.851562 6.476562 L 9.851562 1.820312 L 24.167969 1.820312 C 24.765625 1.820312 25.253906 2.308594 25.253906 2.90625 L 25.253906 10.507812 C 23.390625 10.757812 21.476562 11.515625 19.300781 12.773438 C 19.351562 12.691406 19.378906 12.59375 19.378906 12.492188 C 19.378906 12.195312 19.136719 11.953125 18.839844 11.953125 L 11.628906 11.953125 C 11.332031 11.953125 11.089844 12.195312 11.089844 12.492188 C 11.089844 12.789062 11.332031 13.03125 11.628906 13.03125 L 18.839844 13.03125 C 18.847656 13.03125 18.855469 13.03125 18.863281 13.03125 L 18.34375 13.34375 L 18.34375 15.753906 L 11.628906 15.753906 C 11.332031 15.753906 11.089844 15.996094 11.089844 16.296875 C 11.089844 16.59375 11.332031 16.835938 11.628906 16.835938 L 18.34375 16.835938 L 18.34375 17.808594 L 11.628906 17.808594 C 11.332031 17.808594 11.089844 18.050781 11.089844 18.347656 C 11.089844 18.648438 11.332031 18.890625 11.628906 18.890625 L 18.34375 18.890625 L 18.34375 20.109375 C 18.34375 20.421875 18.363281 20.726562 18.394531 21.023438 L 11.628906 21.023438 C 11.332031 21.023438 11.089844 21.265625 11.089844 21.566406 C 11.089844 21.863281 11.332031 22.105469 11.628906 22.105469 L 18.601562 22.105469 C 18.691406 22.441406 18.804688 22.769531 18.941406 23.085938 C 18.910156 23.082031 18.875 23.078125 18.839844 23.078125 L 11.628906 23.078125 C 11.332031 23.078125 11.089844 23.320312 11.089844 23.617188 C 11.089844 23.914062 11.332031 24.15625 11.628906 24.15625 L 18.839844 24.15625 C 19.054688 24.15625 19.242188 24.03125 19.328125 23.847656 C 19.839844 24.710938 20.539062 25.472656 21.417969 26.101562 L 25.253906 28.859375 L 25.253906 31.210938 C 25.253906 31.808594 24.765625 32.300781 24.167969 32.300781 Z M 11.089844 5 C 11.089844 5.296875 11.332031 5.539062 11.628906 5.539062 L 21.28125 5.539062 C 21.578125 5.539062 21.820312 5.296875 21.820312 5 C 21.820312 4.699219 21.578125 4.457031 21.28125 4.457031 L 11.628906 4.457031 C 11.332031 4.457031 11.089844 4.699219 11.089844 5 Z M 11.089844 7.050781 C 11.089844 7.347656 11.332031 7.589844 11.628906 7.589844 L 18.839844 7.589844 C 19.136719 7.589844 19.378906 7.347656 19.378906 7.050781 C 19.378906 6.753906 19.136719 6.511719 18.839844 6.511719 L 11.628906 6.511719 C 11.332031 6.511719 11.089844 6.753906 11.089844 7.050781 Z M 11.089844 10.441406 C 11.089844 10.738281 11.332031 10.980469 11.628906 10.980469 L 21.28125 10.980469 C 21.578125 10.980469 21.820312 10.738281 21.820312 10.441406 C 21.820312 10.140625 21.578125 9.898438 21.28125 9.898438 L 11.628906 9.898438 C 11.332031 9.898438 11.089844 10.140625 11.089844 10.441406 Z M 9.152344 27.863281 C 9.152344 27.191406 8.605469 26.644531 7.933594 26.644531 L 7.78125 26.644531 C 7.707031 26.644531 7.644531 26.582031 7.644531 26.507812 C 7.644531 26.429688 7.707031 26.367188 7.78125 26.367188 L 7.996094 26.367188 C 8.046875 26.367188 8.078125 26.386719 8.109375 26.425781 C 8.28125 26.667969 8.621094 26.722656 8.859375 26.546875 C 9.101562 26.371094 9.15625 26.035156 8.980469 25.792969 C 8.835938 25.59375 8.628906 25.441406 8.398438 25.359375 L 8.398438 25.25 C 8.398438 24.949219 8.15625 24.707031 7.855469 24.707031 C 7.558594 24.707031 7.316406 24.949219 7.316406 25.25 L 7.316406 25.378906 C 6.863281 25.566406 6.5625 26.011719 6.5625 26.507812 C 6.5625 27.175781 7.109375 27.726562 7.78125 27.726562 L 7.933594 27.726562 C 8.007812 27.726562 8.070312 27.789062 8.070312 27.863281 C 8.070312 27.9375 8.007812 28 7.933594 28 L 7.71875 28 C 7.671875 28 7.632812 27.984375 7.605469 27.945312 C 7.433594 27.703125 7.097656 27.648438 6.855469 27.820312 C 6.613281 27.996094 6.558594 28.332031 6.734375 28.574219 C 6.878906 28.773438 7.082031 28.925781 7.316406 29.011719 L 7.316406 29.121094 C 7.316406 29.417969 7.558594 29.660156 7.855469 29.660156 C 8.15625 29.660156 8.398438 29.417969 8.398438 29.121094 L 8.398438 28.988281 C 8.851562 28.800781 9.152344 28.355469 9.152344 27.863281 Z M 9.152344 22.59375 C 9.152344 21.921875 8.605469 21.375 7.933594 21.375 L 7.78125 21.375 C 7.707031 21.375 7.644531 21.3125 7.644531 21.238281 C 7.644531 21.164062 7.707031 21.097656 7.78125 21.097656 L 7.996094 21.097656 C 8.046875 21.097656 8.078125 21.117188 8.109375 21.15625 C 8.28125 21.398438 8.621094 21.453125 8.859375 21.277344 C 9.101562 21.105469 9.15625 20.765625 8.980469 20.523438 C 8.835938 20.324219 8.628906 20.171875 8.398438 20.089844 L 8.398438 19.980469 C 8.398438 19.679688 8.15625 19.4375 7.855469 19.4375 C 7.558594 19.4375 7.316406 19.679688 7.316406 19.980469 L 7.316406 20.109375 C 6.863281 20.300781 6.5625 20.742188 6.5625 21.238281 C 6.5625 21.910156 7.109375 22.457031 7.78125 22.457031 L 7.933594 22.457031 C 8.007812 22.457031 8.070312 22.519531 8.070312 22.59375 C 8.070312 22.667969 8.007812 22.730469 7.933594 22.730469 L 7.71875 22.730469 C 7.667969 22.730469 7.636719 22.714844 7.605469 22.671875 C 7.429688 22.433594 7.09375 22.378906 6.851562 22.554688 C 6.613281 22.726562 6.558594 23.066406 6.734375 23.304688 C 6.878906 23.507812 7.085938 23.660156 7.316406 23.742188 L 7.316406 23.851562 C 7.316406 24.148438 7.558594 24.390625 7.855469 24.390625 C 8.15625 24.390625 8.398438 24.148438 8.398438 23.851562 L 8.398438 23.71875 C 8.851562 23.53125 9.152344 23.089844 9.152344 22.59375 Z M 9.152344 17.324219 C 9.152344 16.652344 8.605469 16.105469 7.933594 16.105469 L 7.78125 16.105469 C 7.707031 16.105469 7.644531 16.042969 7.644531 15.96875 C 7.644531 15.894531 7.707031 15.832031 7.78125 15.832031 L 7.996094 15.832031 C 8.046875 15.832031 8.078125 15.847656 8.109375 15.890625 C 8.28125 16.128906 8.621094 16.183594 8.859375 16.007812 C 9.101562 15.835938 9.15625 15.496094 8.980469 15.257812 C 8.835938 15.054688 8.628906 14.902344 8.398438 14.820312 L 8.398438 14.710938 C 8.398438 14.414062 8.15625 14.171875 7.855469 14.171875 C 7.558594 14.171875 7.316406 14.414062 7.316406 14.710938 L 7.316406 14.84375 C 6.863281 15.03125 6.5625 15.472656 6.5625 15.96875 C 6.5625 16.640625 7.109375 17.1875 7.78125 17.1875 L 7.933594 17.1875 C 8.007812 17.1875 8.070312 17.25 8.070312 17.324219 C 8.070312 17.398438 8.007812 17.464844 7.933594 17.464844 L 7.71875 17.464844 C 7.667969 17.464844 7.636719 17.445312 7.605469 17.40625 C 7.429688 17.164062 7.09375 17.109375 6.851562 17.285156 C 6.613281 17.457031 6.558594 17.796875 6.734375 18.039062 C 6.878906 18.238281 7.085938 18.390625 7.316406 18.472656 L 7.316406 18.582031 C 7.316406 18.882812 7.558594 19.121094 7.855469 19.121094 C 8.15625 19.121094 8.398438 18.882812 8.398438 18.582031 L 8.398438 18.453125 C 8.851562 18.261719 9.152344 17.820312 9.152344 17.324219 Z M 19.378906 28.886719 C 19.378906 28.585938 19.136719 28.347656 18.839844 28.347656 L 11.628906 28.347656 C 11.332031 28.347656 11.089844 28.585938 11.089844 28.886719 C 11.089844 29.183594 11.332031 29.425781 11.628906 29.425781 L 18.839844 29.425781 C 19.136719 29.425781 19.378906 29.183594 19.378906 28.886719 Z M 21.820312 26.832031 C 21.820312 26.535156 21.578125 26.292969 21.28125 26.292969 L 11.628906 26.292969 C 11.332031 26.292969 11.089844 26.535156 11.089844 26.832031 C 11.089844 27.132812 11.332031 27.375 11.628906 27.375 L 21.28125 27.375 C 21.578125 27.375 21.820312 27.132812 21.820312 26.832031 Z M 27.777344 15.667969 C 27.777344 15.050781 27.269531 14.542969 26.652344 14.542969 C 26.039062 14.542969 25.53125 15.050781 25.53125 15.667969 L 25.53125 17.183594 L 27.777344 17.183594 Z M 26.335938 29.636719 L 26.335938 31.210938 C 26.335938 32.40625 25.363281 33.378906 24.167969 33.378906 L 6.015625 33.378906 L 6.015625 34.09375 C 6.015625 34.695312 6.503906 35.183594 7.101562 35.183594 L 27.050781 35.183594 C 27.648438 35.183594 28.136719 34.695312 28.136719 34.09375 L 28.136719 28.800781 L 26.652344 29.867188 Z M 33.882812 13.953125 L 33.882812 20.109375 C 33.882812 22.21875 32.972656 23.996094 31.257812 25.226562 L 26.652344 28.535156 L 22.046875 25.226562 C 20.335938 23.996094 19.425781 22.21875 19.425781 20.109375 L 19.425781 13.953125 C 24.898438 10.671875 28.40625 10.671875 33.882812 13.953125 Z M 30.871094 18.078125 C 30.871094 17.585938 30.46875 17.183594 29.976562 17.183594 L 29.53125 17.183594 L 29.53125 15.667969 C 29.53125 14.082031 28.238281 12.789062 26.652344 12.789062 C 25.070312 12.789062 23.773438 14.082031 23.773438 15.667969 L 23.773438 17.183594 L 23.332031 17.183594 C 22.839844 17.183594 22.4375 17.585938 22.4375 18.078125 L 22.4375 23.484375 C 22.4375 23.976562 22.839844 24.378906 23.332031 24.378906 L 29.976562 24.378906 C 30.46875 24.378906 30.871094 23.976562 30.871094 23.484375 Z M 30.871094 18.078125 " fill-opacity="1" fill-rule="nonzero"/></g></svg>