<svg xmlns="http://www.w3.org/2000/svg" xmlns:xlink="http://www.w3.org/1999/xlink" width="50" zoomAndPan="magnify" viewBox="0 0 37.5 37.499999" height="50" preserveAspectRatio="xMidYMid meet" version="1.0"><defs><clipPath id="0cc66045de"><path d="M 5 25 L 36.996094 25 L 36.996094 35.375 L 5 35.375 Z M 5 25 " clip-rule="nonzero"/></clipPath><clipPath id="519dd67911"><path d="M 4.429688 8.730469 L 36.996094 8.730469 L 36.996094 25 L 4.429688 25 Z M 4.429688 8.730469 " clip-rule="nonzero"/></clipPath><clipPath id="97511bab8b"><path d="M 0 2.664062 L 13.027344 2.664062 L 13.027344 16.726562 L 0 16.726562 Z M 0 2.664062 " clip-rule="nonzero"/></clipPath><clipPath id="7cc423f75a"><path d="M 0 3.699219 L 11.84375 3.699219 L 11.84375 15.542969 L 0 15.542969 Z M 0 3.699219 " clip-rule="nonzero"/></clipPath></defs><path fill="#0e6939" d="M 22.308594 25.105469 L 22.308594 24.382812 C 22.308594 23.5 21.59375 22.785156 20.714844 22.785156 C 19.832031 22.785156 19.117188 23.5 19.117188 24.382812 L 19.117188 25.105469 C 19.117188 25.988281 19.832031 26.703125 20.714844 26.703125 C 21.59375 26.703125 22.308594 25.988281 22.308594 25.105469 Z M 22.308594 25.105469 " fill-opacity="1" fill-rule="nonzero"/><g clip-path="url(#0cc66045de)"><path fill="#0e6939" d="M 23.40625 25.988281 C 23.050781 27.148438 21.984375 27.996094 20.714844 27.996094 C 19.441406 27.996094 18.375 27.148438 18.023438 25.988281 L 7.023438 25.988281 C 6.328125 25.988281 5.671875 25.828125 5.085938 25.546875 L 5.085938 32.851562 C 5.085938 34.277344 6.25 35.441406 7.675781 35.441406 L 33.75 35.441406 C 35.175781 35.441406 36.339844 34.277344 36.339844 32.851562 L 36.339844 25.546875 C 35.753906 25.828125 35.097656 25.988281 34.402344 25.988281 Z M 23.40625 25.988281 " fill-opacity="1" fill-rule="nonzero"/></g><g clip-path="url(#519dd67911)"><path fill="#0e6939" d="M 34.292969 12.875 L 28.070312 12.875 C 27.695312 10.527344 25.660156 8.722656 23.207031 8.722656 L 18.21875 8.722656 C 15.765625 8.722656 13.730469 10.527344 13.355469 12.875 L 7.132812 12.875 C 5.648438 12.875 4.429688 14.042969 4.429688 15.46875 L 4.429688 21.453125 C 4.429688 22.882812 5.59375 24.046875 7.023438 24.046875 L 17.898438 24.046875 C 17.9375 23.300781 18.257812 22.628906 18.761719 22.144531 C 18.777344 22.128906 18.796875 22.117188 18.8125 22.105469 C 18.925781 22 19.042969 21.902344 19.167969 21.820312 C 19.214844 21.789062 19.265625 21.769531 19.3125 21.742188 C 19.417969 21.679688 19.523438 21.617188 19.636719 21.570312 C 19.722656 21.535156 19.820312 21.511719 19.914062 21.484375 C 19.992188 21.460938 20.070312 21.429688 20.152344 21.414062 C 20.335938 21.375 20.523438 21.355469 20.714844 21.355469 C 20.90625 21.355469 21.09375 21.375 21.273438 21.414062 C 21.355469 21.429688 21.433594 21.460938 21.511719 21.484375 C 21.605469 21.511719 21.703125 21.535156 21.789062 21.570312 C 21.902344 21.617188 22.007812 21.679688 22.113281 21.742188 C 22.160156 21.769531 22.210938 21.789062 22.257812 21.820312 C 22.386719 21.902344 22.5 22 22.613281 22.105469 C 22.628906 22.117188 22.648438 22.128906 22.664062 22.144531 C 23.171875 22.628906 23.488281 23.300781 23.527344 24.046875 L 34.402344 24.046875 C 35.835938 24.046875 36.996094 22.886719 36.996094 21.453125 L 36.996094 15.46875 C 36.996094 14.042969 35.78125 12.875 34.292969 12.875 Z M 15.851562 12.875 C 16.179688 11.878906 17.113281 11.148438 18.21875 11.148438 L 23.207031 11.148438 C 24.3125 11.148438 25.246094 11.878906 25.578125 12.875 Z M 15.851562 12.875 " fill-opacity="1" fill-rule="nonzero"/></g><g clip-path="url(#97511bab8b)"><path fill="#ffffff" d="M -1.035156 9.742188 C -1.035156 13.652344 2.132812 16.820312 6.042969 16.820312 C 9.949219 16.820312 13.117188 13.652344 13.117188 9.742188 C 13.117188 5.832031 9.949219 2.664062 6.042969 2.664062 C 2.132812 2.664062 -1.035156 5.832031 -1.035156 9.742188 Z M 5.210938 5.152344 C 5.210938 4.695312 5.582031 4.324219 6.042969 4.324219 C 6.5 4.324219 6.871094 4.695312 6.871094 5.152344 L 6.871094 9.261719 L 8.992188 10.488281 C 9.390625 10.71875 9.527344 11.226562 9.296875 11.621094 C 9.070312 12.019531 8.5625 12.15625 8.164062 11.925781 L 5.625 10.460938 C 5.359375 10.308594 5.210938 10.027344 5.210938 9.742188 Z M 5.210938 5.152344 " fill-opacity="1" fill-rule="nonzero"/></g><g clip-path="url(#7cc423f75a)"><path fill="#0e6939" d="M 0 9.742188 C 0 13.082031 2.707031 15.785156 6.042969 15.785156 C 9.378906 15.785156 12.085938 13.082031 12.085938 9.742188 C 12.085938 6.40625 9.378906 3.699219 6.042969 3.699219 C 2.707031 3.699219 0 6.40625 0 9.742188 Z M 5.335938 5.824219 C 5.335938 5.433594 5.652344 5.117188 6.042969 5.117188 C 6.433594 5.117188 6.75 5.433594 6.75 5.824219 L 6.75 9.335938 L 8.5625 10.382812 C 8.902344 10.578125 9.019531 11.007812 8.824219 11.347656 C 8.628906 11.6875 8.195312 11.804688 7.855469 11.605469 L 5.6875 10.355469 C 5.460938 10.226562 5.335938 9.988281 5.335938 9.742188 Z M 5.335938 5.824219 " fill-opacity="1" fill-rule="nonzero"/></g></svg>