<svg xmlns="http://www.w3.org/2000/svg" xmlns:xlink="http://www.w3.org/1999/xlink" width="50" zoomAndPan="magnify" viewBox="0 0 37.5 37.499999" height="50" preserveAspectRatio="xMidYMid meet" version="1.0"><defs><clipPath id="0dd3f45860"><path d="M 0 3.195312 L 37 3.195312 L 37 33.542969 L 0 33.542969 Z M 0 3.195312 " clip-rule="nonzero"/></clipPath></defs><g clip-path="url(#0dd3f45860)"><path fill="#0e6939" d="M 17.074219 29.707031 C 17.191406 29.832031 17.28125 29.976562 17.34375 30.136719 C 17.40625 30.300781 17.4375 30.464844 17.433594 30.636719 C 17.433594 30.8125 17.398438 30.976562 17.332031 31.136719 C 17.269531 31.296875 17.175781 31.4375 17.054688 31.5625 C 16.617188 32.046875 16.15625 32.503906 15.667969 32.9375 C 15.429688 33.101562 15.179688 33.234375 14.90625 33.332031 C 14.621094 33.359375 14.351562 33.300781 14.097656 33.164062 C 13.847656 33.027344 13.652344 32.828125 13.519531 32.574219 C 13.382812 32.351562 13.328125 32.109375 13.347656 31.851562 C 13.371094 31.59375 13.464844 31.363281 13.632812 31.164062 C 14.128906 30.589844 14.664062 30.054688 15.234375 29.558594 C 15.367188 29.445312 15.515625 29.363281 15.679688 29.308594 C 15.84375 29.257812 16.015625 29.238281 16.1875 29.25 C 16.359375 29.265625 16.523438 29.3125 16.675781 29.390625 C 16.832031 29.46875 16.964844 29.574219 17.074219 29.707031 Z M 8.195312 20.976562 C 8.078125 20.71875 7.898438 20.515625 7.664062 20.359375 C 7.425781 20.203125 7.167969 20.125 6.886719 20.117188 C 6.589844 20.214844 6.316406 20.351562 6.054688 20.527344 C 5.542969 20.976562 5.0625 21.457031 4.605469 21.96875 C 4.484375 22.09375 4.390625 22.242188 4.328125 22.40625 C 4.261719 22.570312 4.234375 22.742188 4.238281 22.917969 C 4.242188 23.097656 4.28125 23.265625 4.355469 23.425781 C 4.429688 23.585938 4.53125 23.726562 4.660156 23.847656 C 4.78125 23.972656 4.921875 24.066406 5.082031 24.136719 C 5.242188 24.203125 5.40625 24.242188 5.582031 24.246094 C 5.753906 24.25 5.921875 24.21875 6.082031 24.160156 C 6.246094 24.097656 6.390625 24.007812 6.515625 23.890625 C 7.035156 23.425781 7.527344 22.929688 7.992188 22.414062 C 8.179688 22.222656 8.292969 21.992188 8.332031 21.726562 C 8.367188 21.460938 8.324219 21.210938 8.195312 20.972656 Z M 10.929688 23.574219 C 10.800781 23.453125 10.652344 23.363281 10.488281 23.300781 C 10.324219 23.238281 10.152344 23.207031 9.976562 23.207031 C 9.800781 23.210938 9.628906 23.246094 9.464844 23.3125 C 9.304688 23.378906 9.160156 23.472656 9.03125 23.59375 C 8.550781 24.03125 8.09375 24.496094 7.660156 24.984375 C 7.5 25.203125 7.375 25.441406 7.285156 25.699219 C 7.25 25.992188 7.304688 26.269531 7.445312 26.53125 C 7.589844 26.792969 7.792969 26.988281 8.058594 27.121094 C 8.300781 27.25 8.558594 27.300781 8.832031 27.265625 C 9.105469 27.230469 9.339844 27.117188 9.542969 26.929688 C 10.046875 26.472656 10.535156 25.996094 10.992188 25.492188 C 11.121094 25.363281 11.214844 25.210938 11.28125 25.042969 C 11.347656 24.875 11.378906 24.699219 11.371094 24.519531 C 11.367188 24.335938 11.324219 24.164062 11.246094 24 C 11.171875 23.835938 11.066406 23.691406 10.929688 23.570312 Z M 14.414062 27.789062 C 14.363281 27.046875 14.125 26.597656 13.582031 26.355469 C 13.328125 26.230469 13.0625 26.195312 12.785156 26.242188 C 12.503906 26.292969 12.269531 26.421875 12.074219 26.625 C 11.617188 27.046875 11.179688 27.492188 10.75 27.941406 C 10.617188 28.066406 10.511719 28.214844 10.4375 28.382812 C 10.363281 28.550781 10.324219 28.726562 10.324219 28.914062 C 10.320312 29.097656 10.351562 29.273438 10.421875 29.445312 C 10.492188 29.617188 10.589844 29.765625 10.722656 29.898438 C 10.851562 30.027344 11.003906 30.128906 11.175781 30.195312 C 11.347656 30.265625 11.523438 30.300781 11.707031 30.296875 C 11.894531 30.296875 12.070312 30.257812 12.238281 30.183594 C 12.410156 30.109375 12.558594 30.007812 12.6875 29.875 C 13.136719 29.46875 13.5625 29.039062 13.964844 28.585938 C 14.148438 28.335938 14.296875 28.070312 14.414062 27.789062 Z M 34.890625 8.121094 C 34.617188 7.726562 34.3125 7.355469 33.980469 7.007812 C 33.652344 6.652344 33.296875 6.324219 32.914062 6.023438 C 32.417969 5.640625 31.882812 5.320312 31.3125 5.0625 C 29.753906 4.332031 28.113281 3.941406 26.390625 3.894531 C 24.632812 3.9375 22.984375 4.382812 21.441406 5.226562 C 20.21875 5.953125 19.132812 6.84375 18.1875 7.90625 C 16.753906 9.347656 15.300781 10.769531 13.871094 12.214844 C 13.675781 12.394531 13.527344 12.609375 13.429688 12.855469 C 13.328125 13.105469 13.289062 13.359375 13.308594 13.628906 C 13.324219 13.894531 13.398438 14.144531 13.527344 14.375 C 13.660156 14.609375 13.832031 14.800781 14.050781 14.957031 C 14.214844 15.078125 14.398438 15.167969 14.597656 15.226562 C 14.796875 15.285156 15 15.308594 15.207031 15.292969 C 15.414062 15.28125 15.609375 15.230469 15.800781 15.144531 C 15.988281 15.0625 16.160156 14.949219 16.308594 14.804688 C 16.976562 14.175781 20.347656 10.890625 21.316406 9.917969 C 26.402344 14.953125 30.125 18.675781 31.023438 19.59375 C 31.644531 20.230469 32.21875 20.828125 32.21875 20.828125 C 32.621094 21.25 33.027344 21.679688 33.457031 22.125 C 33.746094 21.761719 34.066406 21.398438 34.378906 21.019531 C 34.695312 20.636719 34.988281 20.242188 35.257812 19.828125 C 36.191406 18.339844 36.742188 16.71875 36.902344 14.96875 C 37.023438 13.039062 36.625 11.226562 35.710938 9.523438 C 35.46875 9.039062 35.195312 8.570312 34.890625 8.121094 Z M 21.316406 12.078125 C 19.910156 13.445312 17.730469 15.578125 17.1875 16.058594 C 16.871094 16.320312 16.519531 16.515625 16.132812 16.648438 C 15.742188 16.78125 15.34375 16.835938 14.933594 16.820312 C 14.523438 16.804688 14.128906 16.714844 13.753906 16.550781 C 13.378906 16.390625 13.042969 16.164062 12.75 15.878906 C 12.453125 15.589844 12.222656 15.261719 12.054688 14.886719 C 11.882812 14.511719 11.789062 14.121094 11.765625 13.710938 C 11.742188 13.300781 11.796875 12.902344 11.921875 12.511719 C 12.050781 12.121094 12.246094 11.769531 12.507812 11.453125 C 12.9375 10.941406 13.421875 10.480469 13.894531 10.007812 C 15.070312 8.828125 16.253906 7.652344 17.460938 6.449219 C 16.800781 5.851562 16.074219 5.355469 15.28125 4.953125 C 14.484375 4.550781 13.652344 4.257812 12.785156 4.078125 C 11.914062 3.898438 11.03125 3.832031 10.144531 3.886719 C 9.257812 3.941406 8.390625 4.109375 7.546875 4.390625 C 3.316406 5.828125 0.863281 8.851562 0.363281 13.304688 C 0.191406 14.753906 0.335938 16.171875 0.796875 17.554688 C 1.257812 18.941406 1.992188 20.164062 2.996094 21.21875 C 3.683594 20.589844 4.316406 20 4.960938 19.425781 C 5.128906 19.265625 5.3125 19.128906 5.511719 19.015625 C 5.710938 18.898438 5.921875 18.808594 6.144531 18.746094 C 6.367188 18.679688 6.589844 18.644531 6.824219 18.632812 C 7.054688 18.625 7.28125 18.640625 7.507812 18.683594 C 7.734375 18.730469 7.953125 18.800781 8.160156 18.898438 C 8.371094 18.996094 8.566406 19.117188 8.746094 19.261719 C 8.925781 19.40625 9.085938 19.566406 9.230469 19.75 C 9.371094 19.933594 9.488281 20.128906 9.582031 20.339844 C 9.742188 20.761719 9.867188 21.195312 9.953125 21.640625 C 11.777344 21.800781 12.773438 22.820312 12.9375 24.660156 C 14.808594 24.832031 15.820312 25.84375 15.96875 27.675781 C 16.023438 27.695312 16.074219 27.707031 16.132812 27.714844 C 16.355469 27.722656 16.574219 27.753906 16.789062 27.808594 C 17.003906 27.867188 17.210938 27.945312 17.410156 28.050781 C 17.605469 28.152344 17.789062 28.277344 17.957031 28.421875 C 18.128906 28.566406 18.277344 28.730469 18.410156 28.910156 C 18.542969 29.089844 18.652344 29.28125 18.738281 29.488281 C 18.828125 29.691406 18.890625 29.90625 18.929688 30.125 C 18.96875 30.34375 18.984375 30.566406 18.972656 30.789062 C 18.960938 31.011719 18.925781 31.230469 18.863281 31.445312 C 18.835938 31.578125 18.863281 31.699219 18.945312 31.808594 C 19.484375 32.359375 20.023438 32.917969 20.605469 33.429688 C 20.84375 33.621094 21.121094 33.714844 21.429688 33.714844 C 21.734375 33.710938 22.007812 33.609375 22.246094 33.414062 C 22.414062 33.289062 22.542969 33.132812 22.636719 32.945312 C 22.730469 32.757812 22.777344 32.558594 22.78125 32.351562 C 22.785156 32.140625 22.746094 31.941406 22.65625 31.753906 C 22.570312 31.5625 22.445312 31.402344 22.285156 31.269531 C 20.921875 29.90625 19.554688 28.550781 18.191406 27.1875 C 18.132812 27.125 18.078125 27.058594 18.027344 26.988281 L 15.660156 24.621094 C 15.519531 24.472656 15.449219 24.296875 15.453125 24.097656 C 15.453125 23.894531 15.527344 23.71875 15.667969 23.574219 C 15.8125 23.433594 15.988281 23.359375 16.191406 23.359375 C 16.390625 23.355469 16.566406 23.425781 16.714844 23.566406 L 19.09375 25.949219 C 19.160156 25.992188 19.21875 26.042969 19.277344 26.097656 C 19.703125 26.503906 20.136719 26.910156 20.554688 27.324219 C 21.539062 28.296875 22.507812 29.28125 23.5 30.242188 C 23.632812 30.378906 23.789062 30.484375 23.96875 30.554688 C 24.148438 30.628906 24.332031 30.660156 24.527344 30.652344 C 24.71875 30.648438 24.902344 30.601562 25.074219 30.515625 C 25.246094 30.433594 25.394531 30.316406 25.519531 30.167969 C 25.632812 30.027344 25.71875 29.871094 25.773438 29.699219 C 25.824219 29.527344 25.84375 29.351562 25.832031 29.171875 C 25.816406 28.992188 25.769531 28.820312 25.6875 28.660156 C 25.609375 28.496094 25.5 28.355469 25.367188 28.238281 C 23.976562 26.839844 22.574219 25.449219 21.175781 24.054688 C 20.511719 23.390625 19.839844 22.734375 19.191406 22.050781 C 19.035156 21.910156 18.957031 21.734375 18.957031 21.523438 C 18.953125 21.3125 19.03125 21.136719 19.183594 20.992188 C 19.328125 20.84375 19.507812 20.769531 19.714844 20.765625 C 19.921875 20.761719 20.101562 20.832031 20.253906 20.972656 C 20.347656 21.050781 20.433594 21.132812 20.519531 21.222656 C 22.496094 23.191406 24.46875 25.167969 26.460938 27.125 C 26.675781 27.339844 26.933594 27.488281 27.226562 27.570312 C 27.515625 27.644531 27.800781 27.625 28.074219 27.503906 C 28.351562 27.382812 28.558594 27.191406 28.703125 26.929688 C 28.855469 26.664062 28.910156 26.378906 28.871094 26.074219 C 28.828125 25.769531 28.699219 25.507812 28.480469 25.292969 C 26.964844 23.761719 25.4375 22.242188 23.910156 20.722656 C 23.367188 20.175781 22.808594 19.636719 22.269531 19.082031 C 22.105469 18.9375 22.015625 18.757812 22.003906 18.542969 C 21.988281 18.324219 22.054688 18.136719 22.203125 17.972656 C 22.359375 17.816406 22.554688 17.738281 22.777344 17.738281 C 23.003906 17.742188 23.191406 17.824219 23.347656 17.984375 C 23.417969 18.042969 23.476562 18.113281 23.542969 18.179688 C 25.507812 20.140625 27.472656 22.097656 29.441406 24.058594 C 29.636719 24.28125 29.875 24.433594 30.160156 24.515625 C 30.441406 24.601562 30.726562 24.597656 31.007812 24.515625 L 31.046875 24.5 C 31.160156 24.457031 31.261719 24.398438 31.359375 24.324219 C 31.457031 24.253906 31.539062 24.171875 31.613281 24.078125 C 31.6875 23.984375 31.75 23.878906 31.796875 23.769531 C 31.847656 23.660156 31.878906 23.546875 31.898438 23.429688 C 31.917969 23.308594 31.917969 23.191406 31.90625 23.070312 C 31.894531 22.953125 31.867188 22.835938 31.824219 22.722656 C 31.78125 22.613281 31.722656 22.507812 31.652344 22.410156 C 31.585938 22.3125 31.503906 22.226562 31.410156 22.148438 C 29.183594 19.921875 24.160156 14.902344 21.316406 12.078125 Z M 21.316406 12.078125 " fill-opacity="1" fill-rule="nonzero"/></g></svg>