<svg xmlns="http://www.w3.org/2000/svg" xmlns:xlink="http://www.w3.org/1999/xlink" width="50" zoomAndPan="magnify" viewBox="0 0 37.5 37.499999" height="50" preserveAspectRatio="xMidYMid meet" version="1.0"><defs><clipPath id="de969d50fa"><path d="M 14 29 L 23 29 L 23 36.988281 L 14 36.988281 Z M 14 29 " clip-rule="nonzero"/></clipPath><clipPath id="41acabb536"><path d="M 29 14 L 36.988281 14 L 36.988281 23 L 29 23 Z M 29 14 " clip-rule="nonzero"/></clipPath></defs><path fill="#017236" d="M 22.265625 3.746094 C 22.265625 5.824219 20.582031 7.507812 18.503906 7.507812 C 16.425781 7.507812 14.742188 5.824219 14.742188 3.746094 C 14.742188 1.664062 16.425781 -0.0195312 18.503906 -0.0195312 C 20.582031 -0.0195312 22.265625 1.664062 22.265625 3.746094 " fill-opacity="1" fill-rule="nonzero"/><path fill="#017236" d="M 15.667969 20.179688 L 15.667969 13.234375 C 15.667969 11.558594 17.171875 10.171875 18.90625 10.398438 C 19.71875 10.515625 20.355469 10.917969 20.816406 11.558594 L 24.058594 11.558594 C 23.539062 9.878906 22.324219 8.546875 20.703125 7.855469 C 20.066406 8.199219 19.316406 8.375 18.503906 8.375 C 17.75 8.375 17 8.199219 16.363281 7.855469 C 14.222656 8.839844 12.714844 10.980469 12.714844 13.410156 L 12.714844 20.125 C 13.179688 20.238281 13.351562 20.179688 15.667969 20.179688 " fill-opacity="1" fill-rule="nonzero"/><path fill="#017236" d="M 24.289062 23.597656 L 24.289062 18.617188 C 24.289062 17.808594 23.652344 17.171875 22.84375 17.171875 C 22.035156 17.171875 21.398438 17.808594 21.398438 18.617188 L 21.398438 23.710938 C 21.398438 25.390625 19.894531 26.78125 18.15625 26.546875 C 17.34375 26.429688 16.707031 26.027344 16.246094 25.390625 L 13.003906 25.390625 C 13.523438 27.070312 14.800781 28.457031 16.363281 29.09375 C 16.996094 28.746094 17.75 28.574219 18.5625 28.574219 C 19.316406 28.574219 20.066406 28.746094 20.703125 29.09375 C 22.789062 28.167969 24.289062 26.027344 24.289062 23.597656 " fill-opacity="1" fill-rule="nonzero"/><g clip-path="url(#de969d50fa)"><path fill="#017236" d="M 22.265625 33.261719 C 22.265625 35.339844 20.582031 37.023438 18.503906 37.023438 C 16.425781 37.023438 14.742188 35.339844 14.742188 33.261719 C 14.742188 31.183594 16.425781 29.5 18.503906 29.5 C 20.582031 29.5 22.265625 31.183594 22.265625 33.261719 " fill-opacity="1" fill-rule="nonzero"/></g><path fill="#017236" d="M 29.09375 16.363281 C 28.167969 14.222656 26.027344 12.714844 23.597656 12.714844 L 16.882812 12.714844 C 16.765625 13.121094 16.824219 13.292969 16.824219 15.609375 L 23.769531 15.609375 C 25.449219 15.609375 26.835938 17.113281 26.605469 18.851562 C 26.492188 19.660156 26.085938 20.296875 25.449219 20.757812 L 25.449219 24 C 27.070312 23.539062 28.457031 22.324219 29.152344 20.644531 C 28.804688 20.007812 28.632812 19.257812 28.632812 18.445312 C 28.574219 17.75 28.746094 17 29.09375 16.363281 " fill-opacity="1" fill-rule="nonzero"/><g clip-path="url(#41acabb536)"><path fill="#017236" d="M 37.023438 18.503906 C 37.023438 20.582031 35.339844 22.265625 33.261719 22.265625 C 31.183594 22.265625 29.5 20.582031 29.5 18.503906 C 29.5 16.425781 31.183594 14.742188 33.261719 14.742188 C 35.339844 14.742188 37.023438 16.425781 37.023438 18.503906 " fill-opacity="1" fill-rule="nonzero"/></g><path fill="#017236" d="M 7.910156 20.644531 C 8.839844 22.789062 10.980469 24.230469 13.410156 24.230469 L 20.125 24.230469 C 20.238281 23.769531 20.179688 23.652344 20.179688 21.335938 L 13.234375 21.335938 C 11.558594 21.335938 10.171875 19.835938 10.398438 18.097656 C 10.515625 17.285156 10.917969 16.652344 11.558594 16.1875 L 11.558594 12.945312 C 9.9375 13.46875 8.546875 14.683594 7.855469 16.304688 C 8.199219 16.941406 8.375 17.691406 8.375 18.503906 C 8.429688 19.257812 8.257812 20.003906 7.910156 20.644531 " fill-opacity="1" fill-rule="nonzero"/><path fill="#017236" d="M 7.507812 18.503906 C 7.507812 20.582031 5.824219 22.265625 3.746094 22.265625 C 1.667969 22.265625 -0.0195312 20.582031 -0.0195312 18.503906 C -0.0195312 16.425781 1.667969 14.742188 3.746094 14.742188 C 5.824219 14.742188 7.507812 16.425781 7.507812 18.503906 " fill-opacity="1" fill-rule="nonzero"/></svg>