<svg xmlns="http://www.w3.org/2000/svg" xmlns:xlink="http://www.w3.org/1999/xlink" width="50" zoomAndPan="magnify" viewBox="0 0 37.5 37.499999" height="50" preserveAspectRatio="xMidYMid meet" version="1.0"><defs><clipPath id="d8cd54cad7"><path d="M 13.152344 15.539062 L 36.941406 15.539062 L 36.941406 34.761719 L 13.152344 34.761719 Z M 13.152344 15.539062 " clip-rule="nonzero"/></clipPath><clipPath id="84302ba9ae"><path d="M 0 2.195312 L 16 2.195312 L 16 23 L 0 23 Z M 0 2.195312 " clip-rule="nonzero"/></clipPath></defs><g clip-path="url(#d8cd54cad7)"><path fill="#0e6939" d="M 36.941406 16.820312 C 36.941406 16.820312 33.96875 18.808594 32.632812 24.765625 C 31.109375 31.558594 25.789062 35.195312 17.792969 34.773438 C 16.1875 34.691406 14.929688 34.496094 14.167969 34.34375 C 19.742188 23.582031 28.644531 19.964844 29.480469 19.640625 C 19.105469 22.59375 14.769531 29.207031 13.402344 31.835938 C 13.757812 26.074219 15.867188 11.546875 36.941406 16.820312 " fill-opacity="1" fill-rule="nonzero"/></g><g clip-path="url(#84302ba9ae)"><path fill="#0e6939" d="M 14.796875 21.101562 C 14.445312 18.585938 12.835938 11.988281 5.292969 6.625 C 5.875 7.125 12.035156 12.605469 13.457031 22.914062 C 12.796875 22.816406 11.722656 22.613281 10.398438 22.21875 C 3.8125 20.265625 0.550781 15.792969 1.273438 9.863281 C 1.902344 4.660156 0.0664062 2.199219 0.0664062 2.199219 C 18.625 3.984375 16.164062 16.339844 14.796875 21.101562 " fill-opacity="1" fill-rule="nonzero"/></g></svg>