<svg xmlns="http://www.w3.org/2000/svg" xmlns:xlink="http://www.w3.org/1999/xlink" width="50" zoomAndPan="magnify" viewBox="0 0 37.5 37.499999" height="50" preserveAspectRatio="xMidYMid meet" version="1.0"><defs><clipPath id="3685b05760"><path d="M 0.0898438 4.503906 L 32.503906 4.503906 L 32.503906 36.910156 L 0.0898438 36.910156 Z M 0.0898438 4.503906 " clip-rule="nonzero"/></clipPath><clipPath id="7166f14571"><path d="M 13.40625 0.0898438 L 36.910156 0.0898438 L 36.910156 23.601562 L 13.40625 23.601562 Z M 13.40625 0.0898438 " clip-rule="nonzero"/></clipPath></defs><g clip-path="url(#3685b05760)"><path fill="#0e6939" d="M 25.519531 29.960938 C 20.425781 35.050781 12.144531 35.054688 7.050781 29.972656 C 2 24.929688 1.941406 16.707031 6.925781 11.597656 C 10.996094 7.429688 17.167969 6.574219 22.105469 9.027344 C 22.300781 9.125 22.539062 9.085938 22.695312 8.929688 L 24.253906 7.375 C 24.492188 7.132812 24.4375 6.730469 24.140625 6.5625 C 21.765625 5.238281 19.074219 4.535156 16.277344 4.535156 C 11.953125 4.535156 7.886719 6.21875 4.832031 9.273438 C 1.773438 12.332031 0.0898438 16.398438 0.0898438 20.722656 C 0.0898438 25.027344 1.757812 29.074219 4.789062 32.128906 C 7.757812 35.117188 11.789062 36.839844 16 36.910156 C 20.515625 36.984375 24.765625 35.226562 27.90625 31.988281 C 30.835938 28.96875 32.472656 24.90625 32.46875 20.699219 C 32.464844 17.910156 31.757812 15.230469 30.4375 12.859375 C 30.269531 12.5625 29.867188 12.507812 29.625 12.75 L 28.070312 14.304688 C 27.914062 14.460938 27.875 14.699219 27.976562 14.898438 C 30.40625 19.789062 29.585938 25.894531 25.519531 29.960938 " fill-opacity="1" fill-rule="nonzero"/></g><path fill="#0e6939" d="M 9.394531 13.839844 C 5.632812 17.601562 5.601562 23.699219 9.292969 27.503906 C 13.042969 31.363281 19.261719 31.4375 23.101562 27.667969 C 25.78125 25.03125 26.609375 21.222656 25.582031 17.859375 C 25.46875 17.492188 25 17.375 24.726562 17.648438 L 22.972656 19.402344 C 22.859375 19.515625 22.804688 19.675781 22.828125 19.835938 C 23.089844 21.789062 22.480469 23.835938 21.003906 25.347656 C 18.453125 27.949219 14.238281 27.988281 11.640625 25.433594 C 9.027344 22.859375 9.015625 18.636719 11.605469 16.046875 C 13.117188 14.535156 15.191406 13.910156 17.164062 14.175781 C 17.324219 14.195312 17.484375 14.140625 17.597656 14.027344 L 19.351562 12.273438 C 19.625 12 19.511719 11.535156 19.140625 11.421875 C 15.808594 10.398438 12.027344 11.207031 9.394531 13.839844 " fill-opacity="1" fill-rule="nonzero"/><g clip-path="url(#7166f14571)"><path fill="#0e6939" d="M 33.621094 4.144531 C 33.203125 4.132812 32.867188 3.796875 32.855469 3.378906 L 32.761719 0.476562 C 32.75 0.128906 32.328125 -0.0390625 32.082031 0.207031 L 28.296875 3.992188 C 27.699219 4.589844 27.375 5.410156 27.402344 6.257812 C 27.417969 6.824219 27.203125 7.367188 26.804688 7.765625 L 17.195312 17.378906 C 16.875 17.695312 16.457031 17.882812 16.011719 17.925781 C 15.382812 17.984375 14.773438 18.253906 14.289062 18.734375 C 14.261719 18.761719 14.234375 18.789062 14.210938 18.820312 C 13.222656 19.890625 13.226562 21.5625 14.214844 22.628906 C 15.300781 23.808594 17.140625 23.835938 18.265625 22.710938 C 18.746094 22.230469 19.015625 21.621094 19.074219 20.992188 C 19.117188 20.546875 19.304688 20.125 19.625 19.808594 L 29.234375 10.195312 C 29.632812 9.796875 30.179688 9.582031 30.742188 9.601562 C 31.589844 9.628906 32.410156 9.304688 33.007812 8.703125 L 36.792969 4.917969 C 37.039062 4.671875 36.875 4.25 36.527344 4.238281 L 33.621094 4.144531 " fill-opacity="1" fill-rule="nonzero"/></g></svg>