<svg xmlns="http://www.w3.org/2000/svg" xmlns:xlink="http://www.w3.org/1999/xlink" width="50" zoomAndPan="magnify" viewBox="0 0 37.5 37.499999" height="50" preserveAspectRatio="xMidYMid meet" version="1.0"><defs><clipPath id="59f891eea0"><path d="M 14 30 L 35.304688 30 L 35.304688 35.304688 L 14 35.304688 Z M 14 30 " clip-rule="nonzero"/></clipPath><clipPath id="01ead9eed6"><path d="M 7 2 L 28 2 L 28 35.304688 L 7 35.304688 Z M 7 2 " clip-rule="nonzero"/></clipPath></defs><path fill="#0e6939" d="M 14.964844 10.25 L 16.734375 10.25 L 16.734375 16.144531 L 14.964844 16.144531 Z M 14.964844 10.25 " fill-opacity="1" fill-rule="nonzero"/><path fill="#0e6939" d="M 17.910156 10.25 L 19.089844 10.25 L 19.089844 16.144531 L 17.910156 16.144531 Z M 17.910156 10.25 " fill-opacity="1" fill-rule="nonzero"/><path fill="#0e6939" d="M 20.269531 10.25 L 22.039062 10.25 L 22.039062 16.144531 L 20.269531 16.144531 Z M 20.269531 10.25 " fill-opacity="1" fill-rule="nonzero"/><path fill="#0e6939" d="M 12.019531 17.320312 L 24.984375 17.320312 L 24.984375 18.5 L 12.019531 18.5 Z M 12.019531 17.320312 " fill-opacity="1" fill-rule="nonzero"/><path fill="#0e6939" d="M 12.605469 10.25 L 13.785156 10.25 L 13.785156 16.144531 L 12.605469 16.144531 Z M 12.605469 10.25 " fill-opacity="1" fill-rule="nonzero"/><path fill="#0e6939" d="M 23.214844 10.25 L 24.394531 10.25 L 24.394531 16.144531 L 23.214844 16.144531 Z M 23.214844 10.25 " fill-opacity="1" fill-rule="nonzero"/><path fill="#0e6939" d="M 2 8.480469 L 7.890625 8.480469 L 7.890625 5.09375 C 7.890625 3.433594 6.609375 2.046875 5.035156 2 C 5.003906 2 4.976562 2 4.945312 2 C 4.171875 2 3.449219 2.292969 2.894531 2.828125 C 2.316406 3.390625 2 4.140625 2 4.945312 Z M 2 8.480469 " fill-opacity="1" fill-rule="nonzero"/><g clip-path="url(#59f891eea0)"><path fill="#0e6939" d="M 35.003906 32.101562 C 35.011719 31.503906 34.839844 31.097656 34.707031 30.878906 L 15.957031 30.878906 C 16.113281 31.335938 16.171875 31.832031 16.132812 32.363281 C 16.058594 33.382812 15.601562 34.316406 14.902344 35.003906 L 31.941406 35.003906 C 33.605469 35.003906 34.980469 33.699219 35.003906 32.101562 Z M 35.003906 32.101562 " fill-opacity="1" fill-rule="nonzero"/></g><g clip-path="url(#01ead9eed6)"><path fill="#0e6939" d="M 15.667969 29.699219 L 27.929688 29.699219 L 27.929688 4.945312 C 27.929688 3.320312 26.609375 2 24.984375 2 L 7.769531 2 C 8.566406 2.78125 9.070312 3.882812 9.070312 5.09375 L 9.070312 32.058594 C 9.070312 32.925781 9.449219 33.742188 10.113281 34.304688 C 10.65625 34.761719 11.316406 35.003906 12.011719 35.003906 L 12.019531 35.003906 C 12.019531 35.003906 12.054688 35.003906 12.054688 35.003906 C 12.210938 35 12.367188 34.988281 12.527344 34.960938 C 13.839844 34.746094 14.859375 33.617188 14.957031 32.277344 C 14.988281 31.835938 14.925781 31.433594 14.773438 31.085938 C 14.640625 30.773438 14.667969 30.421875 14.851562 30.140625 C 15.03125 29.863281 15.335938 29.699219 15.667969 29.699219 Z M 25.574219 25.574219 L 11.429688 25.574219 C 11.101562 25.574219 10.839844 25.308594 10.839844 24.984375 C 10.839844 24.660156 11.101562 24.394531 11.429688 24.394531 L 25.574219 24.394531 C 25.898438 24.394531 26.164062 24.660156 26.164062 24.984375 C 26.164062 25.308594 25.898438 25.574219 25.574219 25.574219 Z M 25.574219 22.625 L 11.429688 22.625 C 11.101562 22.625 10.839844 22.363281 10.839844 22.039062 C 10.839844 21.710938 11.101562 21.449219 11.429688 21.449219 L 25.574219 21.449219 C 25.898438 21.449219 26.164062 21.710938 26.164062 22.039062 C 26.164062 22.363281 25.898438 22.625 25.574219 22.625 Z M 10.289062 9.492188 C 10.160156 9.035156 10.347656 8.5625 10.75 8.316406 L 17.964844 3.917969 C 18.296875 3.714844 18.707031 3.714844 19.035156 3.917969 L 26.253906 8.316406 C 26.65625 8.5625 26.839844 9.035156 26.710938 9.492188 C 26.585938 9.945312 26.183594 10.25 25.714844 10.25 L 25.574219 10.25 L 25.574219 16.308594 C 25.921875 16.511719 26.164062 16.886719 26.164062 17.324219 L 26.164062 18.796875 C 26.164062 19.285156 25.765625 19.679688 25.277344 19.679688 L 11.722656 19.679688 C 11.234375 19.679688 10.839844 19.285156 10.839844 18.796875 L 10.839844 17.324219 C 10.839844 16.886719 11.078125 16.511719 11.429688 16.308594 L 11.429688 10.25 L 11.285156 10.25 C 10.816406 10.25 10.414062 9.945312 10.289062 9.492188 Z M 11.429688 28.519531 C 11.101562 28.519531 10.839844 28.257812 10.839844 27.929688 C 10.839844 27.605469 11.101562 27.339844 11.429688 27.339844 L 20.859375 27.339844 C 21.183594 27.339844 21.449219 27.605469 21.449219 27.929688 C 21.449219 28.257812 21.183594 28.519531 20.859375 28.519531 Z M 11.429688 28.519531 " fill-opacity="1" fill-rule="nonzero"/></g><path fill="#0e6939" d="M 18.5 4.972656 L 11.777344 9.070312 L 25.226562 9.070312 Z M 18.5 4.972656 " fill-opacity="1" fill-rule="nonzero"/></svg>