<svg xmlns="http://www.w3.org/2000/svg" xmlns:xlink="http://www.w3.org/1999/xlink" width="50" zoomAndPan="magnify" viewBox="0 0 37.5 37.499999" height="50" preserveAspectRatio="xMidYMid meet" version="1.0"><defs><clipPath id="d34db296f8"><path d="M 4.308594 11 L 18 11 L 18 17 L 4.308594 17 Z M 4.308594 11 " clip-rule="nonzero"/></clipPath><clipPath id="ef006dcd89"><path d="M 4.308594 2.882812 L 18 2.882812 L 18 8 L 4.308594 8 Z M 4.308594 2.882812 " clip-rule="nonzero"/></clipPath><clipPath id="be5650dab6"><path d="M 4.308594 7 L 18 7 L 18 13 L 4.308594 13 Z M 4.308594 7 " clip-rule="nonzero"/></clipPath><clipPath id="3082fd9361"><path d="M 11 28 L 26 28 L 26 33.96875 L 11 33.96875 Z M 11 28 " clip-rule="nonzero"/></clipPath><clipPath id="7b005f0ec8"><path d="M 4.308594 16 L 18 16 L 18 22 L 4.308594 22 Z M 4.308594 16 " clip-rule="nonzero"/></clipPath><clipPath id="446fc05db9"><path d="M 19 16 L 32.433594 16 L 32.433594 22 L 19 22 Z M 19 16 " clip-rule="nonzero"/></clipPath><clipPath id="d3d9639371"><path d="M 19 11 L 32.433594 11 L 32.433594 18 L 19 18 Z M 19 11 " clip-rule="nonzero"/></clipPath><clipPath id="b6eb99f8d6"><path d="M 19 7 L 32.433594 7 L 32.433594 13 L 19 13 Z M 19 7 " clip-rule="nonzero"/></clipPath><clipPath id="9ed0b59ad0"><path d="M 4.308594 21 L 11 21 L 11 27 L 4.308594 27 Z M 4.308594 21 " clip-rule="nonzero"/></clipPath><clipPath id="b9d550a76f"><path d="M 26 21 L 32.433594 21 L 32.433594 27 L 26 27 Z M 26 21 " clip-rule="nonzero"/></clipPath></defs><g clip-path="url(#d34db296f8)"><path fill="#0e6939" d="M 11.128906 16.960938 C 15.03125 16.960938 17.949219 15.703125 17.949219 14.582031 L 17.949219 11.761719 C 16.476562 12.839844 13.746094 13.410156 11.128906 13.410156 C 8.507812 13.410156 5.777344 12.839844 4.308594 11.761719 L 4.308594 14.582031 C 4.308594 15.703125 7.226562 16.960938 11.128906 16.960938 " fill-opacity="1" fill-rule="nonzero"/></g><g clip-path="url(#ef006dcd89)"><path fill="#0e6939" d="M 11.128906 7.65625 C 15.03125 7.65625 17.949219 6.402344 17.949219 5.277344 C 17.949219 4.15625 15.03125 2.898438 11.128906 2.898438 C 7.226562 2.898438 4.308594 4.15625 4.308594 5.277344 C 4.308594 6.402344 7.226562 7.65625 11.128906 7.65625 " fill-opacity="1" fill-rule="nonzero"/></g><g clip-path="url(#be5650dab6)"><path fill="#0e6939" d="M 11.128906 12.308594 C 15.03125 12.308594 17.949219 11.054688 17.949219 9.929688 L 17.949219 7.113281 C 16.476562 8.191406 13.746094 8.757812 11.128906 8.757812 C 8.507812 8.757812 5.777344 8.191406 4.308594 7.113281 L 4.308594 9.929688 C 4.308594 11.054688 7.226562 12.308594 11.128906 12.308594 " fill-opacity="1" fill-rule="nonzero"/></g><g clip-path="url(#3082fd9361)"><path fill="#0e6939" d="M 13.699219 29.863281 C 13.695312 29.863281 13.695312 29.863281 13.695312 29.863281 C 12.902344 29.609375 12.207031 29.285156 11.679688 28.898438 L 11.679688 31.71875 C 11.679688 32.234375 12.304688 32.78125 13.359375 33.21875 L 13.359375 31.21875 C 13.359375 30.914062 13.605469 30.667969 13.910156 30.667969 C 14.214844 30.667969 14.460938 30.914062 14.460938 31.21875 L 14.460938 33.59375 C 14.785156 33.679688 15.132812 33.761719 15.503906 33.828125 L 15.503906 31.675781 C 15.503906 31.375 15.75 31.128906 16.050781 31.128906 C 16.355469 31.128906 16.601562 31.375 16.601562 31.675781 L 16.601562 33.992188 C 17.199219 34.058594 17.832031 34.09375 18.5 34.09375 C 22.402344 34.09375 25.320312 32.839844 25.320312 31.71875 L 25.320312 28.898438 C 23.847656 29.976562 21.117188 30.542969 18.5 30.542969 C 16.824219 30.542969 15.105469 30.3125 13.699219 29.863281 " fill-opacity="1" fill-rule="nonzero"/></g><path fill="#0e6939" d="M 11.679688 22.414062 C 11.679688 23.535156 14.59375 24.792969 18.5 24.792969 C 22.402344 24.792969 25.320312 23.535156 25.320312 22.414062 C 25.320312 21.289062 22.402344 20.035156 18.5 20.035156 C 14.59375 20.035156 11.679688 21.289062 11.679688 22.414062 " fill-opacity="1" fill-rule="nonzero"/><g clip-path="url(#7b005f0ec8)"><path fill="#0e6939" d="M 17.949219 16.414062 C 16.476562 17.492188 13.746094 18.0625 11.128906 18.0625 C 8.507812 18.0625 5.777344 17.492188 4.308594 16.414062 L 4.308594 19.21875 C 4.308594 20.308594 7.050781 21.519531 10.773438 21.589844 C 11.582031 19.953125 14.777344 19.039062 17.949219 18.945312 L 17.949219 16.414062 " fill-opacity="1" fill-rule="nonzero"/></g><g clip-path="url(#446fc05db9)"><path fill="#0e6939" d="M 19.050781 16.640625 L 19.050781 18.945312 C 22.371094 19.046875 25.707031 20.046875 26.3125 21.832031 C 29.988281 21.738281 32.691406 20.539062 32.691406 19.460938 L 32.691406 16.640625 C 31.21875 17.71875 28.488281 18.289062 25.867188 18.289062 C 23.25 18.289062 20.519531 17.71875 19.050781 16.640625 " fill-opacity="1" fill-rule="nonzero"/></g><g clip-path="url(#d3d9639371)"><path fill="#0e6939" d="M 19.050781 11.992188 L 19.050781 14.808594 C 19.050781 15.933594 21.964844 17.1875 25.867188 17.1875 C 29.773438 17.1875 32.691406 15.933594 32.691406 14.808594 L 32.691406 11.992188 C 31.21875 13.070312 28.488281 13.636719 25.867188 13.636719 C 23.25 13.636719 20.519531 13.070312 19.050781 11.992188 " fill-opacity="1" fill-rule="nonzero"/></g><g clip-path="url(#b6eb99f8d6)"><path fill="#0e6939" d="M 25.867188 12.535156 C 29.773438 12.535156 32.691406 11.28125 32.691406 10.15625 C 32.691406 9.035156 29.773438 7.777344 25.867188 7.777344 C 21.964844 7.777344 19.050781 9.035156 19.050781 10.15625 C 19.050781 11.28125 21.964844 12.535156 25.867188 12.535156 " fill-opacity="1" fill-rule="nonzero"/></g><g clip-path="url(#9ed0b59ad0)"><path fill="#0e6939" d="M 4.308594 23.871094 C 4.308594 24.941406 6.96875 26.132812 10.609375 26.238281 L 10.609375 22.683594 C 8.152344 22.613281 5.683594 22.058594 4.308594 21.050781 L 4.308594 23.871094 " fill-opacity="1" fill-rule="nonzero"/></g><path fill="#0e6939" d="M 11.679688 24.230469 L 11.679688 27.066406 C 11.679688 27.582031 12.304688 28.128906 13.359375 28.566406 L 13.359375 26.582031 C 13.359375 26.28125 13.605469 26.035156 13.910156 26.035156 C 14.214844 26.035156 14.460938 26.28125 14.460938 26.582031 L 14.460938 28.941406 C 14.785156 29.03125 15.132812 29.109375 15.503906 29.175781 L 15.503906 27.042969 C 15.503906 26.738281 15.75 26.492188 16.050781 26.492188 C 16.355469 26.492188 16.601562 26.738281 16.601562 27.042969 L 16.601562 29.339844 C 17.199219 29.40625 17.832031 29.445312 18.5 29.445312 C 22.402344 29.445312 25.320312 28.1875 25.320312 27.066406 L 25.335938 27.066406 L 25.335938 24.226562 C 23.871094 25.316406 21.132812 25.894531 18.5 25.894531 C 15.871094 25.894531 13.144531 25.316406 11.679688 24.230469 " fill-opacity="1" fill-rule="nonzero"/><g clip-path="url(#b9d550a76f)"><path fill="#0e6939" d="M 26.402344 26.480469 C 30.035156 26.371094 32.691406 25.183594 32.691406 24.113281 L 32.691406 21.292969 C 31.316406 22.296875 28.851562 22.851562 26.402344 22.925781 L 26.402344 26.480469 " fill-opacity="1" fill-rule="nonzero"/></g></svg>