<svg xmlns="http://www.w3.org/2000/svg" xmlns:xlink="http://www.w3.org/1999/xlink" width="50" zoomAndPan="magnify" viewBox="0 0 37.5 37.499999" height="50" preserveAspectRatio="xMidYMid meet" version="1.0"><defs><clipPath id="b601bae931"><path d="M 0.015625 0.382812 L 33 0.382812 L 33 32 L 0.015625 32 Z M 0.015625 0.382812 " clip-rule="nonzero"/></clipPath><clipPath id="ddefa411ba"><path d="M 5 33 L 8 33 L 8 36.648438 L 5 36.648438 Z M 5 33 " clip-rule="nonzero"/></clipPath><clipPath id="75fe463720"><path d="M 11 33 L 15 33 L 15 36.648438 L 11 36.648438 Z M 11 33 " clip-rule="nonzero"/></clipPath><clipPath id="7b2cf31962"><path d="M 20 20 L 37 20 L 37 36.648438 L 20 36.648438 Z M 20 20 " clip-rule="nonzero"/></clipPath></defs><g clip-path="url(#b601bae931)"><path fill="#0e6939" d="M 30.574219 0.382812 L 2.15625 0.382812 C 0.980469 0.382812 0.0273438 1.332031 0.0273438 2.511719 L 0.0273438 29.507812 C 0.0273438 30.6875 0.976562 31.640625 2.15625 31.640625 L 19.007812 31.640625 C 18.675781 30.632812 18.496094 29.558594 18.496094 28.441406 C 18.496094 22.761719 23.113281 18.140625 28.796875 18.140625 C 30.183594 18.140625 31.496094 18.355469 32.703125 18.851562 L 32.703125 2.511719 C 32.703125 1.332031 31.753906 0.382812 30.574219 0.382812 Z M 11.746094 27.375 L 3.933594 27.375 C 3.34375 27.375 2.867188 26.902344 2.867188 26.3125 C 2.867188 25.722656 3.34375 25.246094 3.933594 25.246094 L 11.746094 25.246094 C 12.335938 25.246094 12.8125 25.722656 12.8125 26.3125 C 12.8125 26.902344 12.335938 27.375 11.746094 27.375 Z M 16.011719 23.113281 L 3.933594 23.113281 C 3.34375 23.113281 2.867188 22.636719 2.867188 22.050781 C 2.867188 21.460938 3.34375 20.984375 3.933594 20.984375 L 16.011719 20.984375 C 16.601562 20.984375 17.078125 21.460938 17.078125 22.050781 C 17.078125 22.636719 16.601562 23.113281 16.011719 23.113281 Z M 17.074219 18.851562 L 2.867188 18.851562 L 2.867188 3.222656 L 17.078125 3.222656 L 17.078125 18.851562 Z M 28.796875 13.878906 L 20.273438 13.878906 C 19.683594 13.878906 19.207031 13.402344 19.207031 12.8125 C 19.207031 12.222656 19.683594 11.75 20.273438 11.75 L 28.796875 11.75 C 29.386719 11.75 29.863281 12.222656 29.863281 12.8125 C 29.863281 13.402344 29.386719 13.878906 28.796875 13.878906 Z M 28.796875 9.617188 L 20.273438 9.617188 C 19.683594 9.617188 19.207031 9.140625 19.207031 8.550781 C 19.207031 7.960938 19.683594 7.484375 20.273438 7.484375 L 28.796875 7.484375 C 29.386719 7.484375 29.863281 7.960938 29.863281 8.550781 C 29.863281 9.140625 29.386719 9.617188 28.796875 9.617188 Z M 28.796875 5.355469 L 20.273438 5.355469 C 19.683594 5.355469 19.207031 4.878906 19.207031 4.289062 C 19.207031 3.699219 19.683594 3.222656 20.273438 3.222656 L 28.796875 3.222656 C 29.386719 3.222656 29.863281 3.699219 29.863281 4.289062 C 29.863281 4.878906 29.386719 5.355469 28.796875 5.355469 Z M 28.796875 5.355469 " fill-opacity="1" fill-rule="nonzero"/></g><g clip-path="url(#ddefa411ba)"><path fill="#0e6939" d="M 7.839844 35.191406 C 7.839844 35.378906 7.804688 35.5625 7.734375 35.734375 C 7.660156 35.910156 7.558594 36.0625 7.425781 36.195312 C 7.292969 36.328125 7.136719 36.433594 6.964844 36.503906 C 6.789062 36.574219 6.609375 36.613281 6.421875 36.613281 C 6.230469 36.613281 6.050781 36.574219 5.875 36.503906 C 5.703125 36.433594 5.550781 36.328125 5.414062 36.195312 C 5.28125 36.0625 5.179688 35.910156 5.109375 35.734375 C 5.035156 35.5625 5 35.378906 5 35.191406 C 5 35.003906 5.035156 34.820312 5.109375 34.648438 C 5.179688 34.472656 5.28125 34.320312 5.414062 34.1875 C 5.550781 34.054688 5.703125 33.949219 5.875 33.878906 C 6.050781 33.804688 6.230469 33.769531 6.421875 33.769531 C 6.609375 33.769531 6.789062 33.804688 6.964844 33.878906 C 7.136719 33.949219 7.292969 34.054688 7.425781 34.1875 C 7.558594 34.320312 7.660156 34.472656 7.734375 34.648438 C 7.804688 34.820312 7.839844 35.003906 7.839844 35.191406 Z M 7.839844 35.191406 " fill-opacity="1" fill-rule="nonzero"/></g><g clip-path="url(#75fe463720)"><path fill="#0e6939" d="M 14.234375 35.191406 C 14.234375 35.378906 14.199219 35.5625 14.125 35.734375 C 14.054688 35.910156 13.953125 36.0625 13.820312 36.195312 C 13.683594 36.328125 13.53125 36.433594 13.359375 36.503906 C 13.183594 36.574219 13.003906 36.613281 12.8125 36.613281 C 12.625 36.613281 12.445312 36.574219 12.269531 36.503906 C 12.097656 36.433594 11.941406 36.328125 11.808594 36.195312 C 11.675781 36.0625 11.574219 35.910156 11.5 35.734375 C 11.429688 35.5625 11.394531 35.378906 11.394531 35.191406 C 11.394531 35.003906 11.429688 34.820312 11.5 34.648438 C 11.574219 34.472656 11.675781 34.320312 11.808594 34.1875 C 11.941406 34.054688 12.097656 33.949219 12.269531 33.878906 C 12.445312 33.804688 12.625 33.769531 12.8125 33.769531 C 13.003906 33.769531 13.183594 33.804688 13.359375 33.878906 C 13.53125 33.949219 13.683594 34.054688 13.820312 34.1875 C 13.953125 34.320312 14.054688 34.472656 14.125 34.648438 C 14.199219 34.820312 14.234375 35.003906 14.234375 35.191406 Z M 14.234375 35.191406 " fill-opacity="1" fill-rule="nonzero"/></g><path fill="#0e6939" d="M 12.8125 8.195312 C 12.8125 8.574219 12.742188 8.933594 12.597656 9.285156 C 12.453125 9.632812 12.25 9.9375 11.980469 10.207031 C 11.714844 10.472656 11.40625 10.675781 11.058594 10.820312 C 10.710938 10.964844 10.347656 11.039062 9.972656 11.039062 C 9.597656 11.039062 9.234375 10.964844 8.886719 10.820312 C 8.535156 10.675781 8.230469 10.472656 7.964844 10.207031 C 7.695312 9.9375 7.492188 9.632812 7.347656 9.285156 C 7.203125 8.933594 7.132812 8.574219 7.132812 8.195312 C 7.132812 7.820312 7.203125 7.457031 7.347656 7.109375 C 7.492188 6.761719 7.695312 6.453125 7.964844 6.1875 C 8.230469 5.921875 8.535156 5.714844 8.886719 5.570312 C 9.234375 5.425781 9.597656 5.355469 9.972656 5.355469 C 10.347656 5.355469 10.710938 5.425781 11.058594 5.570312 C 11.40625 5.714844 11.714844 5.921875 11.980469 6.1875 C 12.25 6.453125 12.453125 6.761719 12.597656 7.109375 C 12.742188 7.457031 12.8125 7.820312 12.8125 8.195312 Z M 12.8125 8.195312 " fill-opacity="1" fill-rule="nonzero"/><path fill="#0e6939" d="M 14.945312 16.71875 L 5 16.71875 C 5 14.589844 7.132812 12.457031 9.972656 12.457031 C 12.8125 12.457031 14.945312 14.589844 14.945312 16.71875 Z M 14.945312 16.71875 " fill-opacity="1" fill-rule="nonzero"/><g clip-path="url(#7b2cf31962)"><path fill="#0e6939" d="M 28.796875 20.273438 C 24.285156 20.273438 20.628906 23.929688 20.628906 28.441406 C 20.628906 32.957031 24.285156 36.613281 28.796875 36.613281 C 33.3125 36.613281 36.96875 32.957031 36.96875 28.441406 C 36.96875 23.929688 33.3125 20.273438 28.796875 20.273438 Z M 33.707031 27.667969 L 28.734375 32.640625 C 28.476562 32.90625 28.121094 33.058594 27.730469 33.058594 C 27.339844 33.058594 26.984375 32.902344 26.730469 32.640625 L 23.886719 29.800781 C 23.625 29.542969 23.46875 29.1875 23.46875 28.796875 C 23.46875 28.015625 24.109375 27.378906 24.890625 27.378906 C 25.28125 27.378906 25.636719 27.535156 25.890625 27.796875 C 26.53125 28.429688 27.730469 29.628906 27.730469 29.628906 C 27.730469 29.628906 30.707031 26.652344 31.703125 25.664062 C 31.957031 25.402344 32.3125 25.246094 32.703125 25.246094 C 33.484375 25.246094 34.125 25.886719 34.125 26.667969 C 34.125 27.058594 33.96875 27.414062 33.707031 27.667969 Z M 33.707031 27.667969 " fill-opacity="1" fill-rule="nonzero"/></g></svg>