<svg xmlns="http://www.w3.org/2000/svg" xmlns:xlink="http://www.w3.org/1999/xlink" width="50" zoomAndPan="magnify" viewBox="0 0 37.5 37.499999" height="50" preserveAspectRatio="xMidYMid meet" version="1.0"><defs><clipPath id="46bdf0dc7b"><path d="M 0 7.910156 L 37 7.910156 L 37 29 L 0 29 Z M 0 7.910156 " clip-rule="nonzero"/></clipPath></defs><g clip-path="url(#46bdf0dc7b)"><path fill="#0e6939" d="M 34.101562 15.828125 L 29.175781 9.773438 C 28.703125 9.191406 28.128906 8.738281 27.449219 8.414062 C 26.769531 8.09375 26.054688 7.933594 25.304688 7.933594 C 22.410156 7.933594 20.191406 10.378906 20.34375 13.195312 C 19.699219 12.792969 18.996094 12.59375 18.238281 12.59375 C 17.671875 12.589844 17.132812 12.703125 16.621094 12.933594 C 16.621094 10.226562 14.441406 7.933594 11.65625 7.933594 C 10.90625 7.933594 10.191406 8.09375 9.511719 8.414062 C 8.835938 8.738281 8.257812 9.191406 7.785156 9.773438 L 2.898438 15.828125 C 2.484375 16.238281 2.121094 16.6875 1.8125 17.179688 C 1.503906 17.671875 1.25 18.191406 1.058594 18.738281 C 0.867188 19.289062 0.742188 19.851562 0.679688 20.429688 C 0.617188 21.007812 0.621094 21.585938 0.691406 22.160156 C 0.761719 22.738281 0.894531 23.300781 1.089844 23.847656 C 1.289062 24.394531 1.546875 24.910156 1.863281 25.398438 C 2.179688 25.886719 2.546875 26.332031 2.964844 26.734375 C 3.382812 27.136719 3.839844 27.488281 4.339844 27.789062 C 4.839844 28.085938 5.363281 28.324219 5.917969 28.503906 C 6.46875 28.683594 7.035156 28.796875 7.617188 28.84375 C 8.195312 28.894531 8.773438 28.878906 9.347656 28.792969 C 9.921875 28.710938 10.480469 28.566406 11.023438 28.355469 C 11.5625 28.144531 12.074219 27.875 12.554688 27.546875 C 13.035156 27.21875 13.472656 26.84375 13.867188 26.414062 C 14.261719 25.988281 14.601562 25.523438 14.886719 25.015625 C 15.175781 24.511719 15.402344 23.980469 15.566406 23.421875 C 16.335938 24.121094 17.238281 24.472656 18.273438 24.476562 C 18.871094 24.476562 19.441406 24.347656 19.980469 24.089844 C 20.519531 23.832031 20.980469 23.472656 21.359375 23.007812 C 22.148438 26.351562 25.191406 28.835938 28.761719 28.835938 C 29.515625 28.84375 30.257812 28.738281 30.980469 28.523438 C 31.707031 28.304688 32.382812 27.988281 33.015625 27.570312 C 33.644531 27.152344 34.199219 26.648438 34.679688 26.066406 C 35.15625 25.480469 35.542969 24.839844 35.828125 24.140625 C 36.117188 23.4375 36.292969 22.710938 36.363281 21.960938 C 36.433594 21.207031 36.390625 20.460938 36.238281 19.71875 C 36.085938 18.980469 35.824219 18.277344 35.460938 17.613281 C 35.097656 16.949219 34.644531 16.355469 34.101562 15.828125 Z M 8.277344 26.917969 C 7.902344 26.917969 7.53125 26.882812 7.164062 26.808594 C 6.792969 26.738281 6.4375 26.628906 6.089844 26.484375 C 5.742188 26.339844 5.414062 26.164062 5.101562 25.957031 C 4.789062 25.746094 4.5 25.511719 4.238281 25.246094 C 3.972656 24.980469 3.734375 24.691406 3.527344 24.378906 C 3.316406 24.066406 3.140625 23.738281 2.996094 23.390625 C 2.855469 23.046875 2.746094 22.6875 2.671875 22.320312 C 2.597656 21.953125 2.5625 21.582031 2.5625 21.203125 C 2.5625 20.828125 2.597656 20.457031 2.671875 20.089844 C 2.746094 19.722656 2.855469 19.363281 2.996094 19.019531 C 3.140625 18.671875 3.316406 18.34375 3.527344 18.03125 C 3.734375 17.71875 3.972656 17.429688 4.238281 17.164062 C 4.5 16.898438 4.789062 16.660156 5.101562 16.453125 C 5.414062 16.246094 5.742188 16.070312 6.089844 15.925781 C 6.4375 15.78125 6.792969 15.671875 7.164062 15.601562 C 7.53125 15.527344 7.902344 15.492188 8.277344 15.492188 C 8.652344 15.492188 9.023438 15.527344 9.390625 15.601562 C 9.761719 15.671875 10.117188 15.78125 10.464844 15.925781 C 10.8125 16.070312 11.140625 16.246094 11.453125 16.453125 C 11.765625 16.660156 12.050781 16.898438 12.316406 17.164062 C 12.582031 17.429688 12.820312 17.71875 13.027344 18.03125 C 13.238281 18.34375 13.414062 18.671875 13.558594 19.019531 C 13.699219 19.363281 13.808594 19.722656 13.882812 20.089844 C 13.957031 20.457031 13.992188 20.828125 13.992188 21.203125 C 13.988281 24.367188 11.394531 26.917969 8.277344 26.917969 Z M 18.277344 21.96875 C 18.078125 21.96875 17.882812 21.929688 17.699219 21.851562 C 17.511719 21.773438 17.347656 21.664062 17.207031 21.523438 C 17.066406 21.382812 16.957031 21.21875 16.878906 21.03125 C 16.800781 20.847656 16.765625 20.652344 16.765625 20.453125 C 16.765625 20.253906 16.800781 20.058594 16.878906 19.875 C 16.957031 19.6875 17.066406 19.523438 17.207031 19.382812 C 17.347656 19.242188 17.511719 19.132812 17.699219 19.054688 C 17.882812 18.976562 18.078125 18.9375 18.277344 18.9375 C 18.480469 18.9375 18.671875 18.976562 18.855469 19.054688 C 19.042969 19.132812 19.207031 19.242188 19.347656 19.382812 C 19.492188 19.523438 19.601562 19.6875 19.675781 19.875 C 19.753906 20.058594 19.792969 20.253906 19.792969 20.453125 C 19.761719 21.292969 19.085938 21.96875 18.273438 21.96875 Z M 28.730469 26.917969 C 28.355469 26.917969 27.984375 26.882812 27.613281 26.808594 C 27.246094 26.738281 26.890625 26.628906 26.542969 26.484375 C 26.195312 26.339844 25.867188 26.164062 25.554688 25.957031 C 25.242188 25.746094 24.953125 25.511719 24.6875 25.246094 C 24.421875 24.980469 24.1875 24.691406 23.976562 24.378906 C 23.769531 24.066406 23.59375 23.738281 23.449219 23.390625 C 23.304688 23.046875 23.199219 22.6875 23.125 22.320312 C 23.050781 21.953125 23.015625 21.582031 23.015625 21.203125 C 23.015625 20.828125 23.050781 20.457031 23.125 20.089844 C 23.199219 19.722656 23.304688 19.363281 23.449219 19.019531 C 23.59375 18.671875 23.769531 18.34375 23.976562 18.03125 C 24.1875 17.71875 24.421875 17.429688 24.6875 17.164062 C 24.953125 16.898438 25.242188 16.660156 25.554688 16.453125 C 25.867188 16.246094 26.195312 16.070312 26.542969 15.925781 C 26.890625 15.78125 27.246094 15.671875 27.613281 15.601562 C 27.984375 15.527344 28.355469 15.492188 28.730469 15.492188 C 29.105469 15.492188 29.476562 15.527344 29.84375 15.601562 C 30.210938 15.671875 30.570312 15.78125 30.917969 15.925781 C 31.261719 16.070312 31.59375 16.246094 31.902344 16.453125 C 32.214844 16.660156 32.503906 16.898438 32.769531 17.164062 C 33.035156 17.429688 33.273438 17.71875 33.480469 18.03125 C 33.6875 18.34375 33.867188 18.671875 34.007812 19.019531 C 34.152344 19.363281 34.261719 19.722656 34.335938 20.089844 C 34.40625 20.457031 34.445312 20.828125 34.445312 21.203125 C 34.445312 21.582031 34.40625 21.953125 34.335938 22.320312 C 34.261719 22.6875 34.152344 23.046875 34.007812 23.394531 C 33.867188 23.738281 33.691406 24.070312 33.480469 24.382812 C 33.273438 24.695312 33.035156 24.980469 32.769531 25.246094 C 32.503906 25.511719 32.214844 25.75 31.902344 25.957031 C 31.589844 26.167969 31.261719 26.34375 30.914062 26.484375 C 30.566406 26.628906 30.210938 26.738281 29.839844 26.8125 C 29.472656 26.882812 29.101562 26.921875 28.726562 26.917969 Z M 28.730469 26.917969 " fill-opacity="1" fill-rule="nonzero"/></g></svg>