<svg xmlns="http://www.w3.org/2000/svg" xmlns:xlink="http://www.w3.org/1999/xlink" width="50" zoomAndPan="magnify" viewBox="0 0 37.5 37.499999" height="50" preserveAspectRatio="xMidYMid meet" version="1.0"><defs><clipPath id="e315851205"><path d="M 0 0 L 37.007812 0 L 37.007812 37.007812 L 0 37.007812 Z M 0 0 " clip-rule="nonzero"/></clipPath><clipPath id="2931b191d7"><path d="M 3.257812 3.257812 L 9 3.257812 L 9 10 L 3.257812 10 Z M 3.257812 3.257812 " clip-rule="nonzero"/></clipPath><clipPath id="76eebda543"><path d="M 15 29 L 33.601562 29 L 33.601562 33.601562 L 15 33.601562 Z M 15 29 " clip-rule="nonzero"/></clipPath><clipPath id="fb13541426"><path d="M 8 3.257812 L 28 3.257812 L 28 33.601562 L 8 33.601562 Z M 8 3.257812 " clip-rule="nonzero"/></clipPath></defs><g clip-path="url(#e315851205)"><path fill="#ffffff" d="M 0 0 L 37.007812 0 L 37.007812 37.007812 L 0 37.007812 Z M 0 0 " fill-opacity="1" fill-rule="nonzero"/><path fill="#ffffff" d="M 0 0 L 37.007812 0 L 37.007812 37.007812 L 0 37.007812 Z M 0 0 " fill-opacity="1" fill-rule="nonzero"/></g><path fill="#0e6939" d="M 15.234375 10.878906 L 16.867188 10.878906 L 16.867188 16.320312 L 15.234375 16.320312 Z M 15.234375 10.878906 " fill-opacity="1" fill-rule="nonzero"/><path fill="#0e6939" d="M 17.953125 10.878906 L 19.042969 10.878906 L 19.042969 16.320312 L 17.953125 16.320312 Z M 17.953125 10.878906 " fill-opacity="1" fill-rule="nonzero"/><path fill="#0e6939" d="M 20.132812 10.878906 L 21.765625 10.878906 L 21.765625 16.320312 L 20.132812 16.320312 Z M 20.132812 10.878906 " fill-opacity="1" fill-rule="nonzero"/><path fill="#0e6939" d="M 12.511719 17.410156 L 24.488281 17.410156 L 24.488281 18.5 L 12.511719 18.5 Z M 12.511719 17.410156 " fill-opacity="1" fill-rule="nonzero"/><path fill="#0e6939" d="M 13.054688 10.878906 L 14.144531 10.878906 L 14.144531 16.320312 L 13.054688 16.320312 Z M 13.054688 10.878906 " fill-opacity="1" fill-rule="nonzero"/><path fill="#0e6939" d="M 22.855469 10.878906 L 23.941406 10.878906 L 23.941406 16.320312 L 22.855469 16.320312 Z M 22.855469 10.878906 " fill-opacity="1" fill-rule="nonzero"/><g clip-path="url(#2931b191d7)"><path fill="#0e6939" d="M 3.257812 9.246094 L 8.699219 9.246094 L 8.699219 6.117188 C 8.699219 4.582031 7.515625 3.300781 6.0625 3.257812 C 6.035156 3.257812 6.003906 3.257812 5.976562 3.257812 C 5.265625 3.257812 4.597656 3.527344 4.082031 4.023438 C 3.550781 4.542969 3.257812 5.234375 3.257812 5.976562 Z M 3.257812 9.246094 " fill-opacity="1" fill-rule="nonzero"/></g><g clip-path="url(#76eebda543)"><path fill="#0e6939" d="M 33.738281 31.058594 C 33.75 30.507812 33.589844 30.136719 33.46875 29.929688 L 16.148438 29.929688 C 16.292969 30.351562 16.347656 30.8125 16.3125 31.300781 C 16.242188 32.242188 15.820312 33.105469 15.175781 33.742188 L 30.910156 33.742188 C 32.449219 33.742188 33.71875 32.539062 33.738281 31.058594 Z M 33.738281 31.058594 " fill-opacity="1" fill-rule="nonzero"/></g><g clip-path="url(#fb13541426)"><path fill="#0e6939" d="M 15.882812 28.839844 L 27.207031 28.839844 L 27.207031 5.976562 C 27.207031 4.476562 25.988281 3.257812 24.488281 3.257812 L 8.585938 3.257812 C 9.324219 3.980469 9.789062 4.996094 9.789062 6.117188 L 9.789062 31.019531 C 9.789062 31.820312 10.140625 32.578125 10.753906 33.097656 C 11.25 33.519531 11.859375 33.742188 12.503906 33.742188 L 12.511719 33.742188 C 12.511719 33.742188 12.546875 33.742188 12.546875 33.742188 C 12.691406 33.738281 12.835938 33.726562 12.980469 33.703125 C 14.191406 33.5 15.136719 32.460938 15.226562 31.222656 C 15.253906 30.816406 15.199219 30.445312 15.058594 30.121094 C 14.929688 29.835938 14.957031 29.507812 15.128906 29.25 C 15.292969 28.996094 15.578125 28.84375 15.882812 28.84375 Z M 25.03125 25.03125 L 11.964844 25.03125 C 11.664062 25.03125 11.421875 24.789062 11.421875 24.488281 C 11.421875 24.1875 11.664062 23.941406 11.964844 23.941406 L 25.03125 23.941406 C 25.332031 23.941406 25.574219 24.1875 25.574219 24.488281 C 25.574219 24.789062 25.332031 25.03125 25.03125 25.03125 Z M 25.03125 22.308594 L 11.964844 22.308594 C 11.664062 22.308594 11.421875 22.066406 11.421875 21.765625 C 11.421875 21.464844 11.664062 21.21875 11.964844 21.21875 L 25.03125 21.21875 C 25.332031 21.21875 25.574219 21.464844 25.574219 21.765625 C 25.574219 22.066406 25.332031 22.308594 25.03125 22.308594 Z M 10.914062 10.175781 C 10.796875 9.757812 10.964844 9.320312 11.339844 9.09375 L 18.003906 5.027344 C 18.308594 4.84375 18.6875 4.84375 18.992188 5.027344 L 25.65625 9.09375 C 26.03125 9.320312 26.199219 9.757812 26.082031 10.179688 C 25.964844 10.597656 25.59375 10.878906 25.164062 10.878906 L 25.03125 10.878906 L 25.03125 16.472656 C 25.355469 16.660156 25.574219 17.007812 25.574219 17.410156 L 25.574219 18.769531 C 25.574219 19.222656 25.207031 19.589844 24.757812 19.589844 L 12.238281 19.589844 C 11.789062 19.589844 11.421875 19.222656 11.421875 18.769531 L 11.421875 17.410156 C 11.421875 17.007812 11.640625 16.660156 11.964844 16.472656 L 11.964844 10.878906 L 11.832031 10.878906 C 11.402344 10.878906 11.03125 10.597656 10.914062 10.179688 Z M 11.964844 27.753906 C 11.664062 27.753906 11.421875 27.507812 11.421875 27.207031 C 11.421875 26.90625 11.664062 26.664062 11.964844 26.664062 L 20.675781 26.664062 C 20.976562 26.664062 21.21875 26.90625 21.21875 27.207031 C 21.21875 27.507812 20.976562 27.753906 20.675781 27.753906 Z M 11.964844 27.753906 " fill-opacity="1" fill-rule="nonzero"/></g><path fill="#0e6939" d="M 18.5 6.003906 L 12.289062 9.789062 L 24.707031 9.789062 Z M 18.5 6.003906 " fill-opacity="1" fill-rule="nonzero"/></svg>