<svg xmlns="http://www.w3.org/2000/svg" xmlns:xlink="http://www.w3.org/1999/xlink" width="50" zoomAndPan="magnify" viewBox="0 0 37.5 37.499999" height="50" preserveAspectRatio="xMidYMid meet" version="1.0"><defs><clipPath id="328a6a05c8"><path d="M 0 0 L 37.007812 0 L 37.007812 37.007812 L 0 37.007812 Z M 0 0 " clip-rule="nonzero"/></clipPath><clipPath id="83321c9df1"><path d="M 2.558594 9.84375 L 34.382812 9.84375 L 34.382812 32 L 2.558594 32 Z M 2.558594 9.84375 " clip-rule="nonzero"/></clipPath></defs><g clip-path="url(#328a6a05c8)"><path fill="#ffffff" d="M 0 0 L 37.007812 0 L 37.007812 37.007812 L 0 37.007812 Z M 0 0 " fill-opacity="1" fill-rule="nonzero"/><path fill="#ffffff" d="M 0 0 L 37.007812 0 L 37.007812 37.007812 L 0 37.007812 Z M 0 0 " fill-opacity="1" fill-rule="nonzero"/></g><g clip-path="url(#83321c9df1)"><path fill="#0e6939" d="M 31.382812 9.84375 L 5.316406 9.84375 C 3.804688 9.84375 2.574219 11.074219 2.574219 12.585938 L 2.574219 29.050781 C 2.574219 30.5625 3.804688 31.792969 5.316406 31.792969 L 31.382812 31.792969 C 32.894531 31.792969 34.125 30.5625 34.125 29.050781 L 34.125 12.585938 C 34.125 11.074219 32.894531 9.84375 31.382812 9.84375 Z M 6.6875 26.992188 C 6.855469 24.230469 10.410156 24.632812 10.941406 23.199219 C 10.984375 22.707031 10.941406 22.367188 10.941406 21.917969 C 10.71875 21.804688 10.097656 21.171875 10 20.472656 C 10 20.472656 9.5 20.230469 9.472656 19.476562 C 9.457031 19.074219 9.738281 18.792969 9.738281 18.792969 C 9.214844 16.78125 9.441406 14.695312 12.132812 14.644531 C 12.804688 14.644531 13.3125 14.96875 13.515625 15.324219 C 15.386719 15.324219 14.898438 17.9375 14.617188 18.792969 C 14.722656 18.898438 14.851562 19.1875 14.851562 19.578125 C 14.851562 20.136719 14.320312 20.472656 14.320312 20.472656 C 14.21875 21.183594 13.71875 21.773438 13.410156 21.921875 C 13.410156 22.367188 13.367188 22.710938 13.410156 23.199219 C 13.945312 24.632812 17.496094 24.230469 17.664062 26.992188 Z M 29.324219 24.933594 L 21.09375 24.933594 C 20.714844 24.933594 20.40625 24.628906 20.40625 24.25 C 20.40625 23.867188 20.714844 23.5625 21.09375 23.5625 L 29.324219 23.5625 C 29.703125 23.5625 30.011719 23.867188 30.011719 24.25 C 30.011719 24.628906 29.703125 24.933594 29.324219 24.933594 Z M 29.324219 21.503906 L 21.09375 21.503906 C 20.714844 21.503906 20.40625 21.195312 20.40625 20.820312 C 20.40625 20.441406 20.714844 20.132812 21.09375 20.132812 L 29.324219 20.132812 C 29.703125 20.132812 30.011719 20.441406 30.011719 20.820312 C 30.011719 21.195312 29.703125 21.503906 29.324219 21.503906 Z M 29.324219 18.074219 L 21.09375 18.074219 C 20.714844 18.074219 20.40625 17.765625 20.40625 17.390625 C 20.40625 17.011719 20.714844 16.703125 21.09375 16.703125 L 29.324219 16.703125 C 29.703125 16.703125 30.011719 17.011719 30.011719 17.390625 C 30.011719 17.765625 29.703125 18.074219 29.324219 18.074219 Z M 29.324219 18.074219 " fill-opacity="1" fill-rule="nonzero"/></g></svg>