<svg xmlns="http://www.w3.org/2000/svg" xmlns:xlink="http://www.w3.org/1999/xlink" width="610" zoomAndPan="magnify" viewBox="0 0 457.5 525.000007" height="700" preserveAspectRatio="xMidYMid meet" version="1.0"><defs><clipPath id="5788c0834c"><path d="M 45.390625 490 L 87.15625 490 L 87.15625 523.992188 L 45.390625 523.992188 Z M 45.390625 490 " clip-rule="nonzero"/></clipPath><clipPath id="54a1287962"><path d="M 22.128906 466.328125 L 50 466.328125 L 50 503 L 22.128906 503 Z M 22.128906 466.328125 " clip-rule="nonzero"/></clipPath><clipPath id="a3f064175a"><path d="M 112 490 L 153.679688 490 L 153.679688 523.992188 L 112 523.992188 Z M 112 490 " clip-rule="nonzero"/></clipPath><clipPath id="46452fd8e9"><path d="M 88.652344 466.328125 L 117 466.328125 L 117 503 L 88.652344 503 Z M 88.652344 466.328125 " clip-rule="nonzero"/></clipPath><clipPath id="7e23be2394"><path d="M 186 490 L 227.382812 490 L 227.382812 523.992188 L 186 523.992188 Z M 186 490 " clip-rule="nonzero"/></clipPath><clipPath id="e4c740a631"><path d="M 162.355469 466.328125 L 191 466.328125 L 191 503 L 162.355469 503 Z M 162.355469 466.328125 " clip-rule="nonzero"/></clipPath><clipPath id="f13e2ef41f"><path d="M 252.136719 490 L 293.90625 490 L 293.90625 523.992188 L 252.136719 523.992188 Z M 252.136719 490 " clip-rule="nonzero"/></clipPath><clipPath id="39694291dd"><path d="M 228.878906 466.328125 L 257 466.328125 L 257 503 L 228.878906 503 Z M 228.878906 466.328125 " clip-rule="nonzero"/></clipPath><clipPath id="e1c8cc3bd9"><path d="M 327.03125 490 L 368.796875 490 L 368.796875 523.992188 L 327.03125 523.992188 Z M 327.03125 490 " clip-rule="nonzero"/></clipPath><clipPath id="3e8ce374e3"><path d="M 303.769531 466.328125 L 332 466.328125 L 332 503 L 303.769531 503 Z M 303.769531 466.328125 " clip-rule="nonzero"/></clipPath><clipPath id="7b578a697f"><path d="M 393.554688 490 L 435.320312 490 L 435.320312 523.992188 L 393.554688 523.992188 Z M 393.554688 490 " clip-rule="nonzero"/></clipPath><clipPath id="bd89d7d56d"><path d="M 370.292969 466.328125 L 399 466.328125 L 399 503 L 370.292969 503 Z M 370.292969 466.328125 " clip-rule="nonzero"/></clipPath><clipPath id="736fab7574"><path d="M 45 432.25 L 86.617188 432.25 L 86.617188 466.320312 L 45 466.320312 Z M 45 432.25 " clip-rule="nonzero"/></clipPath><clipPath id="8414c64ce2"><path d="M 21.589844 408.65625 L 50 408.65625 L 50 446 L 21.589844 446 Z M 21.589844 408.65625 " clip-rule="nonzero"/></clipPath><clipPath id="ffc4711a7e"><path d="M 111.371094 432.25 L 153.140625 432.25 L 153.140625 466.320312 L 111.371094 466.320312 Z M 111.371094 432.25 " clip-rule="nonzero"/></clipPath><clipPath id="413138e741"><path d="M 88.113281 408.65625 L 116 408.65625 L 116 446 L 88.113281 446 Z M 88.113281 408.65625 " clip-rule="nonzero"/></clipPath><clipPath id="8089159c7c"><path d="M 185.074219 432.25 L 226.839844 432.25 L 226.839844 466.320312 L 185.074219 466.320312 Z M 185.074219 432.25 " clip-rule="nonzero"/></clipPath><clipPath id="38308a97d9"><path d="M 161.8125 408.65625 L 190 408.65625 L 190 446 L 161.8125 446 Z M 161.8125 408.65625 " clip-rule="nonzero"/></clipPath><clipPath id="e5fe462efb"><path d="M 252 432.25 L 293.363281 432.25 L 293.363281 466.320312 L 252 466.320312 Z M 252 432.25 " clip-rule="nonzero"/></clipPath><clipPath id="3287bfe79b"><path d="M 228.335938 408.65625 L 257 408.65625 L 257 446 L 228.335938 446 Z M 228.335938 408.65625 " clip-rule="nonzero"/></clipPath><clipPath id="01d46f8d16"><path d="M 326.488281 432.25 L 368.257812 432.25 L 368.257812 466.320312 L 326.488281 466.320312 Z M 326.488281 432.25 " clip-rule="nonzero"/></clipPath><clipPath id="031255ffbb"><path d="M 303.230469 408.65625 L 332 408.65625 L 332 446 L 303.230469 446 Z M 303.230469 408.65625 " clip-rule="nonzero"/></clipPath><clipPath id="fe42a0052c"><path d="M 393.011719 432.25 L 434.78125 432.25 L 434.78125 466.320312 L 393.011719 466.320312 Z M 393.011719 432.25 " clip-rule="nonzero"/></clipPath><clipPath id="3cc4fe3c00"><path d="M 369.753906 408.65625 L 398 408.65625 L 398 446 L 369.753906 446 Z M 369.753906 408.65625 " clip-rule="nonzero"/></clipPath><clipPath id="37d1af78e1"><path d="M 44.308594 374.578125 L 86.078125 374.578125 L 86.078125 408.648438 L 44.308594 408.648438 Z M 44.308594 374.578125 " clip-rule="nonzero"/></clipPath><clipPath id="04ae621462"><path d="M 21.050781 350.984375 L 49 350.984375 L 49 388 L 21.050781 388 Z M 21.050781 350.984375 " clip-rule="nonzero"/></clipPath><clipPath id="60e6d88d64"><path d="M 111 374.578125 L 152.601562 374.578125 L 152.601562 408.648438 L 111 408.648438 Z M 111 374.578125 " clip-rule="nonzero"/></clipPath><clipPath id="ad0e20582a"><path d="M 87.574219 350.984375 L 116 350.984375 L 116 388 L 87.574219 388 Z M 87.574219 350.984375 " clip-rule="nonzero"/></clipPath><clipPath id="0a854eba0d"><path d="M 184.53125 374.578125 L 226.300781 374.578125 L 226.300781 408.648438 L 184.53125 408.648438 Z M 184.53125 374.578125 " clip-rule="nonzero"/></clipPath><clipPath id="7c45b16947"><path d="M 161.273438 350.984375 L 190 350.984375 L 190 388 L 161.273438 388 Z M 161.273438 350.984375 " clip-rule="nonzero"/></clipPath><clipPath id="34ea999d4d"><path d="M 251.058594 374.578125 L 292.824219 374.578125 L 292.824219 408.648438 L 251.058594 408.648438 Z M 251.058594 374.578125 " clip-rule="nonzero"/></clipPath><clipPath id="8b2de3292d"><path d="M 227.796875 350.984375 L 256 350.984375 L 256 388 L 227.796875 388 Z M 227.796875 350.984375 " clip-rule="nonzero"/></clipPath><clipPath id="d5d77d6212"><path d="M 326 374.578125 L 367.71875 374.578125 L 367.71875 408.648438 L 326 408.648438 Z M 326 374.578125 " clip-rule="nonzero"/></clipPath><clipPath id="0fc904a6bb"><path d="M 302.691406 350.984375 L 331 350.984375 L 331 388 L 302.691406 388 Z M 302.691406 350.984375 " clip-rule="nonzero"/></clipPath><clipPath id="a6f7a855ed"><path d="M 392.472656 374.578125 L 434.242188 374.578125 L 434.242188 408.648438 L 392.472656 408.648438 Z M 392.472656 374.578125 " clip-rule="nonzero"/></clipPath><clipPath id="b02ee68b63"><path d="M 369.214844 350.984375 L 398 350.984375 L 398 388 L 369.214844 388 Z M 369.214844 350.984375 " clip-rule="nonzero"/></clipPath><clipPath id="3f6055cfca"><path d="M 44 317 L 85.535156 317 L 85.535156 350.976562 L 44 350.976562 Z M 44 317 " clip-rule="nonzero"/></clipPath><clipPath id="3d0f8d256f"><path d="M 20.511719 293.3125 L 49 293.3125 L 49 330 L 20.511719 330 Z M 20.511719 293.3125 " clip-rule="nonzero"/></clipPath><clipPath id="21eb844fe5"><path d="M 110.292969 317 L 152.0625 317 L 152.0625 350.976562 L 110.292969 350.976562 Z M 110.292969 317 " clip-rule="nonzero"/></clipPath><clipPath id="5d09406f51"><path d="M 87.035156 293.3125 L 115 293.3125 L 115 330 L 87.035156 330 Z M 87.035156 293.3125 " clip-rule="nonzero"/></clipPath><clipPath id="b8ad5c47b9"><path d="M 184 317 L 225.761719 317 L 225.761719 350.976562 L 184 350.976562 Z M 184 317 " clip-rule="nonzero"/></clipPath><clipPath id="55f5fa4f41"><path d="M 160.734375 293.3125 L 189 293.3125 L 189 330 L 160.734375 330 Z M 160.734375 293.3125 " clip-rule="nonzero"/></clipPath><clipPath id="6d89d3d808"><path d="M 250.515625 317 L 292.285156 317 L 292.285156 350.976562 L 250.515625 350.976562 Z M 250.515625 317 " clip-rule="nonzero"/></clipPath><clipPath id="e6b2d81a35"><path d="M 227.257812 293.3125 L 256 293.3125 L 256 330 L 227.257812 330 Z M 227.257812 293.3125 " clip-rule="nonzero"/></clipPath><clipPath id="fbac9a83f6"><path d="M 325.410156 317 L 367.175781 317 L 367.175781 350.976562 L 325.410156 350.976562 Z M 325.410156 317 " clip-rule="nonzero"/></clipPath><clipPath id="0942f1f381"><path d="M 302.152344 293.3125 L 330 293.3125 L 330 330 L 302.152344 330 Z M 302.152344 293.3125 " clip-rule="nonzero"/></clipPath><clipPath id="f00bd0f1b0"><path d="M 392 317 L 433.703125 317 L 433.703125 350.976562 L 392 350.976562 Z M 392 317 " clip-rule="nonzero"/></clipPath><clipPath id="f6f6da9801"><path d="M 368.675781 293.3125 L 397 293.3125 L 397 330 L 368.675781 330 Z M 368.675781 293.3125 " clip-rule="nonzero"/></clipPath><clipPath id="ba61b3fd1b"><path d="M 47.007812 259.234375 L 88.777344 259.234375 L 88.777344 293.304688 L 47.007812 293.304688 Z M 47.007812 259.234375 " clip-rule="nonzero"/></clipPath><clipPath id="4d949870d4"><path d="M 23.75 235.640625 L 52 235.640625 L 52 273 L 23.75 273 Z M 23.75 235.640625 " clip-rule="nonzero"/></clipPath><clipPath id="9a897daef7"><path d="M 113.53125 259.234375 L 155.300781 259.234375 L 155.300781 293.304688 L 113.53125 293.304688 Z M 113.53125 259.234375 " clip-rule="nonzero"/></clipPath><clipPath id="098304a5ae"><path d="M 90.273438 235.640625 L 119 235.640625 L 119 273 L 90.273438 273 Z M 90.273438 235.640625 " clip-rule="nonzero"/></clipPath><clipPath id="6d7bfe1c98"><path d="M 187.234375 259.234375 L 229 259.234375 L 229 293.304688 L 187.234375 293.304688 Z M 187.234375 259.234375 " clip-rule="nonzero"/></clipPath><clipPath id="4120c711fb"><path d="M 164 235.640625 L 192 235.640625 L 192 273 L 164 273 Z M 164 235.640625 " clip-rule="nonzero"/></clipPath><clipPath id="0b6a2d80e5"><path d="M 254 259.234375 L 295.523438 259.234375 L 295.523438 293.304688 L 254 293.304688 Z M 254 259.234375 " clip-rule="nonzero"/></clipPath><clipPath id="281f78a9d1"><path d="M 230.496094 235.640625 L 259 235.640625 L 259 273 L 230.496094 273 Z M 230.496094 235.640625 " clip-rule="nonzero"/></clipPath><clipPath id="1ee14e3f5c"><path d="M 329 259.234375 L 370.417969 259.234375 L 370.417969 293.304688 L 329 293.304688 Z M 329 259.234375 " clip-rule="nonzero"/></clipPath><clipPath id="614583c8f0"><path d="M 305.390625 235.640625 L 334 235.640625 L 334 273 L 305.390625 273 Z M 305.390625 235.640625 " clip-rule="nonzero"/></clipPath><clipPath id="c3eb7c4881"><path d="M 395.171875 259.234375 L 436.941406 259.234375 L 436.941406 293.304688 L 395.171875 293.304688 Z M 395.171875 259.234375 " clip-rule="nonzero"/></clipPath><clipPath id="4e7090c688"><path d="M 372 235.640625 L 400 235.640625 L 400 273 L 372 273 Z M 372 235.640625 " clip-rule="nonzero"/></clipPath><clipPath id="8860a1e4ac"><path d="M 46.46875 201.5625 L 88.238281 201.5625 L 88.238281 235.632812 L 46.46875 235.632812 Z M 46.46875 201.5625 " clip-rule="nonzero"/></clipPath><clipPath id="db6568c7a8"><path d="M 23.210938 177.96875 L 52 177.96875 L 52 215 L 23.210938 215 Z M 23.210938 177.96875 " clip-rule="nonzero"/></clipPath><clipPath id="e30171b7ad"><path d="M 113 201.5625 L 154.761719 201.5625 L 154.761719 235.632812 L 113 235.632812 Z M 113 201.5625 " clip-rule="nonzero"/></clipPath><clipPath id="9381973b26"><path d="M 89.734375 177.96875 L 118 177.96875 L 118 215 L 89.734375 215 Z M 89.734375 177.96875 " clip-rule="nonzero"/></clipPath><clipPath id="9f360d4bfe"><path d="M 187 201.5625 L 228.460938 201.5625 L 228.460938 235.632812 L 187 235.632812 Z M 187 201.5625 " clip-rule="nonzero"/></clipPath><clipPath id="e80079454a"><path d="M 163.433594 177.96875 L 192 177.96875 L 192 215 L 163.433594 215 Z M 163.433594 177.96875 " clip-rule="nonzero"/></clipPath><clipPath id="d9efd250be"><path d="M 253.21875 201.5625 L 294.984375 201.5625 L 294.984375 235.632812 L 253.21875 235.632812 Z M 253.21875 201.5625 " clip-rule="nonzero"/></clipPath><clipPath id="51f7e99a5e"><path d="M 230 177.96875 L 258 177.96875 L 258 215 L 230 215 Z M 230 177.96875 " clip-rule="nonzero"/></clipPath><clipPath id="d4b0532cd7"><path d="M 328.109375 201.5625 L 369.878906 201.5625 L 369.878906 235.632812 L 328.109375 235.632812 Z M 328.109375 201.5625 " clip-rule="nonzero"/></clipPath><clipPath id="5024bf7786"><path d="M 304.851562 177.96875 L 333 177.96875 L 333 215 L 304.851562 215 Z M 304.851562 177.96875 " clip-rule="nonzero"/></clipPath><clipPath id="8d20184a58"><path d="M 395 201.5625 L 436.402344 201.5625 L 436.402344 235.632812 L 395 235.632812 Z M 395 201.5625 " clip-rule="nonzero"/></clipPath><clipPath id="41afebadee"><path d="M 371.375 177.96875 L 400 177.96875 L 400 215 L 371.375 215 Z M 371.375 177.96875 " clip-rule="nonzero"/></clipPath><clipPath id="5fd6a1ce1b"><path d="M 46 144 L 87.695312 144 L 87.695312 177.960938 L 46 177.960938 Z M 46 144 " clip-rule="nonzero"/></clipPath><clipPath id="9ad778ff10"><path d="M 22.667969 120.296875 L 51 120.296875 L 51 157 L 22.667969 157 Z M 22.667969 120.296875 " clip-rule="nonzero"/></clipPath><clipPath id="63758f3cf6"><path d="M 112.453125 144 L 154.21875 144 L 154.21875 177.960938 L 112.453125 177.960938 Z M 112.453125 144 " clip-rule="nonzero"/></clipPath><clipPath id="d500bb680b"><path d="M 89.195312 120.296875 L 117 120.296875 L 117 157 L 89.195312 157 Z M 89.195312 120.296875 " clip-rule="nonzero"/></clipPath><clipPath id="cec4331840"><path d="M 186.152344 144 L 227.921875 144 L 227.921875 177.960938 L 186.152344 177.960938 Z M 186.152344 144 " clip-rule="nonzero"/></clipPath><clipPath id="aa1f60b0a5"><path d="M 163 120.296875 L 191 120.296875 L 191 157 L 163 157 Z M 163 120.296875 " clip-rule="nonzero"/></clipPath><clipPath id="428d531717"><path d="M 253 144 L 294.445312 144 L 294.445312 177.960938 L 253 177.960938 Z M 253 144 " clip-rule="nonzero"/></clipPath><clipPath id="7d2231b971"><path d="M 229.417969 120.296875 L 258 120.296875 L 258 157 L 229.417969 157 Z M 229.417969 120.296875 " clip-rule="nonzero"/></clipPath><clipPath id="35c4802317"><path d="M 328 144 L 369.335938 144 L 369.335938 177.960938 L 328 177.960938 Z M 328 144 " clip-rule="nonzero"/></clipPath><clipPath id="f1fdab184d"><path d="M 304.308594 120.296875 L 333 120.296875 L 333 157 L 304.308594 157 Z M 304.308594 120.296875 " clip-rule="nonzero"/></clipPath><clipPath id="25615dcaef"><path d="M 394.09375 144 L 435.859375 144 L 435.859375 177.960938 L 394.09375 177.960938 Z M 394.09375 144 " clip-rule="nonzero"/></clipPath><clipPath id="c16c53af2a"><path d="M 370.832031 120.296875 L 399 120.296875 L 399 157 L 370.832031 157 Z M 370.832031 120.296875 " clip-rule="nonzero"/></clipPath><clipPath id="5d1824cd9f"><path d="M 45.390625 86.21875 L 87.15625 86.21875 L 87.15625 120.289062 L 45.390625 120.289062 Z M 45.390625 86.21875 " clip-rule="nonzero"/></clipPath><clipPath id="090b18dc35"><path d="M 22.128906 62.625 L 50 62.625 L 50 100 L 22.128906 100 Z M 22.128906 62.625 " clip-rule="nonzero"/></clipPath><clipPath id="47ec6c0631"><path d="M 112 86.21875 L 153.679688 86.21875 L 153.679688 120.289062 L 112 120.289062 Z M 112 86.21875 " clip-rule="nonzero"/></clipPath><clipPath id="de30812e33"><path d="M 88.652344 62.625 L 117 62.625 L 117 100 L 88.652344 100 Z M 88.652344 62.625 " clip-rule="nonzero"/></clipPath><clipPath id="1491803c89"><path d="M 186 86.21875 L 227.382812 86.21875 L 227.382812 120.289062 L 186 120.289062 Z M 186 86.21875 " clip-rule="nonzero"/></clipPath><clipPath id="9d28a5ce26"><path d="M 162.355469 62.625 L 191 62.625 L 191 100 L 162.355469 100 Z M 162.355469 62.625 " clip-rule="nonzero"/></clipPath><clipPath id="ba41c74106"><path d="M 252.136719 86.21875 L 293.90625 86.21875 L 293.90625 120.289062 L 252.136719 120.289062 Z M 252.136719 86.21875 " clip-rule="nonzero"/></clipPath><clipPath id="54a4b6ed3a"><path d="M 228.878906 62.625 L 257 62.625 L 257 100 L 228.878906 100 Z M 228.878906 62.625 " clip-rule="nonzero"/></clipPath><clipPath id="ac61adbf3a"><path d="M 327.03125 86.21875 L 368.796875 86.21875 L 368.796875 120.289062 L 327.03125 120.289062 Z M 327.03125 86.21875 " clip-rule="nonzero"/></clipPath><clipPath id="6f29bd48ee"><path d="M 303.769531 62.625 L 332 62.625 L 332 100 L 303.769531 100 Z M 303.769531 62.625 " clip-rule="nonzero"/></clipPath><clipPath id="4a7c42cb00"><path d="M 393.554688 86.21875 L 435.320312 86.21875 L 435.320312 120.289062 L 393.554688 120.289062 Z M 393.554688 86.21875 " clip-rule="nonzero"/></clipPath><clipPath id="26b9e71533"><path d="M 370.292969 62.625 L 399 62.625 L 399 100 L 370.292969 100 Z M 370.292969 62.625 " clip-rule="nonzero"/></clipPath><clipPath id="42c614e14b"><path d="M 43 23.59375 L 84.671875 23.59375 L 84.671875 57.664062 L 43 57.664062 Z M 43 23.59375 " clip-rule="nonzero"/></clipPath><clipPath id="dda01e85b2"><path d="M 19.644531 0 L 48 0 L 48 37 L 19.644531 37 Z M 19.644531 0 " clip-rule="nonzero"/></clipPath><clipPath id="ffb1dc282b"><path d="M 109.425781 23.59375 L 151.195312 23.59375 L 151.195312 57.664062 L 109.425781 57.664062 Z M 109.425781 23.59375 " clip-rule="nonzero"/></clipPath><clipPath id="7bbaba0e5e"><path d="M 86.167969 0 L 114 0 L 114 37 L 86.167969 37 Z M 86.167969 0 " clip-rule="nonzero"/></clipPath><clipPath id="597f0381ef"><path d="M 183.125 23.59375 L 224.894531 23.59375 L 224.894531 57.664062 L 183.125 57.664062 Z M 183.125 23.59375 " clip-rule="nonzero"/></clipPath><clipPath id="7d428bbd90"><path d="M 159.867188 0 L 188 0 L 188 37 L 159.867188 37 Z M 159.867188 0 " clip-rule="nonzero"/></clipPath><clipPath id="310051d4cd"><path d="M 250 23.59375 L 291.417969 23.59375 L 291.417969 57.664062 L 250 57.664062 Z M 250 23.59375 " clip-rule="nonzero"/></clipPath><clipPath id="41b521e501"><path d="M 226.390625 0 L 255 0 L 255 37 L 226.390625 37 Z M 226.390625 0 " clip-rule="nonzero"/></clipPath><clipPath id="a0170be4e8"><path d="M 324.542969 23.59375 L 366.3125 23.59375 L 366.3125 57.664062 L 324.542969 57.664062 Z M 324.542969 23.59375 " clip-rule="nonzero"/></clipPath><clipPath id="b95b3b73a1"><path d="M 301.285156 0 L 330 0 L 330 37 L 301.285156 37 Z M 301.285156 0 " clip-rule="nonzero"/></clipPath><clipPath id="ec92e15909"><path d="M 391.066406 23.59375 L 432.835938 23.59375 L 432.835938 57.664062 L 391.066406 57.664062 Z M 391.066406 23.59375 " clip-rule="nonzero"/></clipPath><clipPath id="c93025bb16"><path d="M 367.808594 0 L 396 0 L 396 37 L 367.808594 37 Z M 367.808594 0 " clip-rule="nonzero"/></clipPath></defs><g clip-path="url(#5788c0834c)"><path fill="#0e6939" d="M 87.453125 492.183594 C 87.453125 492.183594 82.195312 495.703125 79.832031 506.238281 C 77.144531 518.246094 67.730469 524.679688 53.59375 523.933594 C 50.753906 523.789062 48.53125 523.445312 47.183594 523.175781 C 57.042969 504.144531 72.785156 497.75 74.257812 497.175781 C 55.917969 502.394531 48.246094 514.09375 45.832031 518.738281 C 46.457031 508.550781 50.1875 482.867188 87.453125 492.183594 " fill-opacity="1" fill-rule="nonzero"/></g><g clip-path="url(#54a1287962)"><path fill="#0e6939" d="M 48.292969 499.757812 C 47.675781 495.308594 44.828125 483.640625 31.492188 474.15625 C 32.515625 475.042969 43.414062 484.730469 45.925781 502.960938 C 44.757812 502.789062 42.863281 502.433594 40.519531 501.730469 C 28.871094 498.277344 23.109375 490.371094 24.378906 479.886719 C 25.492188 470.6875 22.25 466.332031 22.25 466.332031 C 55.066406 469.492188 50.714844 491.335938 48.292969 499.757812 " fill-opacity="1" fill-rule="nonzero"/></g><g clip-path="url(#a3f064175a)"><path fill="#0e6939" d="M 153.976562 492.183594 C 153.976562 492.183594 148.71875 495.703125 146.355469 506.238281 C 143.667969 518.246094 134.253906 524.679688 120.117188 523.933594 C 117.277344 523.789062 115.054688 523.445312 113.707031 523.175781 C 123.566406 504.144531 139.308594 497.75 140.78125 497.175781 C 122.441406 502.394531 114.769531 514.09375 112.355469 518.738281 C 112.980469 508.550781 116.710938 482.867188 153.976562 492.183594 " fill-opacity="1" fill-rule="nonzero"/></g><g clip-path="url(#46452fd8e9)"><path fill="#0e6939" d="M 114.816406 499.757812 C 114.199219 495.308594 111.351562 483.640625 98.015625 474.15625 C 99.039062 475.042969 109.9375 484.730469 112.449219 502.960938 C 111.28125 502.789062 109.386719 502.433594 107.042969 501.730469 C 95.394531 498.277344 89.632812 490.371094 90.902344 479.886719 C 92.015625 470.6875 88.773438 466.332031 88.773438 466.332031 C 121.589844 469.492188 117.238281 491.335938 114.816406 499.757812 " fill-opacity="1" fill-rule="nonzero"/></g><g clip-path="url(#7e23be2394)"><path fill="#0e6939" d="M 227.675781 492.183594 C 227.675781 492.183594 222.417969 495.703125 220.058594 506.238281 C 217.367188 518.246094 207.957031 524.679688 193.820312 523.933594 C 190.976562 523.789062 188.753906 523.445312 187.40625 523.175781 C 197.265625 504.144531 213.007812 497.75 214.480469 497.175781 C 196.140625 502.394531 188.46875 514.09375 186.054688 518.738281 C 186.679688 508.550781 190.414062 482.867188 227.675781 492.183594 " fill-opacity="1" fill-rule="nonzero"/></g><g clip-path="url(#e4c740a631)"><path fill="#0e6939" d="M 188.515625 499.757812 C 187.898438 495.308594 185.050781 483.640625 171.714844 474.15625 C 172.742188 475.042969 183.640625 484.730469 186.148438 502.960938 C 184.980469 502.789062 183.085938 502.433594 180.746094 501.730469 C 169.097656 498.277344 163.332031 490.371094 164.605469 479.886719 C 165.71875 470.6875 162.472656 466.332031 162.472656 466.332031 C 195.289062 469.492188 190.9375 491.335938 188.515625 499.757812 " fill-opacity="1" fill-rule="nonzero"/></g><g clip-path="url(#f13e2ef41f)"><path fill="#0e6939" d="M 294.199219 492.183594 C 294.199219 492.183594 288.941406 495.703125 286.582031 506.238281 C 283.890625 518.246094 274.480469 524.679688 260.34375 523.933594 C 257.5 523.789062 255.277344 523.445312 253.929688 523.175781 C 263.789062 504.144531 279.53125 497.75 281.003906 497.175781 C 262.664062 502.394531 254.992188 514.09375 252.578125 518.738281 C 253.203125 508.550781 256.9375 482.867188 294.199219 492.183594 " fill-opacity="1" fill-rule="nonzero"/></g><g clip-path="url(#39694291dd)"><path fill="#0e6939" d="M 255.039062 499.757812 C 254.421875 495.308594 251.574219 483.640625 238.238281 474.15625 C 239.265625 475.042969 250.164062 484.730469 252.675781 502.960938 C 251.507812 502.789062 249.609375 502.433594 247.269531 501.730469 C 235.621094 498.277344 229.855469 490.371094 231.128906 479.886719 C 232.242188 470.6875 228.996094 466.332031 228.996094 466.332031 C 261.8125 469.492188 257.460938 491.335938 255.039062 499.757812 " fill-opacity="1" fill-rule="nonzero"/></g><g clip-path="url(#e1c8cc3bd9)"><path fill="#0e6939" d="M 369.09375 492.183594 C 369.09375 492.183594 363.835938 495.703125 361.472656 506.238281 C 358.785156 518.246094 349.371094 524.679688 335.234375 523.933594 C 332.394531 523.789062 330.171875 523.445312 328.824219 523.175781 C 338.683594 504.144531 354.425781 497.75 355.898438 497.175781 C 337.558594 502.394531 329.886719 514.09375 327.472656 518.738281 C 328.097656 508.550781 331.828125 482.867188 369.09375 492.183594 " fill-opacity="1" fill-rule="nonzero"/></g><g clip-path="url(#3e8ce374e3)"><path fill="#0e6939" d="M 329.933594 499.757812 C 329.316406 495.308594 326.46875 483.640625 313.132812 474.15625 C 314.15625 475.042969 325.054688 484.730469 327.566406 502.960938 C 326.398438 502.789062 324.503906 502.433594 322.160156 501.730469 C 310.511719 498.277344 304.746094 490.371094 306.019531 479.886719 C 307.132812 470.6875 303.890625 466.332031 303.890625 466.332031 C 336.707031 469.492188 332.355469 491.335938 329.933594 499.757812 " fill-opacity="1" fill-rule="nonzero"/></g><g clip-path="url(#7b578a697f)"><path fill="#0e6939" d="M 435.617188 492.183594 C 435.617188 492.183594 430.359375 495.703125 427.996094 506.238281 C 425.308594 518.246094 415.894531 524.679688 401.757812 523.933594 C 398.917969 523.789062 396.695312 523.445312 395.347656 523.175781 C 405.207031 504.144531 420.949219 497.75 422.421875 497.175781 C 404.082031 502.394531 396.410156 514.09375 393.996094 518.738281 C 394.621094 508.550781 398.351562 482.867188 435.617188 492.183594 " fill-opacity="1" fill-rule="nonzero"/></g><g clip-path="url(#bd89d7d56d)"><path fill="#0e6939" d="M 396.457031 499.757812 C 395.839844 495.308594 392.992188 483.640625 379.65625 474.15625 C 380.679688 475.042969 391.578125 484.730469 394.089844 502.960938 C 392.921875 502.789062 391.027344 502.433594 388.683594 501.730469 C 377.035156 498.277344 371.273438 490.371094 372.542969 479.886719 C 373.65625 470.6875 370.414062 466.332031 370.414062 466.332031 C 403.230469 469.492188 398.878906 491.335938 396.457031 499.757812 " fill-opacity="1" fill-rule="nonzero"/></g><g clip-path="url(#736fab7574)"><path fill="#0e6939" d="M 86.914062 434.511719 C 86.914062 434.511719 81.65625 438.03125 79.292969 448.566406 C 76.601562 460.574219 67.191406 467.007812 53.054688 466.261719 C 50.210938 466.117188 47.992188 465.769531 46.644531 465.503906 C 56.503906 446.46875 72.246094 440.078125 73.71875 439.503906 C 55.378906 444.722656 47.707031 456.421875 45.292969 461.066406 C 45.917969 450.878906 49.648438 425.195312 86.914062 434.511719 " fill-opacity="1" fill-rule="nonzero"/></g><g clip-path="url(#8414c64ce2)"><path fill="#0e6939" d="M 47.753906 442.085938 C 47.132812 437.636719 44.289062 425.96875 30.949219 416.484375 C 31.976562 417.371094 42.875 427.058594 45.386719 445.289062 C 44.21875 445.117188 42.320312 444.761719 39.980469 444.058594 C 28.332031 440.605469 22.566406 432.699219 23.839844 422.214844 C 24.953125 413.015625 21.710938 408.660156 21.710938 408.660156 C 54.527344 411.820312 50.171875 433.664062 47.753906 442.085938 " fill-opacity="1" fill-rule="nonzero"/></g><g clip-path="url(#ffc4711a7e)"><path fill="#0e6939" d="M 153.4375 434.511719 C 153.4375 434.511719 148.179688 438.03125 145.816406 448.566406 C 143.125 460.574219 133.714844 467.007812 119.578125 466.261719 C 116.734375 466.117188 114.515625 465.769531 113.167969 465.503906 C 123.027344 446.46875 138.769531 440.078125 140.242188 439.503906 C 121.902344 444.722656 114.230469 456.421875 111.816406 461.066406 C 112.441406 450.878906 116.171875 425.195312 153.4375 434.511719 " fill-opacity="1" fill-rule="nonzero"/></g><g clip-path="url(#413138e741)"><path fill="#0e6939" d="M 114.277344 442.085938 C 113.65625 437.636719 110.8125 425.96875 97.472656 416.484375 C 98.5 417.371094 109.398438 427.058594 111.910156 445.289062 C 110.742188 445.117188 108.84375 444.761719 106.503906 444.058594 C 94.855469 440.605469 89.089844 432.699219 90.363281 422.214844 C 91.476562 413.015625 88.234375 408.660156 88.234375 408.660156 C 121.050781 411.820312 116.695312 433.664062 114.277344 442.085938 " fill-opacity="1" fill-rule="nonzero"/></g><g clip-path="url(#8089159c7c)"><path fill="#0e6939" d="M 227.136719 434.511719 C 227.136719 434.511719 221.878906 438.03125 219.515625 448.566406 C 216.828125 460.574219 207.414062 467.007812 193.277344 466.261719 C 190.4375 466.117188 188.214844 465.769531 186.867188 465.503906 C 196.726562 446.46875 212.46875 440.078125 213.941406 439.503906 C 195.601562 444.722656 187.929688 456.421875 185.515625 461.066406 C 186.140625 450.878906 189.871094 425.195312 227.136719 434.511719 " fill-opacity="1" fill-rule="nonzero"/></g><g clip-path="url(#38308a97d9)"><path fill="#0e6939" d="M 187.976562 442.085938 C 187.359375 437.636719 184.511719 425.96875 171.175781 416.484375 C 172.199219 417.371094 183.097656 427.058594 185.609375 445.289062 C 184.441406 445.117188 182.546875 444.761719 180.203125 444.058594 C 168.558594 440.605469 162.792969 432.699219 164.0625 422.214844 C 165.175781 413.015625 161.933594 408.660156 161.933594 408.660156 C 194.75 411.820312 190.398438 433.664062 187.976562 442.085938 " fill-opacity="1" fill-rule="nonzero"/></g><g clip-path="url(#e5fe462efb)"><path fill="#0e6939" d="M 293.660156 434.511719 C 293.660156 434.511719 288.402344 438.03125 286.039062 448.566406 C 283.351562 460.574219 273.9375 467.007812 259.804688 466.261719 C 256.960938 466.117188 254.738281 465.769531 253.390625 465.503906 C 263.25 446.46875 278.992188 440.078125 280.464844 439.503906 C 262.125 444.722656 254.453125 456.421875 252.039062 461.066406 C 252.664062 450.878906 256.394531 425.195312 293.660156 434.511719 " fill-opacity="1" fill-rule="nonzero"/></g><g clip-path="url(#3287bfe79b)"><path fill="#0e6939" d="M 254.5 442.085938 C 253.882812 437.636719 251.035156 425.96875 237.699219 416.484375 C 238.722656 417.371094 249.621094 427.058594 252.132812 445.289062 C 250.964844 445.117188 249.070312 444.761719 246.726562 444.058594 C 235.082031 440.605469 229.316406 432.699219 230.585938 422.214844 C 231.699219 413.015625 228.457031 408.660156 228.457031 408.660156 C 261.273438 411.820312 256.921875 433.664062 254.5 442.085938 " fill-opacity="1" fill-rule="nonzero"/></g><g clip-path="url(#01d46f8d16)"><path fill="#0e6939" d="M 368.554688 434.511719 C 368.554688 434.511719 363.296875 438.03125 360.933594 448.566406 C 358.242188 460.574219 348.832031 467.007812 334.695312 466.261719 C 331.851562 466.117188 329.632812 465.769531 328.285156 465.503906 C 338.144531 446.46875 353.886719 440.078125 355.359375 439.503906 C 337.019531 444.722656 329.347656 456.421875 326.933594 461.066406 C 327.558594 450.878906 331.289062 425.195312 368.554688 434.511719 " fill-opacity="1" fill-rule="nonzero"/></g><g clip-path="url(#031255ffbb)"><path fill="#0e6939" d="M 329.394531 442.085938 C 328.773438 437.636719 325.929688 425.96875 312.589844 416.484375 C 313.617188 417.371094 324.515625 427.058594 327.027344 445.289062 C 325.859375 445.117188 323.960938 444.761719 321.621094 444.058594 C 309.972656 440.605469 304.207031 432.699219 305.480469 422.214844 C 306.59375 413.015625 303.351562 408.660156 303.351562 408.660156 C 336.167969 411.820312 331.8125 433.664062 329.394531 442.085938 " fill-opacity="1" fill-rule="nonzero"/></g><g clip-path="url(#fe42a0052c)"><path fill="#0e6939" d="M 435.078125 434.511719 C 435.078125 434.511719 429.820312 438.03125 427.457031 448.566406 C 424.765625 460.574219 415.355469 467.007812 401.21875 466.261719 C 398.375 466.117188 396.15625 465.769531 394.808594 465.503906 C 404.667969 446.46875 420.410156 440.078125 421.882812 439.503906 C 403.542969 444.722656 395.871094 456.421875 393.457031 461.066406 C 394.082031 450.878906 397.8125 425.195312 435.078125 434.511719 " fill-opacity="1" fill-rule="nonzero"/></g><g clip-path="url(#3cc4fe3c00)"><path fill="#0e6939" d="M 395.917969 442.085938 C 395.296875 437.636719 392.453125 425.96875 379.113281 416.484375 C 380.140625 417.371094 391.039062 427.058594 393.550781 445.289062 C 392.382812 445.117188 390.484375 444.761719 388.144531 444.058594 C 376.496094 440.605469 370.730469 432.699219 372.003906 422.214844 C 373.117188 413.015625 369.875 408.660156 369.875 408.660156 C 402.691406 411.820312 398.335938 433.664062 395.917969 442.085938 " fill-opacity="1" fill-rule="nonzero"/></g><g clip-path="url(#37d1af78e1)"><path fill="#0e6939" d="M 86.371094 376.839844 C 86.371094 376.839844 81.117188 380.359375 78.753906 390.894531 C 76.0625 402.902344 66.652344 409.335938 52.515625 408.589844 C 49.671875 408.445312 47.453125 408.097656 46.101562 407.832031 C 55.960938 388.796875 71.703125 382.40625 73.175781 381.832031 C 54.835938 387.050781 47.167969 398.75 44.753906 403.394531 C 45.375 393.207031 49.109375 367.519531 86.371094 376.839844 " fill-opacity="1" fill-rule="nonzero"/></g><g clip-path="url(#04ae621462)"><path fill="#0e6939" d="M 47.210938 384.414062 C 46.59375 379.964844 43.746094 368.296875 30.410156 358.8125 C 31.4375 359.699219 42.335938 369.386719 44.847656 387.617188 C 43.679688 387.445312 41.78125 387.089844 39.441406 386.386719 C 27.792969 382.933594 22.027344 375.027344 23.300781 364.542969 C 24.414062 355.339844 21.167969 350.988281 21.167969 350.988281 C 53.984375 354.148438 49.632812 375.992188 47.210938 384.414062 " fill-opacity="1" fill-rule="nonzero"/></g><g clip-path="url(#60e6d88d64)"><path fill="#0e6939" d="M 152.894531 376.839844 C 152.894531 376.839844 147.640625 380.359375 145.277344 390.894531 C 142.585938 402.902344 133.175781 409.335938 119.039062 408.589844 C 116.195312 408.445312 113.976562 408.097656 112.625 407.832031 C 122.484375 388.796875 138.226562 382.40625 139.699219 381.832031 C 121.359375 387.050781 113.691406 398.75 111.277344 403.394531 C 111.898438 393.207031 115.632812 367.519531 152.894531 376.839844 " fill-opacity="1" fill-rule="nonzero"/></g><g clip-path="url(#ad0e20582a)"><path fill="#0e6939" d="M 113.734375 384.414062 C 113.117188 379.964844 110.269531 368.296875 96.933594 358.8125 C 97.960938 359.699219 108.859375 369.386719 111.371094 387.617188 C 110.203125 387.445312 108.304688 387.089844 105.964844 386.386719 C 94.316406 382.933594 88.550781 375.027344 89.824219 364.542969 C 90.9375 355.339844 87.691406 350.988281 87.691406 350.988281 C 120.511719 354.148438 116.15625 375.992188 113.734375 384.414062 " fill-opacity="1" fill-rule="nonzero"/></g><g clip-path="url(#0a854eba0d)"><path fill="#0e6939" d="M 226.597656 376.839844 C 226.597656 376.839844 221.339844 380.359375 218.976562 390.894531 C 216.285156 402.902344 206.875 409.335938 192.738281 408.589844 C 189.894531 408.445312 187.675781 408.097656 186.328125 407.832031 C 196.1875 388.796875 211.929688 382.40625 213.402344 381.832031 C 195.0625 387.050781 187.390625 398.75 184.976562 403.394531 C 185.601562 393.207031 189.332031 367.519531 226.597656 376.839844 " fill-opacity="1" fill-rule="nonzero"/></g><g clip-path="url(#7c45b16947)"><path fill="#0e6939" d="M 187.4375 384.414062 C 186.816406 379.964844 183.972656 368.296875 170.632812 358.8125 C 171.660156 359.699219 182.558594 369.386719 185.070312 387.617188 C 183.902344 387.445312 182.003906 387.089844 179.664062 386.386719 C 168.015625 382.933594 162.25 375.027344 163.523438 364.542969 C 164.636719 355.339844 161.394531 350.988281 161.394531 350.988281 C 194.210938 354.148438 189.855469 375.992188 187.4375 384.414062 " fill-opacity="1" fill-rule="nonzero"/></g><g clip-path="url(#34ea999d4d)"><path fill="#0e6939" d="M 293.121094 376.839844 C 293.121094 376.839844 287.863281 380.359375 285.5 390.894531 C 282.808594 402.902344 273.398438 409.335938 259.261719 408.589844 C 256.421875 408.445312 254.199219 408.097656 252.851562 407.832031 C 262.710938 388.796875 278.453125 382.40625 279.925781 381.832031 C 261.585938 387.050781 253.914062 398.75 251.5 403.394531 C 252.125 393.207031 255.855469 367.519531 293.121094 376.839844 " fill-opacity="1" fill-rule="nonzero"/></g><g clip-path="url(#8b2de3292d)"><path fill="#0e6939" d="M 253.960938 384.414062 C 253.339844 379.964844 250.496094 368.296875 237.15625 358.8125 C 238.183594 359.699219 249.082031 369.386719 251.59375 387.617188 C 250.425781 387.445312 248.53125 387.089844 246.1875 386.386719 C 234.539062 382.933594 228.773438 375.027344 230.046875 364.542969 C 231.160156 355.339844 227.917969 350.988281 227.917969 350.988281 C 260.734375 354.148438 256.382812 375.992188 253.960938 384.414062 " fill-opacity="1" fill-rule="nonzero"/></g><g clip-path="url(#d5d77d6212)"><path fill="#0e6939" d="M 368.011719 376.839844 C 368.011719 376.839844 362.757812 380.359375 360.394531 390.894531 C 357.703125 402.902344 348.292969 409.335938 334.15625 408.589844 C 331.3125 408.445312 329.09375 408.097656 327.742188 407.832031 C 337.601562 388.796875 353.34375 382.40625 354.816406 381.832031 C 336.476562 387.050781 328.808594 398.75 326.394531 403.394531 C 327.015625 393.207031 330.75 367.519531 368.011719 376.839844 " fill-opacity="1" fill-rule="nonzero"/></g><g clip-path="url(#0fc904a6bb)"><path fill="#0e6939" d="M 328.851562 384.414062 C 328.234375 379.964844 325.386719 368.296875 312.050781 358.8125 C 313.078125 359.699219 323.976562 369.386719 326.488281 387.617188 C 325.320312 387.445312 323.421875 387.089844 321.082031 386.386719 C 309.433594 382.933594 303.667969 375.027344 304.941406 364.542969 C 306.054688 355.339844 302.808594 350.988281 302.808594 350.988281 C 335.625 354.148438 331.273438 375.992188 328.851562 384.414062 " fill-opacity="1" fill-rule="nonzero"/></g><g clip-path="url(#a6f7a855ed)"><path fill="#0e6939" d="M 434.535156 376.839844 C 434.535156 376.839844 429.28125 380.359375 426.917969 390.894531 C 424.226562 402.902344 414.816406 409.335938 400.679688 408.589844 C 397.835938 408.445312 395.617188 408.097656 394.265625 407.832031 C 404.125 388.796875 419.867188 382.40625 421.339844 381.832031 C 403 387.050781 395.332031 398.75 392.917969 403.394531 C 393.539062 393.207031 397.273438 367.519531 434.535156 376.839844 " fill-opacity="1" fill-rule="nonzero"/></g><g clip-path="url(#b02ee68b63)"><path fill="#0e6939" d="M 395.375 384.414062 C 394.757812 379.964844 391.910156 368.296875 378.574219 358.8125 C 379.601562 359.699219 390.5 369.386719 393.011719 387.617188 C 391.84375 387.445312 389.945312 387.089844 387.605469 386.386719 C 375.957031 382.933594 370.191406 375.027344 371.464844 364.542969 C 372.578125 355.339844 369.332031 350.988281 369.332031 350.988281 C 402.152344 354.148438 397.796875 375.992188 395.375 384.414062 " fill-opacity="1" fill-rule="nonzero"/></g><g clip-path="url(#3f6055cfca)"><path fill="#0e6939" d="M 85.832031 319.167969 C 85.832031 319.167969 80.574219 322.6875 78.214844 333.222656 C 75.523438 345.230469 66.113281 351.664062 51.976562 350.917969 C 49.132812 350.773438 46.910156 350.425781 45.5625 350.160156 C 55.421875 331.125 71.164062 324.734375 72.636719 324.160156 C 54.296875 329.375 46.625 341.078125 44.210938 345.722656 C 44.835938 335.535156 48.570312 309.847656 85.832031 319.167969 " fill-opacity="1" fill-rule="nonzero"/></g><g clip-path="url(#3d0f8d256f)"><path fill="#0e6939" d="M 46.671875 326.742188 C 46.054688 322.292969 43.207031 310.625 29.871094 301.140625 C 30.898438 302.027344 41.796875 311.714844 44.304688 329.945312 C 43.136719 329.773438 41.242188 329.414062 38.902344 328.714844 C 27.253906 325.261719 21.488281 317.355469 22.761719 306.871094 C 23.871094 297.667969 20.628906 293.316406 20.628906 293.316406 C 53.445312 296.476562 49.09375 318.320312 46.671875 326.742188 " fill-opacity="1" fill-rule="nonzero"/></g><g clip-path="url(#21eb844fe5)"><path fill="#0e6939" d="M 152.355469 319.167969 C 152.355469 319.167969 147.097656 322.6875 144.738281 333.222656 C 142.046875 345.230469 132.636719 351.664062 118.5 350.917969 C 115.65625 350.773438 113.433594 350.425781 112.085938 350.160156 C 121.945312 331.125 137.6875 324.734375 139.160156 324.160156 C 120.820312 329.375 113.148438 341.078125 110.734375 345.722656 C 111.359375 335.535156 115.09375 309.847656 152.355469 319.167969 " fill-opacity="1" fill-rule="nonzero"/></g><g clip-path="url(#5d09406f51)"><path fill="#0e6939" d="M 113.195312 326.742188 C 112.578125 322.292969 109.730469 310.625 96.394531 301.140625 C 97.421875 302.027344 108.320312 311.714844 110.828125 329.945312 C 109.660156 329.773438 107.765625 329.414062 105.425781 328.714844 C 93.777344 325.261719 88.011719 317.355469 89.285156 306.871094 C 90.398438 297.667969 87.152344 293.316406 87.152344 293.316406 C 119.96875 296.476562 115.617188 318.320312 113.195312 326.742188 " fill-opacity="1" fill-rule="nonzero"/></g><g clip-path="url(#b8ad5c47b9)"><path fill="#0e6939" d="M 226.054688 319.167969 C 226.054688 319.167969 220.800781 322.6875 218.4375 333.222656 C 215.746094 345.230469 206.335938 351.664062 192.199219 350.917969 C 189.355469 350.773438 187.136719 350.425781 185.785156 350.160156 C 195.644531 331.125 211.386719 324.734375 212.859375 324.160156 C 194.519531 329.375 186.851562 341.078125 184.4375 345.722656 C 185.058594 335.535156 188.792969 309.847656 226.054688 319.167969 " fill-opacity="1" fill-rule="nonzero"/></g><g clip-path="url(#55f5fa4f41)"><path fill="#0e6939" d="M 186.894531 326.742188 C 186.277344 322.292969 183.429688 310.625 170.09375 301.140625 C 171.121094 302.027344 182.019531 311.714844 184.53125 329.945312 C 183.363281 329.773438 181.464844 329.414062 179.125 328.714844 C 167.476562 325.261719 161.710938 317.355469 162.984375 306.871094 C 164.097656 297.667969 160.851562 293.316406 160.851562 293.316406 C 193.671875 296.476562 189.316406 318.320312 186.894531 326.742188 " fill-opacity="1" fill-rule="nonzero"/></g><g clip-path="url(#6d89d3d808)"><path fill="#0e6939" d="M 292.578125 319.167969 C 292.578125 319.167969 287.324219 322.6875 284.960938 333.222656 C 282.269531 345.230469 272.859375 351.664062 258.722656 350.917969 C 255.878906 350.773438 253.660156 350.425781 252.308594 350.160156 C 262.171875 331.125 277.910156 324.734375 279.382812 324.160156 C 261.042969 329.375 253.375 341.078125 250.960938 345.722656 C 251.582031 335.535156 255.316406 309.847656 292.578125 319.167969 " fill-opacity="1" fill-rule="nonzero"/></g><g clip-path="url(#e6b2d81a35)"><path fill="#0e6939" d="M 253.421875 326.742188 C 252.800781 322.292969 249.953125 310.625 236.617188 301.140625 C 237.644531 302.027344 248.542969 311.714844 251.054688 329.945312 C 249.886719 329.773438 247.988281 329.414062 245.648438 328.714844 C 234 325.261719 228.234375 317.355469 229.507812 306.871094 C 230.621094 297.667969 227.378906 293.316406 227.378906 293.316406 C 260.195312 296.476562 255.839844 318.320312 253.421875 326.742188 " fill-opacity="1" fill-rule="nonzero"/></g><g clip-path="url(#fbac9a83f6)"><path fill="#0e6939" d="M 367.472656 319.167969 C 367.472656 319.167969 362.214844 322.6875 359.855469 333.222656 C 357.164062 345.230469 347.753906 351.664062 333.617188 350.917969 C 330.773438 350.773438 328.550781 350.425781 327.203125 350.160156 C 337.0625 331.125 352.804688 324.734375 354.277344 324.160156 C 335.9375 329.375 328.265625 341.078125 325.851562 345.722656 C 326.476562 335.535156 330.210938 309.847656 367.472656 319.167969 " fill-opacity="1" fill-rule="nonzero"/></g><g clip-path="url(#0942f1f381)"><path fill="#0e6939" d="M 328.3125 326.742188 C 327.695312 322.292969 324.847656 310.625 311.511719 301.140625 C 312.539062 302.027344 323.4375 311.714844 325.945312 329.945312 C 324.777344 329.773438 322.882812 329.414062 320.542969 328.714844 C 308.894531 325.261719 303.128906 317.355469 304.402344 306.871094 C 305.511719 297.667969 302.269531 293.316406 302.269531 293.316406 C 335.085938 296.476562 330.734375 318.320312 328.3125 326.742188 " fill-opacity="1" fill-rule="nonzero"/></g><g clip-path="url(#f00bd0f1b0)"><path fill="#0e6939" d="M 433.996094 319.167969 C 433.996094 319.167969 428.738281 322.6875 426.378906 333.222656 C 423.6875 345.230469 414.277344 351.664062 400.140625 350.917969 C 397.296875 350.773438 395.074219 350.425781 393.726562 350.160156 C 403.585938 331.125 419.328125 324.734375 420.800781 324.160156 C 402.460938 329.375 394.789062 341.078125 392.375 345.722656 C 393 335.535156 396.734375 309.847656 433.996094 319.167969 " fill-opacity="1" fill-rule="nonzero"/></g><g clip-path="url(#f6f6da9801)"><path fill="#0e6939" d="M 394.835938 326.742188 C 394.21875 322.292969 391.371094 310.625 378.035156 301.140625 C 379.0625 302.027344 389.960938 311.714844 392.46875 329.945312 C 391.300781 329.773438 389.40625 329.414062 387.066406 328.714844 C 375.417969 325.261719 369.652344 317.355469 370.925781 306.871094 C 372.039062 297.667969 368.792969 293.316406 368.792969 293.316406 C 401.609375 296.476562 397.257812 318.320312 394.835938 326.742188 " fill-opacity="1" fill-rule="nonzero"/></g><g clip-path="url(#ba61b3fd1b)"><path fill="#0e6939" d="M 89.074219 261.496094 C 89.074219 261.496094 83.816406 265.015625 81.453125 275.550781 C 78.761719 287.558594 69.351562 293.992188 55.214844 293.246094 C 52.371094 293.101562 50.152344 292.753906 48.804688 292.488281 C 58.664062 273.453125 74.40625 267.0625 75.878906 266.488281 C 57.535156 271.703125 49.867188 283.40625 47.453125 288.050781 C 48.078125 277.863281 51.808594 252.175781 89.074219 261.496094 " fill-opacity="1" fill-rule="nonzero"/></g><g clip-path="url(#4d949870d4)"><path fill="#0e6939" d="M 49.914062 269.070312 C 49.292969 264.621094 46.449219 252.953125 33.109375 243.46875 C 34.136719 244.355469 45.035156 254.042969 47.546875 272.273438 C 46.378906 272.101562 44.480469 271.742188 42.140625 271.042969 C 30.492188 267.589844 24.726562 259.683594 26 249.199219 C 27.113281 239.996094 23.871094 235.644531 23.871094 235.644531 C 56.6875 238.804688 52.332031 260.648438 49.914062 269.070312 " fill-opacity="1" fill-rule="nonzero"/></g><g clip-path="url(#9a897daef7)"><path fill="#0e6939" d="M 155.597656 261.496094 C 155.597656 261.496094 150.339844 265.015625 147.976562 275.550781 C 145.285156 287.558594 135.875 293.992188 121.738281 293.246094 C 118.894531 293.101562 116.675781 292.753906 115.328125 292.488281 C 125.1875 273.453125 140.929688 267.0625 142.402344 266.488281 C 124.0625 271.703125 116.390625 283.40625 113.976562 288.050781 C 114.601562 277.863281 118.332031 252.175781 155.597656 261.496094 " fill-opacity="1" fill-rule="nonzero"/></g><g clip-path="url(#098304a5ae)"><path fill="#0e6939" d="M 116.4375 269.070312 C 115.816406 264.621094 112.972656 252.953125 99.632812 243.46875 C 100.660156 244.355469 111.558594 254.042969 114.070312 272.273438 C 112.902344 272.101562 111.003906 271.742188 108.664062 271.042969 C 97.015625 267.589844 91.25 259.683594 92.523438 249.199219 C 93.636719 239.996094 90.394531 235.644531 90.394531 235.644531 C 123.210938 238.804688 118.855469 260.648438 116.4375 269.070312 " fill-opacity="1" fill-rule="nonzero"/></g><g clip-path="url(#6d7bfe1c98)"><path fill="#0e6939" d="M 229.296875 261.496094 C 229.296875 261.496094 224.039062 265.015625 221.675781 275.550781 C 218.988281 287.558594 209.574219 293.992188 195.4375 293.246094 C 192.597656 293.101562 190.375 292.753906 189.027344 292.488281 C 198.886719 273.453125 214.628906 267.0625 216.101562 266.488281 C 197.761719 271.703125 190.089844 283.40625 187.675781 288.050781 C 188.300781 277.863281 192.03125 252.175781 229.296875 261.496094 " fill-opacity="1" fill-rule="nonzero"/></g><g clip-path="url(#4120c711fb)"><path fill="#0e6939" d="M 190.136719 269.070312 C 189.519531 264.621094 186.671875 252.953125 173.335938 243.46875 C 174.359375 244.355469 185.257812 254.042969 187.769531 272.273438 C 186.601562 272.101562 184.707031 271.742188 182.363281 271.042969 C 170.714844 267.589844 164.953125 259.683594 166.222656 249.199219 C 167.335938 239.996094 164.09375 235.644531 164.09375 235.644531 C 196.910156 238.804688 192.558594 260.648438 190.136719 269.070312 " fill-opacity="1" fill-rule="nonzero"/></g><g clip-path="url(#0b6a2d80e5)"><path fill="#0e6939" d="M 295.820312 261.496094 C 295.820312 261.496094 290.5625 265.015625 288.199219 275.550781 C 285.511719 287.558594 276.097656 293.992188 261.960938 293.246094 C 259.121094 293.101562 256.898438 292.753906 255.550781 292.488281 C 265.410156 273.453125 281.152344 267.0625 282.625 266.488281 C 264.285156 271.703125 256.613281 283.40625 254.199219 288.050781 C 254.824219 277.863281 258.554688 252.175781 295.820312 261.496094 " fill-opacity="1" fill-rule="nonzero"/></g><g clip-path="url(#281f78a9d1)"><path fill="#0e6939" d="M 256.660156 269.070312 C 256.042969 264.621094 253.195312 252.953125 239.859375 243.46875 C 240.882812 244.355469 251.78125 254.042969 254.292969 272.273438 C 253.125 272.101562 251.230469 271.742188 248.886719 271.042969 C 237.242188 267.589844 231.476562 259.683594 232.746094 249.199219 C 233.859375 239.996094 230.617188 235.644531 230.617188 235.644531 C 263.433594 238.804688 259.082031 260.648438 256.660156 269.070312 " fill-opacity="1" fill-rule="nonzero"/></g><g clip-path="url(#1ee14e3f5c)"><path fill="#0e6939" d="M 370.714844 261.496094 C 370.714844 261.496094 365.457031 265.015625 363.09375 275.550781 C 360.402344 287.558594 350.992188 293.992188 336.855469 293.246094 C 334.011719 293.101562 331.792969 292.753906 330.445312 292.488281 C 340.304688 273.453125 356.046875 267.0625 357.519531 266.488281 C 339.175781 271.703125 331.507812 283.40625 329.09375 288.050781 C 329.71875 277.863281 333.449219 252.175781 370.714844 261.496094 " fill-opacity="1" fill-rule="nonzero"/></g><g clip-path="url(#614583c8f0)"><path fill="#0e6939" d="M 331.554688 269.070312 C 330.933594 264.621094 328.089844 252.953125 314.75 243.46875 C 315.777344 244.355469 326.675781 254.042969 329.1875 272.273438 C 328.019531 272.101562 326.121094 271.742188 323.78125 271.042969 C 312.132812 267.589844 306.367188 259.683594 307.640625 249.199219 C 308.753906 239.996094 305.511719 235.644531 305.511719 235.644531 C 338.328125 238.804688 333.972656 260.648438 331.554688 269.070312 " fill-opacity="1" fill-rule="nonzero"/></g><g clip-path="url(#c3eb7c4881)"><path fill="#0e6939" d="M 437.238281 261.496094 C 437.238281 261.496094 431.980469 265.015625 429.617188 275.550781 C 426.925781 287.558594 417.515625 293.992188 403.378906 293.246094 C 400.535156 293.101562 398.316406 292.753906 396.96875 292.488281 C 406.828125 273.453125 422.570312 267.0625 424.042969 266.488281 C 405.703125 271.703125 398.03125 283.40625 395.617188 288.050781 C 396.242188 277.863281 399.972656 252.175781 437.238281 261.496094 " fill-opacity="1" fill-rule="nonzero"/></g><g clip-path="url(#4e7090c688)"><path fill="#0e6939" d="M 398.078125 269.070312 C 397.457031 264.621094 394.613281 252.953125 381.273438 243.46875 C 382.300781 244.355469 393.199219 254.042969 395.710938 272.273438 C 394.542969 272.101562 392.644531 271.742188 390.304688 271.042969 C 378.65625 267.589844 372.890625 259.683594 374.164062 249.199219 C 375.277344 239.996094 372.035156 235.644531 372.035156 235.644531 C 404.851562 238.804688 400.496094 260.648438 398.078125 269.070312 " fill-opacity="1" fill-rule="nonzero"/></g><g clip-path="url(#8860a1e4ac)"><path fill="#0e6939" d="M 88.53125 203.824219 C 88.53125 203.824219 83.277344 207.34375 80.914062 217.878906 C 78.222656 229.886719 68.8125 236.320312 54.675781 235.574219 C 51.832031 235.429688 49.613281 235.082031 48.261719 234.816406 C 58.121094 215.78125 73.863281 209.390625 75.335938 208.816406 C 56.996094 214.03125 49.328125 225.734375 46.914062 230.378906 C 47.535156 220.191406 51.269531 194.503906 88.53125 203.824219 " fill-opacity="1" fill-rule="nonzero"/></g><g clip-path="url(#db6568c7a8)"><path fill="#0e6939" d="M 49.371094 211.398438 C 48.753906 206.949219 45.90625 195.28125 32.570312 185.796875 C 33.597656 186.683594 44.496094 196.371094 47.007812 214.601562 C 45.839844 214.429688 43.941406 214.070312 41.601562 213.371094 C 29.953125 209.917969 24.1875 202.011719 25.460938 191.527344 C 26.574219 182.324219 23.328125 177.96875 23.328125 177.96875 C 56.144531 181.128906 51.792969 202.976562 49.371094 211.398438 " fill-opacity="1" fill-rule="nonzero"/></g><g clip-path="url(#e30171b7ad)"><path fill="#0e6939" d="M 155.054688 203.824219 C 155.054688 203.824219 149.800781 207.34375 147.4375 217.878906 C 144.746094 229.886719 135.335938 236.320312 121.199219 235.574219 C 118.355469 235.429688 116.136719 235.082031 114.785156 234.816406 C 124.644531 215.78125 140.386719 209.390625 141.859375 208.816406 C 123.519531 214.03125 115.851562 225.734375 113.4375 230.378906 C 114.058594 220.191406 117.792969 194.503906 155.054688 203.824219 " fill-opacity="1" fill-rule="nonzero"/></g><g clip-path="url(#9381973b26)"><path fill="#0e6939" d="M 115.894531 211.398438 C 115.277344 206.949219 112.429688 195.28125 99.09375 185.796875 C 100.121094 186.683594 111.019531 196.371094 113.53125 214.601562 C 112.363281 214.429688 110.464844 214.070312 108.125 213.371094 C 96.476562 209.917969 90.710938 202.011719 91.984375 191.527344 C 93.097656 182.324219 89.851562 177.96875 89.851562 177.96875 C 122.671875 181.128906 118.316406 202.976562 115.894531 211.398438 " fill-opacity="1" fill-rule="nonzero"/></g><g clip-path="url(#9f360d4bfe)"><path fill="#0e6939" d="M 228.757812 203.824219 C 228.757812 203.824219 223.5 207.34375 221.136719 217.878906 C 218.445312 229.886719 209.035156 236.320312 194.898438 235.574219 C 192.054688 235.429688 189.835938 235.082031 188.488281 234.816406 C 198.347656 215.78125 214.089844 209.390625 215.5625 208.816406 C 197.222656 214.03125 189.550781 225.734375 187.136719 230.378906 C 187.761719 220.191406 191.492188 194.503906 228.757812 203.824219 " fill-opacity="1" fill-rule="nonzero"/></g><g clip-path="url(#e80079454a)"><path fill="#0e6939" d="M 189.597656 211.398438 C 188.976562 206.949219 186.132812 195.28125 172.792969 185.796875 C 173.820312 186.683594 184.71875 196.371094 187.230469 214.601562 C 186.0625 214.429688 184.164062 214.070312 181.824219 213.371094 C 170.175781 209.917969 164.410156 202.011719 165.683594 191.527344 C 166.796875 182.324219 163.554688 177.96875 163.554688 177.96875 C 196.371094 181.128906 192.015625 202.976562 189.597656 211.398438 " fill-opacity="1" fill-rule="nonzero"/></g><g clip-path="url(#d9efd250be)"><path fill="#0e6939" d="M 295.28125 203.824219 C 295.28125 203.824219 290.023438 207.34375 287.660156 217.878906 C 284.96875 229.886719 275.558594 236.320312 261.421875 235.574219 C 258.578125 235.429688 256.359375 235.082031 255.011719 234.816406 C 264.871094 215.78125 280.613281 209.390625 282.085938 208.816406 C 263.746094 214.03125 256.074219 225.734375 253.660156 230.378906 C 254.285156 220.191406 258.015625 194.503906 295.28125 203.824219 " fill-opacity="1" fill-rule="nonzero"/></g><g clip-path="url(#51f7e99a5e)"><path fill="#0e6939" d="M 256.121094 211.398438 C 255.5 206.949219 252.65625 195.28125 239.316406 185.796875 C 240.34375 186.683594 251.242188 196.371094 253.753906 214.601562 C 252.585938 214.429688 250.6875 214.070312 248.347656 213.371094 C 236.699219 209.917969 230.933594 202.011719 232.207031 191.527344 C 233.320312 182.324219 230.078125 177.96875 230.078125 177.96875 C 262.894531 181.128906 258.539062 202.976562 256.121094 211.398438 " fill-opacity="1" fill-rule="nonzero"/></g><g clip-path="url(#d4b0532cd7)"><path fill="#0e6939" d="M 370.171875 203.824219 C 370.171875 203.824219 364.917969 207.34375 362.554688 217.878906 C 359.863281 229.886719 350.453125 236.320312 336.316406 235.574219 C 333.472656 235.429688 331.253906 235.082031 329.902344 234.816406 C 339.761719 215.78125 355.503906 209.390625 356.976562 208.816406 C 338.636719 214.03125 330.96875 225.734375 328.554688 230.378906 C 329.175781 220.191406 332.910156 194.503906 370.171875 203.824219 " fill-opacity="1" fill-rule="nonzero"/></g><g clip-path="url(#5024bf7786)"><path fill="#0e6939" d="M 331.011719 211.398438 C 330.394531 206.949219 327.546875 195.28125 314.210938 185.796875 C 315.238281 186.683594 326.136719 196.371094 328.648438 214.601562 C 327.480469 214.429688 325.582031 214.070312 323.242188 213.371094 C 311.59375 209.917969 305.828125 202.011719 307.101562 191.527344 C 308.214844 182.324219 304.96875 177.96875 304.96875 177.96875 C 337.785156 181.128906 333.433594 202.976562 331.011719 211.398438 " fill-opacity="1" fill-rule="nonzero"/></g><g clip-path="url(#8d20184a58)"><path fill="#0e6939" d="M 436.695312 203.824219 C 436.695312 203.824219 431.441406 207.34375 429.078125 217.878906 C 426.386719 229.886719 416.976562 236.320312 402.839844 235.574219 C 399.996094 235.429688 397.777344 235.082031 396.425781 234.816406 C 406.285156 215.78125 422.027344 209.390625 423.5 208.816406 C 405.160156 214.03125 397.492188 225.734375 395.078125 230.378906 C 395.699219 220.191406 399.433594 194.503906 436.695312 203.824219 " fill-opacity="1" fill-rule="nonzero"/></g><g clip-path="url(#41afebadee)"><path fill="#0e6939" d="M 397.535156 211.398438 C 396.917969 206.949219 394.070312 195.28125 380.734375 185.796875 C 381.761719 186.683594 392.660156 196.371094 395.171875 214.601562 C 394.003906 214.429688 392.105469 214.070312 389.765625 213.371094 C 378.117188 209.917969 372.351562 202.011719 373.625 191.527344 C 374.738281 182.324219 371.492188 177.96875 371.492188 177.96875 C 404.308594 181.128906 399.957031 202.976562 397.535156 211.398438 " fill-opacity="1" fill-rule="nonzero"/></g><g clip-path="url(#5fd6a1ce1b)"><path fill="#0e6939" d="M 87.992188 146.152344 C 87.992188 146.152344 82.734375 149.667969 80.371094 160.207031 C 77.683594 172.214844 68.273438 178.648438 54.136719 177.902344 C 51.292969 177.757812 49.070312 177.410156 47.722656 177.144531 C 57.582031 158.109375 73.324219 151.714844 74.796875 151.140625 C 56.457031 156.359375 48.785156 168.0625 46.371094 172.703125 C 46.996094 162.515625 50.730469 136.832031 87.992188 146.152344 " fill-opacity="1" fill-rule="nonzero"/></g><g clip-path="url(#9ad778ff10)"><path fill="#0e6939" d="M 48.832031 153.726562 C 48.214844 149.277344 45.367188 137.605469 32.03125 128.125 C 33.058594 129.007812 43.953125 138.699219 46.464844 156.925781 C 45.296875 156.753906 43.402344 156.398438 41.0625 155.699219 C 29.414062 152.246094 23.648438 144.339844 24.921875 133.851562 C 26.03125 124.652344 22.789062 120.296875 22.789062 120.296875 C 55.605469 123.457031 51.253906 145.304688 48.832031 153.726562 " fill-opacity="1" fill-rule="nonzero"/></g><g clip-path="url(#63758f3cf6)"><path fill="#0e6939" d="M 154.515625 146.152344 C 154.515625 146.152344 149.257812 149.667969 146.898438 160.207031 C 144.207031 172.214844 134.796875 178.648438 120.660156 177.902344 C 117.816406 177.757812 115.59375 177.410156 114.246094 177.144531 C 124.105469 158.109375 139.847656 151.714844 141.320312 151.140625 C 122.980469 156.359375 115.308594 168.0625 112.894531 172.703125 C 113.519531 162.515625 117.253906 136.832031 154.515625 146.152344 " fill-opacity="1" fill-rule="nonzero"/></g><g clip-path="url(#d500bb680b)"><path fill="#0e6939" d="M 115.355469 153.726562 C 114.738281 149.277344 111.890625 137.605469 98.554688 128.125 C 99.582031 129.007812 110.480469 138.699219 112.988281 156.925781 C 111.820312 156.753906 109.925781 156.398438 107.585938 155.699219 C 95.9375 152.246094 90.171875 144.339844 91.445312 133.851562 C 92.554688 124.652344 89.3125 120.296875 89.3125 120.296875 C 122.128906 123.457031 117.777344 145.304688 115.355469 153.726562 " fill-opacity="1" fill-rule="nonzero"/></g><g clip-path="url(#cec4331840)"><path fill="#0e6939" d="M 228.214844 146.152344 C 228.214844 146.152344 222.960938 149.667969 220.597656 160.207031 C 217.90625 172.214844 208.496094 178.648438 194.359375 177.902344 C 191.515625 177.757812 189.296875 177.410156 187.945312 177.144531 C 197.804688 158.109375 213.546875 151.714844 215.019531 151.140625 C 196.679688 156.359375 189.011719 168.0625 186.597656 172.703125 C 187.21875 162.515625 190.953125 136.832031 228.214844 146.152344 " fill-opacity="1" fill-rule="nonzero"/></g><g clip-path="url(#aa1f60b0a5)"><path fill="#0e6939" d="M 189.054688 153.726562 C 188.4375 149.277344 185.589844 137.605469 172.253906 128.125 C 173.28125 129.007812 184.179688 138.699219 186.691406 156.925781 C 185.523438 156.753906 183.625 156.398438 181.285156 155.699219 C 169.636719 152.246094 163.871094 144.339844 165.144531 133.851562 C 166.257812 124.652344 163.011719 120.296875 163.011719 120.296875 C 195.832031 123.457031 191.476562 145.304688 189.054688 153.726562 " fill-opacity="1" fill-rule="nonzero"/></g><g clip-path="url(#428d531717)"><path fill="#0e6939" d="M 294.738281 146.152344 C 294.738281 146.152344 289.484375 149.667969 287.121094 160.207031 C 284.429688 172.214844 275.019531 178.648438 260.882812 177.902344 C 258.039062 177.757812 255.820312 177.410156 254.46875 177.144531 C 264.328125 158.109375 280.070312 151.714844 281.542969 151.140625 C 263.203125 156.359375 255.535156 168.0625 253.121094 172.703125 C 253.742188 162.515625 257.476562 136.832031 294.738281 146.152344 " fill-opacity="1" fill-rule="nonzero"/></g><g clip-path="url(#7d2231b971)"><path fill="#0e6939" d="M 255.578125 153.726562 C 254.960938 149.277344 252.113281 137.605469 238.777344 128.125 C 239.804688 129.007812 250.703125 138.699219 253.214844 156.925781 C 252.046875 156.753906 250.148438 156.398438 247.808594 155.699219 C 236.160156 152.246094 230.394531 144.339844 231.667969 133.851562 C 232.78125 124.652344 229.535156 120.296875 229.535156 120.296875 C 262.355469 123.457031 258 145.304688 255.578125 153.726562 " fill-opacity="1" fill-rule="nonzero"/></g><g clip-path="url(#35c4802317)"><path fill="#0e6939" d="M 369.632812 146.152344 C 369.632812 146.152344 364.375 149.667969 362.011719 160.207031 C 359.324219 172.214844 349.910156 178.648438 335.777344 177.902344 C 332.933594 177.757812 330.710938 177.410156 329.363281 177.144531 C 339.222656 158.109375 354.964844 151.714844 356.4375 151.140625 C 338.097656 156.359375 330.425781 168.0625 328.011719 172.703125 C 328.636719 162.515625 332.371094 136.832031 369.632812 146.152344 " fill-opacity="1" fill-rule="nonzero"/></g><g clip-path="url(#f1fdab184d)"><path fill="#0e6939" d="M 330.472656 153.726562 C 329.855469 149.277344 327.007812 137.605469 313.671875 128.125 C 314.699219 129.007812 325.59375 138.699219 328.105469 156.925781 C 326.9375 156.753906 325.042969 156.398438 322.703125 155.699219 C 311.054688 152.246094 305.289062 144.339844 306.5625 133.851562 C 307.671875 124.652344 304.429688 120.296875 304.429688 120.296875 C 337.246094 123.457031 332.894531 145.304688 330.472656 153.726562 " fill-opacity="1" fill-rule="nonzero"/></g><g clip-path="url(#25615dcaef)"><path fill="#0e6939" d="M 436.15625 146.152344 C 436.15625 146.152344 430.898438 149.667969 428.539062 160.207031 C 425.847656 172.214844 416.4375 178.648438 402.300781 177.902344 C 399.457031 177.757812 397.234375 177.410156 395.886719 177.144531 C 405.746094 158.109375 421.488281 151.714844 422.960938 151.140625 C 404.621094 156.359375 396.949219 168.0625 394.535156 172.703125 C 395.160156 162.515625 398.894531 136.832031 436.15625 146.152344 " fill-opacity="1" fill-rule="nonzero"/></g><g clip-path="url(#c16c53af2a)"><path fill="#0e6939" d="M 396.996094 153.726562 C 396.378906 149.277344 393.53125 137.605469 380.195312 128.125 C 381.222656 129.007812 392.117188 138.699219 394.628906 156.925781 C 393.460938 156.753906 391.566406 156.398438 389.226562 155.699219 C 377.578125 152.246094 371.8125 144.339844 373.085938 133.851562 C 374.195312 124.652344 370.953125 120.296875 370.953125 120.296875 C 403.769531 123.457031 399.417969 145.304688 396.996094 153.726562 " fill-opacity="1" fill-rule="nonzero"/></g><g clip-path="url(#5d1824cd9f)"><path fill="#0e6939" d="M 87.453125 88.480469 C 87.453125 88.480469 82.195312 91.996094 79.832031 102.535156 C 77.144531 114.542969 67.730469 120.976562 53.59375 120.230469 C 50.753906 120.085938 48.53125 119.738281 47.183594 119.472656 C 57.042969 100.4375 72.785156 94.042969 74.257812 93.46875 C 55.917969 98.6875 48.246094 110.390625 45.832031 115.03125 C 46.457031 104.84375 50.1875 79.160156 87.453125 88.480469 " fill-opacity="1" fill-rule="nonzero"/></g><g clip-path="url(#090b18dc35)"><path fill="#0e6939" d="M 48.292969 96.050781 C 47.675781 91.605469 44.828125 79.933594 31.492188 70.453125 C 32.515625 71.335938 43.414062 81.027344 45.925781 99.253906 C 44.757812 99.082031 42.863281 98.726562 40.519531 98.027344 C 28.871094 94.574219 23.109375 86.667969 24.378906 76.179688 C 25.492188 66.980469 22.25 62.625 22.25 62.625 C 55.066406 65.785156 50.714844 87.632812 48.292969 96.050781 " fill-opacity="1" fill-rule="nonzero"/></g><g clip-path="url(#47ec6c0631)"><path fill="#0e6939" d="M 153.976562 88.480469 C 153.976562 88.480469 148.71875 91.996094 146.355469 102.535156 C 143.667969 114.542969 134.253906 120.976562 120.117188 120.230469 C 117.277344 120.085938 115.054688 119.738281 113.707031 119.472656 C 123.566406 100.4375 139.308594 94.042969 140.78125 93.46875 C 122.441406 98.6875 114.769531 110.390625 112.355469 115.03125 C 112.980469 104.84375 116.710938 79.160156 153.976562 88.480469 " fill-opacity="1" fill-rule="nonzero"/></g><g clip-path="url(#de30812e33)"><path fill="#0e6939" d="M 114.816406 96.050781 C 114.199219 91.605469 111.351562 79.933594 98.015625 70.453125 C 99.039062 71.335938 109.9375 81.027344 112.449219 99.253906 C 111.28125 99.082031 109.386719 98.726562 107.042969 98.027344 C 95.394531 94.574219 89.632812 86.667969 90.902344 76.179688 C 92.015625 66.980469 88.773438 62.625 88.773438 62.625 C 121.589844 65.785156 117.238281 87.632812 114.816406 96.050781 " fill-opacity="1" fill-rule="nonzero"/></g><g clip-path="url(#1491803c89)"><path fill="#0e6939" d="M 227.675781 88.480469 C 227.675781 88.480469 222.417969 91.996094 220.058594 102.535156 C 217.367188 114.542969 207.957031 120.976562 193.820312 120.230469 C 190.976562 120.085938 188.753906 119.738281 187.40625 119.472656 C 197.265625 100.4375 213.007812 94.042969 214.480469 93.46875 C 196.140625 98.6875 188.46875 110.390625 186.054688 115.03125 C 186.679688 104.84375 190.414062 79.160156 227.675781 88.480469 " fill-opacity="1" fill-rule="nonzero"/></g><g clip-path="url(#9d28a5ce26)"><path fill="#0e6939" d="M 188.515625 96.050781 C 187.898438 91.605469 185.050781 79.933594 171.714844 70.453125 C 172.742188 71.335938 183.640625 81.027344 186.148438 99.253906 C 184.980469 99.082031 183.085938 98.726562 180.746094 98.027344 C 169.097656 94.574219 163.332031 86.667969 164.605469 76.179688 C 165.71875 66.980469 162.472656 62.625 162.472656 62.625 C 195.289062 65.785156 190.9375 87.632812 188.515625 96.050781 " fill-opacity="1" fill-rule="nonzero"/></g><g clip-path="url(#ba41c74106)"><path fill="#0e6939" d="M 294.199219 88.480469 C 294.199219 88.480469 288.941406 91.996094 286.582031 102.535156 C 283.890625 114.542969 274.480469 120.976562 260.34375 120.230469 C 257.5 120.085938 255.277344 119.738281 253.929688 119.472656 C 263.789062 100.4375 279.53125 94.042969 281.003906 93.46875 C 262.664062 98.6875 254.992188 110.390625 252.578125 115.03125 C 253.203125 104.84375 256.9375 79.160156 294.199219 88.480469 " fill-opacity="1" fill-rule="nonzero"/></g><g clip-path="url(#54a4b6ed3a)"><path fill="#0e6939" d="M 255.039062 96.050781 C 254.421875 91.605469 251.574219 79.933594 238.238281 70.453125 C 239.265625 71.335938 250.164062 81.027344 252.675781 99.253906 C 251.507812 99.082031 249.609375 98.726562 247.269531 98.027344 C 235.621094 94.574219 229.855469 86.667969 231.128906 76.179688 C 232.242188 66.980469 228.996094 62.625 228.996094 62.625 C 261.8125 65.785156 257.460938 87.632812 255.039062 96.050781 " fill-opacity="1" fill-rule="nonzero"/></g><g clip-path="url(#ac61adbf3a)"><path fill="#0e6939" d="M 369.09375 88.480469 C 369.09375 88.480469 363.835938 91.996094 361.472656 102.535156 C 358.785156 114.542969 349.371094 120.976562 335.234375 120.230469 C 332.394531 120.085938 330.171875 119.738281 328.824219 119.472656 C 338.683594 100.4375 354.425781 94.042969 355.898438 93.46875 C 337.558594 98.6875 329.886719 110.390625 327.472656 115.03125 C 328.097656 104.84375 331.828125 79.160156 369.09375 88.480469 " fill-opacity="1" fill-rule="nonzero"/></g><g clip-path="url(#6f29bd48ee)"><path fill="#0e6939" d="M 329.933594 96.050781 C 329.316406 91.605469 326.46875 79.933594 313.132812 70.453125 C 314.15625 71.335938 325.054688 81.027344 327.566406 99.253906 C 326.398438 99.082031 324.503906 98.726562 322.160156 98.027344 C 310.511719 94.574219 304.746094 86.667969 306.019531 76.179688 C 307.132812 66.980469 303.890625 62.625 303.890625 62.625 C 336.707031 65.785156 332.355469 87.632812 329.933594 96.050781 " fill-opacity="1" fill-rule="nonzero"/></g><g clip-path="url(#4a7c42cb00)"><path fill="#0e6939" d="M 435.617188 88.480469 C 435.617188 88.480469 430.359375 91.996094 427.996094 102.535156 C 425.308594 114.542969 415.894531 120.976562 401.757812 120.230469 C 398.917969 120.085938 396.695312 119.738281 395.347656 119.472656 C 405.207031 100.4375 420.949219 94.042969 422.421875 93.46875 C 404.082031 98.6875 396.410156 110.390625 393.996094 115.03125 C 394.621094 104.84375 398.351562 79.160156 435.617188 88.480469 " fill-opacity="1" fill-rule="nonzero"/></g><g clip-path="url(#26b9e71533)"><path fill="#0e6939" d="M 396.457031 96.050781 C 395.839844 91.605469 392.992188 79.933594 379.65625 70.453125 C 380.679688 71.335938 391.578125 81.027344 394.089844 99.253906 C 392.921875 99.082031 391.027344 98.726562 388.683594 98.027344 C 377.035156 94.574219 371.273438 86.667969 372.542969 76.179688 C 373.65625 66.980469 370.414062 62.625 370.414062 62.625 C 403.230469 65.785156 398.878906 87.632812 396.457031 96.050781 " fill-opacity="1" fill-rule="nonzero"/></g><g clip-path="url(#42c614e14b)"><path fill="#0e6939" d="M 84.964844 25.855469 C 84.964844 25.855469 79.710938 29.375 77.347656 39.910156 C 74.65625 51.917969 65.246094 58.351562 51.109375 57.605469 C 48.265625 57.460938 46.046875 57.113281 44.695312 56.847656 C 54.554688 37.8125 70.296875 31.421875 71.769531 30.847656 C 53.429688 36.0625 45.761719 47.765625 43.347656 52.40625 C 43.96875 42.222656 47.703125 16.535156 84.964844 25.855469 " fill-opacity="1" fill-rule="nonzero"/></g><g clip-path="url(#dda01e85b2)"><path fill="#0e6939" d="M 45.804688 33.429688 C 45.1875 28.980469 42.339844 17.308594 29.003906 7.828125 C 30.03125 8.710938 40.929688 18.402344 43.441406 36.628906 C 42.273438 36.457031 40.375 36.101562 38.035156 35.402344 C 26.386719 31.949219 20.621094 24.042969 21.894531 13.558594 C 23.007812 4.355469 19.761719 0 19.761719 0 C 52.578125 3.160156 48.226562 25.007812 45.804688 33.429688 " fill-opacity="1" fill-rule="nonzero"/></g><g clip-path="url(#ffb1dc282b)"><path fill="#0e6939" d="M 151.488281 25.855469 C 151.488281 25.855469 146.234375 29.375 143.871094 39.910156 C 141.179688 51.917969 131.769531 58.351562 117.632812 57.605469 C 114.789062 57.460938 112.570312 57.113281 111.21875 56.847656 C 121.078125 37.8125 136.820312 31.421875 138.292969 30.847656 C 119.953125 36.0625 112.285156 47.765625 109.871094 52.40625 C 110.492188 42.222656 114.226562 16.535156 151.488281 25.855469 " fill-opacity="1" fill-rule="nonzero"/></g><g clip-path="url(#7bbaba0e5e)"><path fill="#0e6939" d="M 112.328125 33.429688 C 111.710938 28.980469 108.863281 17.308594 95.527344 7.828125 C 96.554688 8.710938 107.453125 18.402344 109.964844 36.628906 C 108.796875 36.457031 106.898438 36.101562 104.558594 35.402344 C 92.910156 31.949219 87.144531 24.042969 88.417969 13.558594 C 89.53125 4.355469 86.285156 0 86.285156 0 C 119.101562 3.160156 114.75 25.007812 112.328125 33.429688 " fill-opacity="1" fill-rule="nonzero"/></g><g clip-path="url(#597f0381ef)"><path fill="#0e6939" d="M 225.191406 25.855469 C 225.191406 25.855469 219.933594 29.375 217.570312 39.910156 C 214.878906 51.917969 205.46875 58.351562 191.332031 57.605469 C 188.488281 57.460938 186.269531 57.113281 184.921875 56.847656 C 194.78125 37.8125 210.523438 31.421875 211.996094 30.847656 C 193.65625 36.0625 185.984375 47.765625 183.570312 52.40625 C 184.195312 42.222656 187.925781 16.535156 225.191406 25.855469 " fill-opacity="1" fill-rule="nonzero"/></g><g clip-path="url(#7d428bbd90)"><path fill="#0e6939" d="M 186.03125 33.429688 C 185.410156 28.980469 182.566406 17.308594 169.226562 7.828125 C 170.253906 8.710938 181.152344 18.402344 183.664062 36.628906 C 182.496094 36.457031 180.597656 36.101562 178.257812 35.402344 C 166.609375 31.949219 160.84375 24.042969 162.117188 13.558594 C 163.230469 4.355469 159.988281 0 159.988281 0 C 192.804688 3.160156 188.449219 25.007812 186.03125 33.429688 " fill-opacity="1" fill-rule="nonzero"/></g><g clip-path="url(#310051d4cd)"><path fill="#0e6939" d="M 291.714844 25.855469 C 291.714844 25.855469 286.457031 29.375 284.09375 39.910156 C 281.402344 51.917969 271.992188 58.351562 257.855469 57.605469 C 255.011719 57.460938 252.792969 57.113281 251.445312 56.847656 C 261.304688 37.8125 277.046875 31.421875 278.519531 30.847656 C 260.179688 36.0625 252.507812 47.765625 250.09375 52.40625 C 250.71875 42.222656 254.449219 16.535156 291.714844 25.855469 " fill-opacity="1" fill-rule="nonzero"/></g><g clip-path="url(#41b521e501)"><path fill="#0e6939" d="M 252.554688 33.429688 C 251.933594 28.980469 249.089844 17.308594 235.75 7.828125 C 236.777344 8.710938 247.675781 18.402344 250.1875 36.628906 C 249.019531 36.457031 247.125 36.101562 244.78125 35.402344 C 233.132812 31.949219 227.367188 24.042969 228.640625 13.558594 C 229.753906 4.355469 226.511719 0 226.511719 0 C 259.328125 3.160156 254.972656 25.007812 252.554688 33.429688 " fill-opacity="1" fill-rule="nonzero"/></g><g clip-path="url(#a0170be4e8)"><path fill="#0e6939" d="M 366.605469 25.855469 C 366.605469 25.855469 361.351562 29.375 358.988281 39.910156 C 356.296875 51.917969 346.886719 58.351562 332.75 57.605469 C 329.90625 57.460938 327.6875 57.113281 326.335938 56.847656 C 336.195312 37.8125 351.9375 31.421875 353.410156 30.847656 C 335.070312 36.0625 327.402344 47.765625 324.988281 52.40625 C 325.609375 42.222656 329.34375 16.535156 366.605469 25.855469 " fill-opacity="1" fill-rule="nonzero"/></g><g clip-path="url(#b95b3b73a1)"><path fill="#0e6939" d="M 327.445312 33.429688 C 326.828125 28.980469 323.980469 17.308594 310.644531 7.828125 C 311.671875 8.710938 322.570312 18.402344 325.082031 36.628906 C 323.914062 36.457031 322.015625 36.101562 319.675781 35.402344 C 308.027344 31.949219 302.261719 24.042969 303.535156 13.558594 C 304.648438 4.355469 301.402344 0 301.402344 0 C 334.21875 3.160156 329.867188 25.007812 327.445312 33.429688 " fill-opacity="1" fill-rule="nonzero"/></g><g clip-path="url(#ec92e15909)"><path fill="#0e6939" d="M 433.128906 25.855469 C 433.128906 25.855469 427.875 29.375 425.511719 39.910156 C 422.820312 51.917969 413.410156 58.351562 399.273438 57.605469 C 396.429688 57.460938 394.210938 57.113281 392.859375 56.847656 C 402.71875 37.8125 418.460938 31.421875 419.933594 30.847656 C 401.59375 36.0625 393.925781 47.765625 391.511719 52.40625 C 392.132812 42.222656 395.867188 16.535156 433.128906 25.855469 " fill-opacity="1" fill-rule="nonzero"/></g><g clip-path="url(#c93025bb16)"><path fill="#0e6939" d="M 393.96875 33.429688 C 393.351562 28.980469 390.503906 17.308594 377.167969 7.828125 C 378.195312 8.710938 389.09375 18.402344 391.605469 36.628906 C 390.4375 36.457031 388.539062 36.101562 386.199219 35.402344 C 374.550781 31.949219 368.785156 24.042969 370.058594 13.558594 C 371.171875 4.355469 367.925781 0 367.925781 0 C 400.742188 3.160156 396.390625 25.007812 393.96875 33.429688 " fill-opacity="1" fill-rule="nonzero"/></g></svg>