<svg xmlns="http://www.w3.org/2000/svg" xmlns:xlink="http://www.w3.org/1999/xlink" width="50" zoomAndPan="magnify" viewBox="0 0 37.5 37.499999" height="50" preserveAspectRatio="xMidYMid meet" version="1.0"><defs><clipPath id="88578dc251"><path d="M 0 0 L 37.007812 0 L 37.007812 37.007812 L 0 37.007812 Z M 0 0 " clip-rule="nonzero"/></clipPath><clipPath id="0daf870048"><path d="M 5.441406 4.324219 L 31.34375 4.324219 L 31.34375 32.449219 L 5.441406 32.449219 Z M 5.441406 4.324219 " clip-rule="nonzero"/></clipPath></defs><g clip-path="url(#88578dc251)"><path fill="#ffffff" d="M 0 0 L 37.007812 0 L 37.007812 37.007812 L 0 37.007812 Z M 0 0 " fill-opacity="1" fill-rule="nonzero"/><path fill="#ffffff" d="M 0 0 L 37.007812 0 L 37.007812 37.007812 L 0 37.007812 Z M 0 0 " fill-opacity="1" fill-rule="nonzero"/></g><g clip-path="url(#0daf870048)"><path fill="#0e6939" d="M 9.398438 9.121094 L 5.523438 9.121094 C 5.566406 9.023438 5.632812 8.929688 5.714844 8.847656 L 9.960938 4.601562 C 10.042969 4.515625 10.136719 4.453125 10.234375 4.410156 L 10.234375 8.285156 C 10.234375 8.746094 9.859375 9.121094 9.398438 9.121094 Z M 26.6875 11.71875 L 26.6875 7.703125 C 26.6875 7.195312 26.273438 6.777344 25.765625 6.777344 L 25.15625 6.777344 L 25.15625 11.632812 C 25.664062 11.617188 26.175781 11.644531 26.6875 11.71875 Z M 25.425781 18.726562 C 24.777344 18.726562 24.25 19.253906 24.25 19.902344 C 24.25 20.324219 24.472656 20.695312 24.808594 20.902344 L 24.808594 21.53125 C 24.808594 21.871094 25.085938 22.148438 25.425781 22.148438 C 25.765625 22.148438 26.042969 21.871094 26.042969 21.53125 L 26.042969 20.902344 C 26.378906 20.695312 26.601562 20.324219 26.601562 19.902344 C 26.601562 19.253906 26.074219 18.726562 25.425781 18.726562 Z M 23.3125 30.222656 L 6.367188 30.222656 C 5.859375 30.222656 5.441406 29.808594 5.441406 29.300781 L 5.441406 10.039062 L 9.085938 10.039062 C 9.03125 10.113281 9 10.207031 9 10.304688 L 9 10.417969 C 8.613281 10.578125 8.359375 10.953125 8.359375 11.375 C 8.359375 11.945312 8.824219 12.410156 9.394531 12.410156 L 9.523438 12.410156 C 9.585938 12.410156 9.640625 12.464844 9.640625 12.527344 C 9.640625 12.589844 9.585938 12.644531 9.523438 12.644531 L 9.339844 12.644531 C 9.296875 12.644531 9.269531 12.628906 9.246094 12.59375 C 9.097656 12.390625 8.808594 12.34375 8.605469 12.492188 C 8.398438 12.640625 8.355469 12.925781 8.503906 13.132812 C 8.625 13.300781 8.800781 13.433594 9 13.503906 L 9 13.59375 C 9 13.847656 9.203125 14.054688 9.457031 14.054688 C 9.710938 14.054688 9.917969 13.847656 9.917969 13.59375 L 9.917969 13.484375 C 10.300781 13.324219 10.558594 12.945312 10.558594 12.527344 C 10.558594 11.957031 10.09375 11.492188 9.523438 11.492188 L 9.394531 11.492188 C 9.332031 11.492188 9.277344 11.4375 9.277344 11.375 C 9.277344 11.3125 9.332031 11.257812 9.394531 11.257812 L 9.574219 11.257812 C 9.617188 11.257812 9.644531 11.273438 9.671875 11.308594 C 9.820312 11.511719 10.105469 11.558594 10.3125 11.410156 C 10.515625 11.261719 10.5625 10.972656 10.414062 10.769531 C 10.289062 10.597656 10.113281 10.46875 9.917969 10.398438 L 9.917969 10.304688 C 9.917969 10.183594 9.871094 10.074219 9.792969 9.992188 C 10.570312 9.8125 11.152344 9.117188 11.152344 8.285156 L 11.152344 4.328125 L 23.3125 4.328125 C 23.824219 4.328125 24.238281 4.746094 24.238281 5.253906 L 24.238281 11.710938 C 22.65625 11.925781 21.027344 12.566406 19.179688 13.636719 C 19.222656 13.566406 19.246094 13.484375 19.246094 13.398438 C 19.246094 13.144531 19.042969 12.9375 18.789062 12.9375 L 12.664062 12.9375 C 12.410156 12.9375 12.203125 13.144531 12.203125 13.398438 C 12.203125 13.648438 12.410156 13.855469 12.664062 13.855469 L 18.789062 13.855469 C 18.796875 13.855469 18.800781 13.855469 18.808594 13.855469 L 18.367188 14.117188 L 18.367188 16.167969 L 12.664062 16.167969 C 12.410156 16.167969 12.203125 16.375 12.203125 16.628906 C 12.203125 16.882812 12.410156 17.085938 12.664062 17.085938 L 18.367188 17.085938 L 18.367188 17.914062 L 12.664062 17.914062 C 12.410156 17.914062 12.203125 18.117188 12.203125 18.371094 C 12.203125 18.625 12.410156 18.832031 12.664062 18.832031 L 18.367188 18.832031 L 18.367188 19.867188 C 18.367188 20.132812 18.382812 20.390625 18.410156 20.644531 L 12.664062 20.644531 C 12.410156 20.644531 12.203125 20.851562 12.203125 21.105469 C 12.203125 21.359375 12.410156 21.5625 12.664062 21.5625 L 18.585938 21.5625 C 18.660156 21.851562 18.757812 22.128906 18.875 22.398438 C 18.847656 22.390625 18.816406 22.390625 18.789062 22.390625 L 12.664062 22.390625 C 12.410156 22.390625 12.203125 22.59375 12.203125 22.847656 C 12.203125 23.101562 12.410156 23.308594 12.664062 23.308594 L 18.789062 23.308594 C 18.972656 23.308594 19.132812 23.199219 19.203125 23.042969 C 19.636719 23.777344 20.230469 24.421875 20.976562 24.960938 L 24.238281 27.300781 L 24.238281 29.300781 C 24.238281 29.808594 23.824219 30.222656 23.3125 30.222656 Z M 12.203125 7.03125 C 12.203125 7.285156 12.410156 7.488281 12.664062 7.488281 L 20.863281 7.488281 C 21.117188 7.488281 21.320312 7.285156 21.320312 7.03125 C 21.320312 6.777344 21.117188 6.570312 20.863281 6.570312 L 12.664062 6.570312 C 12.410156 6.570312 12.203125 6.777344 12.203125 7.03125 Z M 12.203125 8.773438 C 12.203125 9.027344 12.410156 9.234375 12.664062 9.234375 L 18.789062 9.234375 C 19.042969 9.234375 19.246094 9.027344 19.246094 8.773438 C 19.246094 8.519531 19.042969 8.316406 18.789062 8.316406 L 12.664062 8.316406 C 12.410156 8.316406 12.203125 8.519531 12.203125 8.773438 Z M 12.203125 11.652344 C 12.203125 11.90625 12.410156 12.113281 12.664062 12.113281 L 20.863281 12.113281 C 21.117188 12.113281 21.320312 11.90625 21.320312 11.652344 C 21.320312 11.398438 21.117188 11.195312 20.863281 11.195312 L 12.664062 11.195312 C 12.410156 11.195312 12.203125 11.398438 12.203125 11.652344 Z M 10.558594 26.453125 C 10.558594 25.882812 10.09375 25.417969 9.523438 25.417969 L 9.394531 25.417969 C 9.332031 25.417969 9.277344 25.367188 9.277344 25.300781 C 9.277344 25.238281 9.332031 25.183594 9.394531 25.183594 L 9.574219 25.183594 C 9.617188 25.183594 9.644531 25.199219 9.671875 25.234375 C 9.820312 25.441406 10.105469 25.484375 10.3125 25.335938 C 10.515625 25.1875 10.5625 24.902344 10.414062 24.695312 C 10.289062 24.527344 10.113281 24.398438 9.917969 24.328125 L 9.917969 24.234375 C 9.917969 23.980469 9.710938 23.773438 9.457031 23.773438 C 9.203125 23.773438 9 23.980469 9 24.234375 L 9 24.34375 C 8.613281 24.503906 8.359375 24.882812 8.359375 25.300781 C 8.359375 25.871094 8.824219 26.335938 9.394531 26.335938 L 9.523438 26.335938 C 9.585938 26.335938 9.640625 26.390625 9.640625 26.453125 C 9.640625 26.519531 9.585938 26.570312 9.523438 26.570312 L 9.339844 26.570312 C 9.300781 26.570312 9.269531 26.558594 9.246094 26.523438 C 9.097656 26.320312 8.8125 26.273438 8.605469 26.417969 C 8.402344 26.566406 8.355469 26.851562 8.503906 27.058594 C 8.625 27.230469 8.800781 27.359375 9 27.429688 L 9 27.523438 C 9 27.777344 9.203125 27.980469 9.457031 27.980469 C 9.710938 27.980469 9.917969 27.777344 9.917969 27.523438 L 9.917969 27.410156 C 10.300781 27.25 10.558594 26.875 10.558594 26.453125 Z M 10.558594 21.980469 C 10.558594 21.410156 10.09375 20.941406 9.523438 20.941406 L 9.394531 20.941406 C 9.332031 20.941406 9.277344 20.890625 9.277344 20.828125 C 9.277344 20.761719 9.332031 20.710938 9.394531 20.710938 L 9.574219 20.710938 C 9.617188 20.710938 9.644531 20.722656 9.671875 20.757812 C 9.820312 20.964844 10.105469 21.007812 10.3125 20.859375 C 10.515625 20.710938 10.5625 20.425781 10.414062 20.222656 C 10.289062 20.050781 10.113281 19.921875 9.917969 19.851562 L 9.917969 19.757812 C 9.917969 19.503906 9.710938 19.296875 9.457031 19.296875 C 9.203125 19.296875 9 19.503906 9 19.757812 L 9 19.871094 C 8.613281 20.027344 8.359375 20.40625 8.359375 20.828125 C 8.359375 21.394531 8.824219 21.863281 9.394531 21.863281 L 9.523438 21.863281 C 9.585938 21.863281 9.640625 21.914062 9.640625 21.980469 C 9.640625 22.042969 9.585938 22.097656 9.523438 22.097656 L 9.339844 22.097656 C 9.296875 22.097656 9.269531 22.082031 9.246094 22.046875 C 9.097656 21.839844 8.808594 21.796875 8.605469 21.945312 C 8.398438 22.09375 8.355469 22.378906 8.503906 22.582031 C 8.625 22.753906 8.800781 22.882812 9 22.953125 L 9 23.046875 C 9 23.300781 9.203125 23.507812 9.457031 23.507812 C 9.710938 23.507812 9.917969 23.300781 9.917969 23.046875 L 9.917969 22.933594 C 10.300781 22.777344 10.558594 22.398438 10.558594 21.980469 Z M 10.558594 17.503906 C 10.558594 16.933594 10.09375 16.46875 9.523438 16.46875 L 9.394531 16.46875 C 9.332031 16.46875 9.277344 16.414062 9.277344 16.351562 C 9.277344 16.285156 9.332031 16.234375 9.394531 16.234375 L 9.574219 16.234375 C 9.617188 16.234375 9.644531 16.246094 9.671875 16.28125 C 9.820312 16.488281 10.105469 16.535156 10.3125 16.386719 C 10.515625 16.234375 10.5625 15.949219 10.414062 15.746094 C 10.289062 15.574219 10.113281 15.445312 9.917969 15.375 L 9.917969 15.28125 C 9.917969 15.027344 9.710938 14.824219 9.457031 14.824219 C 9.203125 14.824219 9 15.027344 9 15.28125 L 9 15.394531 C 8.613281 15.554688 8.359375 15.929688 8.359375 16.351562 C 8.359375 16.921875 8.824219 17.386719 9.394531 17.386719 L 9.523438 17.386719 C 9.585938 17.386719 9.640625 17.4375 9.640625 17.503906 C 9.640625 17.566406 9.585938 17.621094 9.523438 17.621094 L 9.339844 17.621094 C 9.296875 17.621094 9.269531 17.605469 9.246094 17.570312 C 9.097656 17.363281 8.808594 17.320312 8.605469 17.46875 C 8.398438 17.617188 8.355469 17.902344 8.503906 18.109375 C 8.625 18.277344 8.800781 18.40625 9 18.476562 L 9 18.570312 C 9 18.824219 9.203125 19.03125 9.457031 19.03125 C 9.710938 19.03125 9.917969 18.824219 9.917969 18.570312 L 9.917969 18.460938 C 10.300781 18.300781 10.558594 17.921875 10.558594 17.503906 Z M 19.246094 27.324219 C 19.246094 27.070312 19.042969 26.863281 18.789062 26.863281 L 12.664062 26.863281 C 12.410156 26.863281 12.203125 27.070312 12.203125 27.324219 C 12.203125 27.578125 12.410156 27.785156 12.664062 27.785156 L 18.789062 27.785156 C 19.042969 27.785156 19.246094 27.578125 19.246094 27.324219 Z M 21.320312 25.582031 C 21.320312 25.328125 21.117188 25.121094 20.863281 25.121094 L 12.664062 25.121094 C 12.410156 25.121094 12.203125 25.328125 12.203125 25.582031 C 12.203125 25.832031 12.410156 26.039062 12.664062 26.039062 L 20.863281 26.039062 C 21.117188 26.039062 21.320312 25.832031 21.320312 25.582031 Z M 26.382812 16.09375 C 26.382812 15.570312 25.949219 15.140625 25.425781 15.140625 C 24.902344 15.140625 24.472656 15.570312 24.472656 16.09375 L 24.472656 17.382812 L 26.382812 17.382812 Z M 25.15625 27.960938 L 25.15625 29.300781 C 25.15625 30.316406 24.328125 31.140625 23.3125 31.140625 L 7.890625 31.140625 L 7.890625 31.75 C 7.890625 32.257812 8.308594 32.675781 8.816406 32.675781 L 25.765625 32.675781 C 26.273438 32.675781 26.6875 32.257812 26.6875 31.75 L 26.6875 27.25 L 25.425781 28.15625 Z M 31.566406 14.640625 L 31.566406 19.867188 C 31.566406 21.660156 30.792969 23.167969 29.339844 24.214844 L 25.425781 27.027344 L 21.515625 24.214844 C 20.058594 23.167969 19.285156 21.660156 19.285156 19.867188 L 19.285156 14.640625 C 23.9375 11.851562 26.917969 11.851562 31.566406 14.640625 Z M 29.007812 18.140625 C 29.007812 17.722656 28.667969 17.382812 28.25 17.382812 L 27.871094 17.382812 L 27.871094 16.09375 C 27.871094 14.746094 26.773438 13.648438 25.425781 13.648438 C 24.082031 13.648438 22.980469 14.746094 22.980469 16.09375 L 22.980469 17.382812 L 22.605469 17.382812 C 22.1875 17.382812 21.84375 17.722656 21.84375 18.140625 L 21.84375 22.734375 C 21.84375 23.152344 22.1875 23.496094 22.605469 23.496094 L 28.25 23.496094 C 28.667969 23.496094 29.007812 23.152344 29.007812 22.734375 Z M 29.007812 18.140625 " fill-opacity="1" fill-rule="nonzero"/></g></svg>