<svg xmlns="http://www.w3.org/2000/svg" xmlns:xlink="http://www.w3.org/1999/xlink" width="50" zoomAndPan="magnify" viewBox="0 0 37.5 37.499999" height="50" preserveAspectRatio="xMidYMid meet" version="1.0"><defs><clipPath id="fab4bae6e2"><path d="M 0 0 L 37.007812 0 L 37.007812 37.007812 L 0 37.007812 Z M 0 0 " clip-rule="nonzero"/></clipPath><clipPath id="c134b0abd6"><path d="M 7.738281 14 L 19 14 L 19 19 L 7.738281 19 Z M 7.738281 14 " clip-rule="nonzero"/></clipPath><clipPath id="44f0f16d51"><path d="M 7.738281 7.550781 L 19 7.550781 L 19 12 L 7.738281 12 Z M 7.738281 7.550781 " clip-rule="nonzero"/></clipPath><clipPath id="b928a604ba"><path d="M 7.738281 10 L 19 10 L 19 15 L 7.738281 15 Z M 7.738281 10 " clip-rule="nonzero"/></clipPath><clipPath id="8d7056b469"><path d="M 13 27 L 24 27 L 24 31.234375 L 13 31.234375 Z M 13 27 " clip-rule="nonzero"/></clipPath><clipPath id="c86095f62e"><path d="M 7.738281 17 L 19 17 L 19 22 L 7.738281 22 Z M 7.738281 17 " clip-rule="nonzero"/></clipPath><clipPath id="5e2399065c"><path d="M 18 17 L 29.203125 17 L 29.203125 22 L 18 22 Z M 18 17 " clip-rule="nonzero"/></clipPath><clipPath id="957750e354"><path d="M 18 14 L 29.203125 14 L 29.203125 19 L 18 19 Z M 18 14 " clip-rule="nonzero"/></clipPath><clipPath id="6a3f7a69db"><path d="M 18 11 L 29.203125 11 L 29.203125 15 L 18 15 Z M 18 11 " clip-rule="nonzero"/></clipPath><clipPath id="678426434f"><path d="M 7.738281 21 L 13 21 L 13 26 L 7.738281 26 Z M 7.738281 21 " clip-rule="nonzero"/></clipPath><clipPath id="305814deb6"><path d="M 24 21 L 29.203125 21 L 29.203125 26 L 24 26 Z M 24 21 " clip-rule="nonzero"/></clipPath></defs><g clip-path="url(#fab4bae6e2)"><path fill="#ffffff" d="M 0 0 L 37.007812 0 L 37.007812 37.007812 L 0 37.007812 Z M 0 0 " fill-opacity="1" fill-rule="nonzero"/><path fill="#ffffff" d="M 0 0 L 37.007812 0 L 37.007812 37.007812 L 0 37.007812 Z M 0 0 " fill-opacity="1" fill-rule="nonzero"/></g><g clip-path="url(#c134b0abd6)"><path fill="#0e6939" d="M 12.910156 18.222656 C 15.871094 18.222656 18.082031 17.269531 18.082031 16.417969 L 18.082031 14.28125 C 16.964844 15.097656 14.898438 15.53125 12.910156 15.53125 C 10.925781 15.53125 8.855469 15.097656 7.738281 14.28125 L 7.738281 16.417969 C 7.738281 17.269531 9.949219 18.222656 12.910156 18.222656 " fill-opacity="1" fill-rule="nonzero"/></g><g clip-path="url(#44f0f16d51)"><path fill="#0e6939" d="M 12.910156 11.167969 C 15.871094 11.167969 18.082031 10.214844 18.082031 9.363281 C 18.082031 8.511719 15.871094 7.558594 12.910156 7.558594 C 9.949219 7.558594 7.738281 8.511719 7.738281 9.363281 C 7.738281 10.214844 9.949219 11.167969 12.910156 11.167969 " fill-opacity="1" fill-rule="nonzero"/></g><g clip-path="url(#b928a604ba)"><path fill="#0e6939" d="M 12.910156 14.695312 C 15.871094 14.695312 18.082031 13.742188 18.082031 12.890625 L 18.082031 10.753906 C 16.964844 11.570312 14.898438 12.003906 12.910156 12.003906 C 10.925781 12.003906 8.855469 11.570312 7.738281 10.753906 L 7.738281 12.890625 C 7.738281 13.742188 9.949219 14.695312 12.910156 14.695312 " fill-opacity="1" fill-rule="nonzero"/></g><g clip-path="url(#8d7056b469)"><path fill="#0e6939" d="M 14.859375 28.007812 C 14.859375 28.007812 14.855469 28.007812 14.855469 28.007812 C 14.253906 27.816406 13.730469 27.570312 13.328125 27.277344 L 13.328125 29.414062 C 13.328125 29.804688 13.804688 30.21875 14.601562 30.550781 L 14.601562 29.035156 C 14.601562 28.804688 14.789062 28.617188 15.019531 28.617188 C 15.25 28.617188 15.4375 28.804688 15.4375 29.035156 L 15.4375 30.835938 C 15.683594 30.902344 15.949219 30.964844 16.226562 31.015625 L 16.226562 29.382812 C 16.226562 29.152344 16.414062 28.964844 16.644531 28.964844 C 16.875 28.964844 17.0625 29.152344 17.0625 29.382812 L 17.0625 31.136719 C 17.515625 31.1875 17.996094 31.21875 18.5 31.21875 C 21.460938 31.21875 23.671875 30.265625 23.671875 29.414062 L 23.671875 27.277344 C 22.554688 28.09375 20.484375 28.523438 18.5 28.523438 C 17.230469 28.523438 15.925781 28.347656 14.859375 28.007812 " fill-opacity="1" fill-rule="nonzero"/></g><path fill="#0e6939" d="M 13.328125 22.359375 C 13.328125 23.210938 15.539062 24.164062 18.5 24.164062 C 21.460938 24.164062 23.671875 23.210938 23.671875 22.359375 C 23.671875 21.507812 21.460938 20.554688 18.5 20.554688 C 15.539062 20.554688 13.328125 21.507812 13.328125 22.359375 " fill-opacity="1" fill-rule="nonzero"/><g clip-path="url(#c86095f62e)"><path fill="#0e6939" d="M 18.082031 17.808594 C 16.964844 18.625 14.898438 19.058594 12.910156 19.058594 C 10.925781 19.058594 8.855469 18.625 7.738281 17.808594 L 7.738281 19.933594 C 7.738281 20.761719 9.820312 21.679688 12.644531 21.734375 C 13.253906 20.492188 15.675781 19.800781 18.082031 19.726562 L 18.082031 17.808594 " fill-opacity="1" fill-rule="nonzero"/></g><g clip-path="url(#5e2399065c)"><path fill="#0e6939" d="M 18.917969 17.980469 L 18.917969 19.726562 C 21.4375 19.804688 23.96875 20.5625 24.425781 21.917969 C 27.214844 21.847656 29.261719 20.9375 29.261719 20.117188 L 29.261719 17.980469 C 28.144531 18.796875 26.074219 19.230469 24.089844 19.230469 C 22.101562 19.230469 20.035156 18.796875 18.917969 17.980469 " fill-opacity="1" fill-rule="nonzero"/></g><g clip-path="url(#957750e354)"><path fill="#0e6939" d="M 18.917969 14.453125 L 18.917969 16.589844 C 18.917969 17.441406 21.128906 18.394531 24.089844 18.394531 C 27.050781 18.394531 29.261719 17.441406 29.261719 16.589844 L 29.261719 14.453125 C 28.144531 15.269531 26.074219 15.703125 24.089844 15.703125 C 22.101562 15.703125 20.035156 15.269531 18.917969 14.453125 " fill-opacity="1" fill-rule="nonzero"/></g><g clip-path="url(#6a3f7a69db)"><path fill="#0e6939" d="M 24.089844 14.867188 C 27.050781 14.867188 29.261719 13.914062 29.261719 13.0625 C 29.261719 12.210938 27.050781 11.257812 24.089844 11.257812 C 21.128906 11.257812 18.917969 12.210938 18.917969 13.0625 C 18.917969 13.914062 21.128906 14.867188 24.089844 14.867188 " fill-opacity="1" fill-rule="nonzero"/></g><g clip-path="url(#678426434f)"><path fill="#0e6939" d="M 7.738281 23.464844 C 7.738281 24.277344 9.757812 25.179688 12.515625 25.261719 L 12.515625 22.5625 C 10.65625 22.511719 8.78125 22.089844 7.738281 21.324219 L 7.738281 23.464844 " fill-opacity="1" fill-rule="nonzero"/></g><path fill="#0e6939" d="M 13.328125 23.738281 L 13.328125 25.886719 C 13.328125 26.277344 13.804688 26.691406 14.601562 27.023438 L 14.601562 25.519531 C 14.601562 25.289062 14.789062 25.101562 15.019531 25.101562 C 15.25 25.101562 15.4375 25.289062 15.4375 25.519531 L 15.4375 27.308594 C 15.683594 27.375 15.949219 27.4375 16.226562 27.488281 L 16.226562 25.867188 C 16.226562 25.636719 16.414062 25.449219 16.644531 25.449219 C 16.875 25.449219 17.0625 25.636719 17.0625 25.867188 L 17.0625 27.609375 C 17.515625 27.660156 17.996094 27.691406 18.5 27.691406 C 21.460938 27.691406 23.671875 26.738281 23.671875 25.886719 L 23.683594 25.886719 L 23.683594 23.734375 C 22.574219 24.558594 20.496094 24.996094 18.5 24.996094 C 16.507812 24.996094 14.4375 24.558594 13.328125 23.738281 " fill-opacity="1" fill-rule="nonzero"/><g clip-path="url(#305814deb6)"><path fill="#0e6939" d="M 24.496094 25.441406 C 27.25 25.359375 29.261719 24.460938 29.261719 23.648438 L 29.261719 21.507812 C 28.222656 22.269531 26.351562 22.691406 24.496094 22.746094 L 24.496094 25.441406 " fill-opacity="1" fill-rule="nonzero"/></g></svg>