<svg xmlns="http://www.w3.org/2000/svg" xmlns:xlink="http://www.w3.org/1999/xlink" width="733" zoomAndPan="magnify" viewBox="0 0 549.75 519.750007" height="693" preserveAspectRatio="xMidYMid meet" version="1.0"><defs><filter x="0%" y="0%" width="100%" height="100%" id="4805a581df"><feColorMatrix values="0 0 0 0 1 0 0 0 0 1 0 0 0 0 1 0 0 0 1 0" color-interpolation-filters="sRGB"/></filter><clipPath id="4f291bb9cf"><path d="M 0.0078125 0 L 549.492188 0 L 549.492188 519.5 L 0.0078125 519.5 Z M 0.0078125 0 " clip-rule="nonzero"/></clipPath><mask id="ba8dc265a6"><g filter="url(#4805a581df)"><rect x="-54.975" width="659.7" fill="#000000" y="-51.975001" height="623.700008" fill-opacity="0.16"/></g></mask><clipPath id="5e43722676"><path d="M 80 243 L 453 243 L 453 519.351562 L 80 519.351562 Z M 80 243 " clip-rule="nonzero"/></clipPath><clipPath id="97d818611a"><path d="M 0.0078125 7 L 521 7 L 521 354 L 0.0078125 354 Z M 0.0078125 7 " clip-rule="nonzero"/></clipPath><clipPath id="eae958ab0c"><path d="M 19 0 L 549.492188 0 L 549.492188 347 L 19 347 Z M 19 0 " clip-rule="nonzero"/></clipPath><clipPath id="33fd9da92f"><rect x="0" width="550" y="0" height="520"/></clipPath></defs><g clip-path="url(#4f291bb9cf)"><g mask="url(#ba8dc265a6)"><g transform="matrix(1, 0, 0, 1, 0, 0.000000000000036307)"><g clip-path="url(#33fd9da92f)"><g clip-path="url(#5e43722676)"><path fill="#fafafa" d="M 298.914062 298.046875 C 327.445312 282.085938 337.640625 267.808594 337.640625 267.808594 C 337.640625 267.808594 345.460938 275.28125 337.640625 286.835938 C 329.828125 298.382812 325.066406 304.839844 325.066406 304.839844 C 325.066406 304.839844 356.328125 299.074219 368.214844 279.703125 C 380.097656 260.335938 389.964844 258.96875 397.097656 261.703125 L 370.082031 292.441406 C 370.082031 292.441406 374.832031 292.617188 376.714844 291.589844 C 378.582031 290.574219 403.378906 264.246094 409.15625 261.363281 C 414.925781 258.46875 421.378906 260.851562 421.378906 260.851562 L 382.820312 299.25 C 382.820312 299.25 388.085938 299.410156 393.863281 295.5 C 399.640625 291.589844 423.421875 265.261719 429.1875 262.042969 C 434.96875 258.808594 442.277344 262.203125 442.277344 262.203125 L 397.097656 303.648438 C 397.097656 303.648438 402.863281 304.5 406.261719 301.78125 C 409.65625 299.074219 435.507812 274.601562 441.613281 271.71875 C 447.730469 268.835938 452.820312 272.394531 452.820312 272.394531 C 452.820312 272.394531 418.835938 309.425781 404.230469 316.058594 C 389.613281 322.679688 324.914062 329.222656 296.144531 340.429688 C 269.316406 350.882812 260.515625 401.753906 271.074219 455.109375 C 281.851562 492.957031 327.207031 508.726562 398.351562 519.257812 L 232.789062 519.257812 C 226.082031 465.152344 226.769531 338.398438 298.914062 298.046875 Z M 218.859375 518.804688 L 148.03125 518.804688 C 148.03125 518.804688 204.105469 500.25 216.328125 487.601562 C 216.328125 487.601562 215.074219 501.945312 218.859375 518.804688 Z M 157.246094 268.445312 C 157.246094 268.445312 148.394531 272.773438 156.042969 285.644531 C 163.675781 298.507812 173.917969 316.210938 167.484375 319.394531 C 161.042969 322.578125 131.070312 308.160156 131.070312 308.160156 C 140.371094 310.53125 149.671875 312.910156 158.722656 312.863281 C 150.175781 304.261719 144.660156 281.796875 141.121094 277.246094 C 137.574219 272.683594 132.898438 272.457031 132.898438 272.457031 L 144.632812 302.421875 L 140.070312 301.265625 C 140.070312 301.265625 129.765625 272.171875 126.933594 267.582031 C 124.097656 263.007812 116.089844 261.175781 116.089844 261.175781 L 130.742188 301.214844 C 130.742188 301.214844 126.28125 299.199219 124.285156 296.015625 C 122.28125 292.832031 112.652344 262.832031 109.734375 258.605469 C 106.835938 254.382812 98.964844 251.835938 98.964844 251.835938 L 113.507812 293.269531 C 113.507812 293.269531 109.195312 291.703125 107.863281 288.792969 C 106.523438 285.886719 95.152344 251.773438 93.074219 248.953125 C 91.015625 246.121094 80.035156 243.953125 80.035156 243.953125 C 80.035156 243.953125 97.558594 300.828125 104.855469 313.816406 C 112.152344 326.804688 130.34375 333.847656 180.359375 339.640625 C 230.378906 345.417969 225.554688 386.125 225.554688 386.125 C 239.21875 354.570312 246.011719 328.582031 207.914062 311.320312 C 179.785156 298.582031 163.449219 279.277344 157.246094 268.445312 Z M 157.246094 268.445312 " fill-opacity="1" fill-rule="evenodd"/></g><g clip-path="url(#97d818611a)"><path fill="#0e6939" d="M 61.894531 344.679688 L 93.472656 318.566406 L 86.890625 327.929688 C 91.84375 343.074219 73.101562 359.058594 54.296875 351.4375 C 54.296875 351.421875 51.578125 321.300781 82.242188 322.316406 Z M 449.132812 345.257812 L 419.613281 320.824219 L 425.769531 329.597656 C 421.15625 343.738281 438.65625 358.695312 456.242188 351.5625 C 456.242188 351.550781 458.773438 323.394531 430.117188 324.332031 Z M 509.644531 294.371094 L 464.003906 281.875 L 475.386719 288.617188 C 477.378906 306.894531 504.695312 314.816406 520.851562 297.855469 C 520.851562 297.855469 509.394531 264.863281 477.617188 280.480469 Z M 294.425781 255.597656 L 261.15625 287.753906 L 272.5 281.546875 C 288.875 288.980469 309.167969 269.964844 302.964844 247.914062 C 302.953125 247.914062 269.492188 241.09375 266.773438 275.605469 Z M 140.609375 255.824219 L 168.402344 248.640625 L 161.433594 252.628906 C 160.066406 263.695312 143.441406 268.273438 133.789062 257.855469 C 133.789062 257.855469 141.011719 237.933594 160.164062 247.675781 Z M 30.441406 244.714844 L 72.210938 241.09375 L 61.230469 245.15625 C 56.566406 260.761719 31.496094 263.332031 20.113281 245.96875 C 20.113281 245.96875 35.355469 219.03125 60.578125 237.695312 Z M 393.8125 217.765625 L 331.898438 213.828125 L 348.292969 219.46875 C 355.703125 242.410156 392.871094 245.34375 409.121094 219.28125 C 409.121094 219.28125 385.675781 179.957031 348.996094 208.425781 Z M 196.121094 188.003906 L 239.542969 212.75 L 226.003906 209.289062 C 210.875 221.449219 184.5625 206.984375 185.148438 182.25 C 185.148438 182.25 218.34375 166.152344 230.417969 201.554688 Z M 499.503906 149.40625 L 440.070312 162.203125 L 457.03125 163.15625 C 470.144531 182.800781 505.972656 175.65625 514.335938 146.746094 C 514.335938 146.746094 481.726562 115.910156 454.75 152.550781 Z M 14.960938 149.40625 L 74.382812 162.203125 L 57.417969 163.15625 C 44.292969 182.800781 8.480469 175.65625 0.117188 146.746094 C 0.105469 146.746094 32.710938 115.910156 59.703125 152.550781 Z M 109.996094 120.09375 L 172.175781 150.996094 L 153.132812 147.261719 C 133.085938 165.324219 95.429688 147.324219 94.3125 112.960938 C 94.3125 112.960938 139.09375 88.015625 158.648438 136.191406 Z M 404.457031 120.09375 L 342.277344 150.996094 L 361.332031 147.261719 C 381.363281 165.324219 419.011719 147.324219 420.140625 112.960938 C 420.140625 112.960938 375.359375 88.015625 355.816406 136.191406 Z M 220.039062 95.738281 L 233.1875 142.308594 L 226.207031 130.726562 C 207.488281 128.847656 199.164062 100.976562 216.378906 84.304688 C 216.378906 84.304688 250.210938 95.75 234.503906 128.382812 Z M 276.4375 41.542969 L 272.277344 87.289062 L 276.777344 75.277344 C 293.914062 70.238281 296.820312 42.785156 277.867188 30.238281 C 277.867188 30.238281 248.28125 46.808594 268.628906 74.527344 Z M 142.566406 20.808594 L 176.9375 77.085938 L 163.511719 64.460938 C 138.265625 68.847656 117.105469 35.363281 133.550781 7.171875 C 133.550781 7.171875 182.152344 9.742188 173.542969 58.328125 Z M 142.566406 20.808594 " fill-opacity="1" fill-rule="evenodd"/></g><g clip-path="url(#eae958ab0c)"><path fill="#c5ff00" d="M 411.6875 342.609375 L 399.816406 329.308594 L 402.035156 333.773438 C 398.925781 339.964844 405.933594 348.050781 414.523438 346.007812 C 414.511719 346.007812 417.65625 333.222656 404.40625 331.652344 Z M 98.839844 342.609375 L 110.722656 329.308594 L 108.503906 333.773438 C 111.613281 339.964844 104.59375 348.050781 96.019531 346.007812 C 96.019531 346.007812 92.886719 333.222656 106.132812 331.652344 Z M 468.113281 313.753906 L 437.085938 299.085938 L 444.371094 305.328125 C 443.492188 318.640625 462.007812 327.753906 475.6875 317.664062 C 475.6875 317.664062 471.660156 292.652344 446.976562 299.8125 Z M 222.519531 267.78125 L 256.191406 305.390625 L 244.332031 297.730469 C 225.929688 304.539062 205.359375 282.25 213.859375 258.746094 C 213.859375 258.746094 250.800781 253.957031 251.039062 291.738281 Z M 26.492188 279.957031 L 56.027344 271.871094 L 48.671875 276.230469 C 47.367188 288.066406 29.703125 293.195312 19.246094 282.222656 C 19.246094 282.222656 26.644531 260.863281 47.226562 270.96875 Z M 512.214844 246.269531 L 450.402344 240.917969 L 466.671875 246.910156 C 473.554688 270.027344 510.636719 273.8125 527.484375 248.125 C 527.484375 248.125 504.945312 208.273438 467.625 235.902344 Z M 347.089844 246.558594 L 315.625 252.828125 L 324.574219 253.464844 C 331.332031 263.933594 350.289062 260.460938 354.9375 245.28125 C 354.9375 245.28125 337.988281 228.746094 323.460938 247.851562 Z M 225.78125 230.097656 L 250.449219 254.769531 L 241.988281 249.945312 C 229.550781 255.347656 214.484375 240.753906 219.449219 224.207031 C 219.449219 224.207031 244.757812 219.46875 246.386719 245.542969 Z M 120.640625 217.765625 L 182.554688 213.828125 L 166.15625 219.46875 C 158.75 242.410156 121.578125 245.34375 105.332031 219.28125 C 105.332031 219.28125 128.777344 179.957031 165.457031 208.425781 Z M 325.929688 220.433594 L 294.011719 228.117188 L 303.191406 228.40625 C 310.523438 238.847656 329.765625 234.511719 333.902344 218.804688 C 333.902344 218.804688 315.902344 202.582031 301.808594 222.726562 Z M 537.890625 205.792969 L 491.519531 206.792969 L 504.09375 209.953125 C 511.0625 226.5625 538.941406 226.390625 549.382812 205.953125 C 549.382812 205.953125 529.425781 178.136719 503.917969 201.679688 Z M 473.929688 196.164062 L 421.179688 200.148438 L 435.695312 202.972656 C 444.660156 221.476562 476.386719 219.570312 487.042969 195.636719 C 487.042969 195.636719 462.609375 165.1875 434.980469 193.570312 Z M 40.519531 196.164062 L 93.273438 200.148438 L 78.757812 202.972656 C 69.792969 221.476562 38.0625 219.570312 27.410156 195.636719 C 27.410156 195.636719 51.855469 165.1875 79.46875 193.570312 Z M 290.128906 184.027344 L 265.605469 205.476562 L 273.804688 201.503906 C 285.050781 207.308594 299.980469 194.632812 296.382812 178.914062 C 296.382812 178.914062 273.101562 172.949219 269.980469 197.128906 Z M 251.554688 157.90625 L 250.175781 200.5 L 247.390625 188.917969 C 232.183594 182.335938 232.648438 156.726562 251.527344 147.335938 C 251.527344 147.335938 276.875 165.964844 254.988281 189.15625 Z M 350.050781 176.40625 L 300.269531 194.246094 L 315.011719 193.117188 C 328.550781 208.5625 358.625 198.296875 362.535156 172.421875 C 362.535156 172.421875 330.894531 149.554688 311.8125 184.242188 Z M 420.515625 171.480469 L 374.230469 181.460938 L 387.445312 182.1875 C 397.660156 197.492188 425.554688 191.925781 432.0625 169.398438 C 432.0625 169.398438 406.675781 145.40625 385.664062 173.9375 Z M 93.9375 171.480469 L 140.21875 181.460938 L 127.007812 182.1875 C 116.789062 197.492188 88.898438 191.925781 82.378906 169.398438 C 82.378906 169.398438 107.777344 145.40625 128.777344 173.9375 Z M 148.746094 166.417969 L 178.882812 177.222656 L 169.96875 176.53125 C 161.757812 185.886719 143.542969 179.679688 141.171875 164.007812 C 141.171875 164.007812 160.339844 150.167969 171.886719 171.167969 Z M 201.660156 145.203125 L 230.054688 178.726562 L 219.925781 171.78125 C 203.765625 177.273438 186.390625 157.390625 194.339844 137.15625 C 194.339844 137.144531 226.59375 133.859375 225.894531 166.730469 Z M 291.316406 106.316406 L 273.40625 169.789062 L 282.917969 154.003906 C 308.417969 151.421875 319.761719 113.464844 296.308594 90.761719 C 296.308594 90.761719 250.199219 106.34375 271.609375 150.808594 Z M 349.484375 95.851562 L 322.09375 129.871094 L 331.996094 122.726562 C 348.195312 127.78125 364.980469 107.585938 356.582031 87.664062 C 356.582031 87.664062 324.4375 85.183594 325.929688 117.851562 Z M 252.417969 82.574219 L 251.429688 112.960938 L 249.449219 104.6875 C 238.605469 100 238.929688 81.722656 252.40625 75.015625 C 252.40625 75.015625 270.496094 88.316406 254.875 104.875 Z M 447.832031 90.234375 L 422.910156 109.578125 L 431.046875 106.21875 C 441.601562 112.460938 456.757812 101.066406 454.171875 85.660156 C 454.171875 85.660156 431.984375 78.5625 427.597656 101.769531 Z M 66.621094 90.234375 L 91.542969 109.578125 L 83.394531 106.21875 C 72.851562 112.460938 57.707031 101.066406 60.277344 85.660156 C 60.277344 85.660156 82.46875 78.5625 86.855469 101.769531 Z M 408.929688 62.730469 L 373.289062 97.945312 L 385.488281 91.085938 C 403.316406 98.933594 425.054688 78.113281 418.070312 54.316406 C 418.070312 54.304688 381.753906 47.3125 379.222656 84.730469 Z M 105.519531 62.730469 L 141.160156 97.945312 L 128.949219 91.085938 C 111.136719 98.933594 89.398438 78.113281 96.382812 54.316406 C 96.382812 54.304688 132.6875 47.3125 135.242188 84.730469 Z M 196.632812 45.089844 L 208.328125 89.179688 L 201.910156 78.148438 C 184.308594 76.09375 176.875 49.71875 193.359375 34.261719 C 193.359375 34.261719 225.078125 45.554688 209.78125 76.082031 Z M 371.886719 20.808594 L 337.511719 77.085938 L 350.941406 64.460938 C 376.1875 68.847656 397.359375 35.363281 380.902344 7.171875 C 380.902344 7.171875 332.296875 9.742188 340.910156 58.328125 Z M 247.589844 11.144531 L 249.308594 56.222656 L 245.511719 44.203125 C 228.976562 38.386719 227.535156 11.332031 246.777344 0 C 246.777344 0 274.921875 17.761719 253.546875 43.902344 Z M 247.589844 11.144531 " fill-opacity="1" fill-rule="evenodd"/></g><path fill="#8fcee0" d="M 44.757812 311.207031 L 85.449219 291.988281 L 75.898438 300.175781 C 77.039062 317.613281 52.78125 329.546875 34.84375 316.320312 C 34.855469 316.320312 40.121094 283.539062 72.476562 292.917969 Z M 177.441406 235.339844 L 215.875 246.320312 L 204.71875 246.195312 C 195.265625 258.53125 172.0625 252.289062 167.824219 232.957031 C 167.824219 232.957031 190.539062 214.140625 206.675781 239.339844 Z M 278.128906 219.769531 L 252.316406 248.617188 L 261.417969 242.746094 C 275.523438 247.964844 291.304688 230.863281 284.785156 212.835938 C 284.785156 212.835938 256.441406 209.164062 256.265625 238.148438 Z M 439.605469 236.71875 L 402.363281 233.484375 L 412.164062 237.105469 C 416.316406 251.035156 438.65625 253.316406 448.808594 237.832031 C 448.808594 237.832031 435.230469 213.828125 412.742188 230.476562 Z M 81.164062 231.816406 L 107.226562 229.558594 L 100.367188 232.09375 C 97.460938 241.832031 81.816406 243.4375 74.71875 232.605469 C 74.71875 232.605469 84.222656 215.796875 99.953125 227.453125 Z M 320.375 144.554688 L 295.015625 169.699219 L 303.714844 164.785156 C 316.414062 170.363281 331.882812 155.496094 326.871094 138.546875 C 326.871094 138.535156 300.984375 133.609375 299.226562 160.273438 Z M 445.875 130.148438 L 416.128906 144.953125 L 425.226562 143.160156 C 434.832031 151.800781 452.84375 143.1875 453.371094 126.753906 C 453.371094 126.753906 431.949219 114.816406 422.59375 137.859375 Z M 68.578125 130.148438 L 98.324219 144.953125 L 89.210938 143.160156 C 79.621094 151.800781 61.605469 143.1875 61.082031 126.753906 C 61.082031 126.753906 82.503906 114.816406 91.855469 137.859375 Z M 164.953125 95.851562 L 192.359375 129.871094 L 182.453125 122.726562 C 166.257812 127.78125 149.472656 107.585938 157.871094 87.664062 C 157.871094 87.664062 190.015625 85.183594 188.523438 117.851562 Z M 318.597656 44.414062 L 307.628906 85.746094 L 313.644531 75.417969 C 330.15625 73.472656 337.113281 48.738281 321.667969 34.261719 C 321.667969 34.261719 291.933594 44.839844 306.273438 73.472656 Z M 232.035156 57.289062 L 237.25 83.089844 L 233.925781 76.519531 C 223.863281 74.726562 220.488281 59.269531 230.507812 50.945312 C 230.507812 50.945312 248.394531 58.53125 238.527344 75.59375 Z M 232.035156 57.289062 " fill-opacity="1" fill-rule="evenodd"/></g></g></g></g></svg>